<?xml version="1.0" encoding="UTF-8"?>
<svg width="1222px" height="613px" viewBox="0 0 1222 613" version="1.1" xmlns="http://www.w3.org/2000/svg" xmlns:xlink="http://www.w3.org/1999/xlink">
    <!-- Generator: Sketch 48.2 (47327) - http://www.bohemiancoding.com/sketch -->
    <title>中文</title>
    <desc>Created with Sketch.</desc>
    <defs></defs>
    <g id="Page-1" stroke="none" stroke-width="1" fill="none" fill-rule="evenodd" fill-opacity="0">
        <path d="M319.955485,336.74638 L442.162022,336.74638 L442.162022,163.727651 L319.955485,163.727651 L319.955485,336.74638 Z M99.340527,336.74638 L220.260679,336.74638 L220.260679,163.727651 L99.340527,163.727651 L99.340527,336.74638 Z M478.823983,98.765229 L566.941328,165.657228 C563.082174,170.802767 555.363866,177.23469 541.856828,179.807459 L541.856828,386.915379 C541.213636,392.060917 491.687829,408.783917 459.528214,408.783917 L442.162022,408.783917 L442.162022,354.755764 L319.955485,354.755764 L319.955485,577.300299 C319.955485,586.948184 276.861601,611.389491 238.913256,611.389491 L220.260679,611.389491 L220.260679,354.755764 L99.340527,354.755764 L99.340527,388.201763 C99.340527,397.849648 55.6034506,419.718186 15.0823358,419.718186 L0.9321053,419.718186 L0.9321053,105.840345 L106.415642,145.718267 L220.260679,145.718267 L220.260679,1 L343.7536,12.577461 C342.467216,21.582154 337.964869,28.657269 319.955485,31.230038 L319.955485,145.718267 L436.373291,145.718267 L478.823983,98.765229 Z M834.509324,5.502346 L838.368477,2.286385 C1063.48578,12.577461 986.9459,188.812151 896.255784,127.06569 C888.537477,82.685422 862.809785,35.732384 834.509324,5.502346 Z M1001.73932,168.229998 L762.471786,168.229998 C790.772247,269.854381 845.443593,343.178303 916.194745,397.206456 C965.07736,329.671264 991.44824,252.488189 1001.73932,168.229998 Z M1193.41063,168.229998 L1114.29797,168.229998 C1095.0022,274.356727 1054.48109,366.333225 983.08674,440.30034 C1054.48109,478.891877 1136.16651,503.976377 1221.06789,520.699377 L1219.13832,528.417684 C1172.18528,535.4928 1139.38247,565.079645 1122.65947,612.032683 C1042.90363,584.375414 973.43886,548.356646 916.194745,496.901262 C840.941247,550.286223 741.24644,588.87776 611.964788,610.746299 L609.392019,604.314376 C723.880248,565.722838 809.424824,513.624262 871.171285,450.591416 C814.570362,381.76984 773.406055,291.079726 751.537517,168.229998 L620.969481,168.229998 L615.823942,150.220613 L1067.98813,150.220613 L1120.0867,79.46946 C1120.0867,79.46946 1178.6172,126.422498 1212.0632,157.938921 C1210.13363,165.014036 1203.05851,168.229998 1193.41063,168.229998 Z" id="中文" stroke="#000000" fill="#000000" fill-rule="nonzero"></path>
    </g>
</svg>