<?xml version="1.0" encoding="UTF-8"?>
<svg width="382px" height="781px" viewBox="0 0 382 781" version="1.1" xmlns="http://www.w3.org/2000/svg" xmlns:xlink="http://www.w3.org/1999/xlink">
    <!-- Generator: Sketch 48.2 (47327) - http://www.bohemiancoding.com/sketch -->
    <title>中 文</title>
    <desc>Created with Sketch.</desc>
    <defs></defs>
    <g id="Artboard-2-Copy-8" stroke="none" stroke-width="1" fill="none" fill-rule="evenodd" transform="translate(-440.000000, -31.000000)">
        <path d="M660.8,240.2 L736.8,240.2 L736.8,132.6 L660.8,132.6 L660.8,240.2 Z M523.6,240.2 L598.8,240.2 L598.8,132.6 L523.6,132.6 L523.6,240.2 Z M759.6,92.2 L814.4,133.8 C812,137 807.2,141 798.8,142.6 L798.8,271.4 C798.4,274.6 767.6,285 747.6,285 L736.8,285 L736.8,251.4 L660.8,251.4 L660.8,389.8 C660.8,395.8 634,411 610.4,411 L598.8,411 L598.8,251.4 L523.6,251.4 L523.6,272.2 C523.6,278.2 496.4,291.8 471.2,291.8 L462.4,291.8 L462.4,96.6 L528,121.4 L598.8,121.4 L598.8,31.4 L675.6,38.6 C674.8,44.2 672,48.6 660.8,50.2 L660.8,121.4 L733.2,121.4 L759.6,92.2 Z M580.8,434.2 L583.2,432.2 C723.2,438.6 675.6,548.2 619.2,509.8 C614.4,482.2 598.4,453 580.8,434.2 Z M684.8,535.4 L536,535.4 C553.6,598.6 587.6,644.2 631.6,677.8 C662,635.8 678.4,587.8 684.8,535.4 Z M804,535.4 L754.8,535.4 C742.8,601.4 717.6,658.6 673.2,704.6 C717.6,728.6 768.4,744.2 821.2,754.6 L820,759.4 C790.8,763.8 770.4,782.2 760,811.4 C710.4,794.2 667.2,771.8 631.6,739.8 C584.8,773 522.8,797 442.4,810.6 L440.8,806.6 C512,782.6 565.2,750.2 603.6,711 C568.4,668.2 542.8,611.8 529.2,535.4 L448,535.4 L444.8,524.2 L726,524.2 L758.4,480.2 C758.4,480.2 794.8,509.4 815.6,529 C814.4,533.4 810,535.4 804,535.4 Z" id="中-文" fill="#000000"></path>
    </g>
</svg>