<?xml version="1.0" encoding="UTF-8"?>
<svg width="1222px" height="611px" viewBox="0 0 1222 611" version="1.1" xmlns="http://www.w3.org/2000/svg" xmlns:xlink="http://www.w3.org/1999/xlink">
    <!-- Generator: Sketch 48.2 (47327) - http://www.bohemiancoding.com/sketch -->
    <title>中文</title>
    <desc>Created with Sketch.</desc>
    <defs></defs>
    <g id="Artboard-2-Copy-12" stroke="none" stroke-width="1" fill="none" fill-rule="evenodd" transform="translate(-32.000000, -239.000000)">
        <path d="M351.955485,574.74638 L474.162022,574.74638 L474.162022,401.727651 L351.955485,401.727651 L351.955485,574.74638 Z M131.340527,574.74638 L252.260679,574.74638 L252.260679,401.727651 L131.340527,401.727651 L131.340527,574.74638 Z M510.823983,336.765229 L598.941328,403.657228 C595.082174,408.802767 587.363866,415.23469 573.856828,417.807459 L573.856828,624.915379 C573.213636,630.060917 523.687829,646.783917 491.528214,646.783917 L474.162022,646.783917 L474.162022,592.755764 L351.955485,592.755764 L351.955485,815.300299 C351.955485,824.948184 308.861601,849.389491 270.913256,849.389491 L252.260679,849.389491 L252.260679,592.755764 L131.340527,592.755764 L131.340527,626.201763 C131.340527,635.849648 87.6034506,657.718186 47.0823358,657.718186 L32.9321053,657.718186 L32.9321053,343.840345 L138.415642,383.718267 L252.260679,383.718267 L252.260679,239 L375.7536,250.577461 C374.467216,259.582154 369.964869,266.657269 351.955485,269.230038 L351.955485,383.718267 L468.373291,383.718267 L510.823983,336.765229 Z M866.509324,243.502346 L870.368477,240.286385 C1095.48578,250.577461 1018.9459,426.812151 928.255784,365.06569 C920.537477,320.685422 894.809785,273.732384 866.509324,243.502346 Z M1033.73932,406.229998 L794.471786,406.229998 C822.772247,507.854381 877.443593,581.178303 948.194745,635.206456 C997.07736,567.671264 1023.44824,490.488189 1033.73932,406.229998 Z M1225.41063,406.229998 L1146.29797,406.229998 C1127.0022,512.356727 1086.48109,604.333225 1015.08674,678.30034 C1086.48109,716.891877 1168.16651,741.976377 1253.06789,758.699377 L1251.13832,766.417684 C1204.18528,773.4928 1171.38247,803.079645 1154.65947,850.032683 C1074.90363,822.375414 1005.43886,786.356646 948.194745,734.901262 C872.941247,788.286223 773.24644,826.87776 643.964788,848.746299 L641.392019,842.314376 C755.880248,803.722838 841.424824,751.624262 903.171285,688.591416 C846.570362,619.76984 805.406055,529.079726 783.537517,406.229998 L652.969481,406.229998 L647.823942,388.220613 L1099.98813,388.220613 L1152.0867,317.46946 C1152.0867,317.46946 1210.6172,364.422498 1244.0632,395.938921 C1242.13363,403.014036 1235.05851,406.229998 1225.41063,406.229998 Z" id="中文" fill="#000000"></path>
    </g>
</svg>