<?xml version="1.0" encoding="UTF-8"?>
<svg width="1179px" height="611px" viewBox="0 0 1179 611" version="1.1" xmlns="http://www.w3.org/2000/svg" xmlns:xlink="http://www.w3.org/1999/xlink">
    <!-- Generator: Sketch 48.2 (47327) - http://www.bohemiancoding.com/sketch -->
    <title>chinese_horz_80</title>
    <desc>Created with Sketch.</desc>
    <defs></defs>
    <g id="Page-1" stroke="none" stroke-width="1" fill="none" fill-rule="evenodd">
        <g id="chinese_horz_80" fill="#FFFD00" fill-rule="nonzero">
            <path d="M319.955485,335.74638 L442.162022,335.74638 L442.162022,162.727651 L319.955485,162.727651 L319.955485,335.74638 Z M99.340527,335.74638 L220.260679,335.74638 L220.260679,162.727651 L99.340527,162.727651 L99.340527,335.74638 Z M478.823983,97.765229 L566.941328,164.657228 C563.082174,169.802767 555.363866,176.23469 541.856828,178.807459 L541.856828,385.915379 C541.213636,391.060917 491.687829,407.783917 459.528214,407.783917 L442.162022,407.783917 L442.162022,353.755764 L319.955485,353.755764 L319.955485,576.300299 C319.955485,585.948184 276.861601,610.389491 238.913256,610.389491 L220.260679,610.389491 L220.260679,353.755764 L99.340527,353.755764 L99.340527,387.201763 C99.340527,396.849648 55.6034506,418.718186 15.0823358,418.718186 L0.9321053,418.718186 L0.9321053,104.840345 L106.415642,144.718267 L220.260679,144.718267 L220.260679,0 L343.7536,11.577461 C342.467216,20.582154 337.964869,27.657269 319.955485,30.230038 L319.955485,144.718267 L436.373291,144.718267 L478.823983,97.765229 Z M791.932105,4.215961 L795.791258,1 C1020.90856,11.291076 944.368681,187.525766 853.678565,125.779305 C845.960258,81.399037 820.232566,34.445999 791.932105,4.215961 Z M959.199639,167 L719.932105,167 C748.232566,268.624383 802.903912,341.948305 873.655064,395.976458 C922.537679,328.441266 948.908559,251.258191 959.199639,167 Z M1150.95072,166.760538 L1071.83806,166.760538 C1052.54229,272.887267 1012.02118,364.863765 940.626826,438.83088 C1012.02118,477.422417 1093.7066,502.506917 1178.60798,519.229917 L1176.67841,526.948224 C1129.72537,534.02334 1096.92256,563.610185 1080.19956,610.563223 C1000.44372,582.905954 930.978946,546.887186 873.734831,495.431802 C798.481333,548.816763 698.786526,587.4083 569.504874,609.276839 L566.932105,602.844916 C681.420334,564.253378 766.96491,512.154802 828.711371,449.121956 C772.110448,380.30038 730.946141,289.610266 709.077603,166.760538 L578.509567,166.760538 L573.364028,148.751153 L1025.52822,148.751153 L1077.62679,78 C1077.62679,78 1136.15729,124.953038 1169.60329,156.469461 C1167.67372,163.544576 1160.5986,166.760538 1150.95072,166.760538 Z" id="中文"></path>
        </g>
    </g>
</svg>