<?xml version="1.0" encoding="UTF-8"?>
<svg width="136px" height="25px" viewBox="0 0 136 25" version="1.1" xmlns="http://www.w3.org/2000/svg" xmlns:xlink="http://www.w3.org/1999/xlink">
    <!-- Generator: Sketch 48.2 (47327) - http://www.bohemiancoding.com/sketch -->
    <title>Group</title>
    <desc>Created with Sketch.</desc>
    <defs></defs>
    <g id="Page-1" stroke="none" stroke-width="1" fill="none" fill-rule="evenodd">
        <g id="Group" fill="#000000">
            <polygon id="Shape" points="82.4 18.9 82.4 2.1 92.2 2.1 92.2 4.2 84.5 4.2 84.5 9.7 91.4 9.7 91.4 11.7 84.5 11.7 84.5 18.9"></polygon>
            <path d="M105.1,13.2 C105.1,16.7 102.6,19.3 99.2,19.3 C95.7,19.3 93.3,16.7 93.3,13.2 C93.3,9.7 95.8,7.1 99.2,7.1 C102.6,7 105.1,9.7 105.1,13.2 Z M102.9,13.2 C102.9,10.6 101.1,9 99.1,9 C97.1,9 95.3,10.5 95.3,13.2 C95.3,15.8 97.1,17.4 99.1,17.4 C101.1,17.4 102.9,15.8 102.9,13.2 Z" id="Shape"></path>
            <path d="M109,9 C109.7,7.9 111.2,7 112.7,7 C115.6,7 117.1,9 117.1,11.8 L117.1,18.9 L115,18.9 L115,12.2 C115,9.8 113.8,9 112.2,9 C110.3,9 109.2,10.8 109.2,12.6 L109.2,19 L107,19 L107,7.4 L109.1,7.4 L109,9 Z" id="Shape"></path>
            <path d="M120.5,15.4 L120.5,9.4 L118.5,9.4 L118.5,7.4 L120.5,7.4 L120.5,3.9 L122.7,3.9 L122.7,7.4 L125.5,7.4 L125.5,9.4 L122.7,9.4 L122.7,15.3 C122.7,16.6 123.2,17.2 124.3,17.2 C124.7,17.2 125,17.2 125.3,17 L126.1,18.9 C125.6,19.1 125.1,19.2 124.4,19.2 C121.8,19.1 120.5,17.8 120.5,15.4 Z" id="Shape"></path>
            <path d="M126.4,16 L128.3,15.2 C128.9,16.7 130,17.4 131.4,17.4 C132.7,17.4 133.7,16.7 133.7,15.8 C133.7,15.2 133.3,14.6 132.1,14.3 L129.8,13.7 C128.7,13.4 126.7,12.5 126.7,10.5 C126.7,8.4 128.9,7.1 131.3,7.1 C133.3,7.1 135,8 135.7,9.8 L133.8,10.6 C133.4,9.5 132.3,9.1 131.2,9.1 C130,9.1 128.9,9.6 128.9,10.6 C128.9,11.3 129.5,11.7 130.4,11.9 L132.7,12.4 C135,12.9 135.9,14.4 135.9,15.8 C135.9,17.8 134.1,19.4 131.4,19.4 C128.7,19.3 127.1,17.7 126.4,16 Z" id="Shape"></path>
            <path d="M0.1,9.7 C0.1,4.4 4.6,0.1 9.9,0.1 C12.8,0.1 14.9,1.3 16.5,2.8 L14.6,4.7 C13.5,3.6 11.9,2.8 9.8,2.8 C5.9,2.8 2.9,5.9 2.9,9.8 C2.9,13.7 5.9,16.8 9.8,16.8 C12.3,16.8 13.8,15.8 14.7,14.9 C15.5,14.1 15.9,13.1 16.1,11.6 L9.9,11.6 L9.9,9 L18.8,9 C18.9,9.5 18.9,10 18.9,10.6 C18.9,12.6 18.4,15 16.6,16.8 C14.9,18.6 12.7,19.5 9.9,19.5 C4.6,19.3 0.1,15 0.1,9.7 Z" id="Shape"></path>
            <path d="M26.1,6.9 C22.7,6.9 19.9,9.5 19.9,13.1 C19.9,16.7 22.7,19.3 26.1,19.3 C29.5,19.3 32.3,16.7 32.3,13.1 C32.3,9.5 29.5,6.9 26.1,6.9 Z M26.1,16.9 C24.2,16.9 22.6,15.3 22.6,13.1 C22.6,10.9 24.2,9.3 26.1,9.3 C28,9.3 29.6,10.8 29.6,13.1 C29.6,15.3 28,16.9 26.1,16.9 Z" id="Shape"></path>
            <path d="M39.7,6.9 C36.3,6.9 33.5,9.5 33.5,13.1 C33.5,16.7 36.3,19.3 39.7,19.3 C43.1,19.3 45.9,16.7 45.9,13.1 C45.9,9.5 43.1,6.9 39.7,6.9 Z M39.7,16.9 C37.8,16.9 36.2,15.3 36.2,13.1 C36.2,10.9 37.8,9.3 39.7,9.3 C41.6,9.3 43.2,10.8 43.2,13.1 C43.2,15.3 41.6,16.9 39.7,16.9 Z" id="Shape"></path>
            <path d="M56.4,7.3 L56.4,8.3 L56.3,8.3 C55.7,7.6 54.5,6.9 53,6.9 C49.9,6.9 47,9.6 47,13.1 C47,16.6 49.8,19.3 53,19.3 C54.5,19.3 55.7,18.6 56.3,17.9 L56.4,17.9 L56.4,18.8 C56.4,21.2 55.1,22.4 53.1,22.4 C51.4,22.4 50.4,21.2 50,20.2 L47.6,21.2 C48.3,22.8 50.1,24.9 53.1,24.9 C56.3,24.9 59,23 59,18.4 L59,7.3 L56.4,7.3 Z M53.3,16.9 C51.4,16.9 49.8,15.3 49.8,13.2 C49.8,11 51.4,9.4 53.3,9.4 C55.2,9.4 56.6,11 56.6,13.2 C56.6,15.3 55.1,16.9 53.3,16.9 Z" id="Shape"></path>
            <rect id="Rectangle-path" x="60.9" y="0.7" width="2.7" height="18.3"></rect>
            <path d="M71.1,16.9 C69.7,16.9 68.7,16.3 68.1,15 L76.4,11.6 L76.1,10.9 C75.6,9.5 74,6.9 70.8,6.9 C67.6,6.9 64.9,9.4 64.9,13.1 C64.9,16.6 67.5,19.3 71.1,19.3 C73.9,19.3 75.6,17.6 76.3,16.5 L74.2,15.1 C73.5,16.2 72.5,16.9 71.1,16.9 Z M70.9,9.3 C72,9.3 72.9,9.8 73.2,10.6 L67.6,12.9 C67.6,10.5 69.5,9.3 70.9,9.3 Z" id="Shape"></path>
        </g>
    </g>
</svg>