<?xml version="1.0" encoding="UTF-8"?>
<svg width="265px" height="98px" viewBox="0 0 265 98" version="1.1" xmlns="http://www.w3.org/2000/svg" xmlns:xlink="http://www.w3.org/1999/xlink">
    <!-- Generator: Sketch 48.2 (47327) - http://www.bohemiancoding.com/sketch -->
    <title>logo10</title>
    <desc>Created with Sketch.</desc>
    <defs></defs>
    <g id="Page-1" stroke="none" stroke-width="1" fill="none" fill-rule="evenodd">
        <path d="M38.5,10.25 L38.05,10.4 C37.783332,9.799997 37.4666685,9.17500325 37.1,8.525 C36.7333315,7.87499675 36.3583352,7.2666695 35.975,6.7 C35.5916647,6.1333305 35.2166685,5.60833575 34.85,5.125 C34.4833315,4.64166425 34.166668,4.2833345 33.9,4.05 C33.1999965,3.38333 32.4416707,2.94166775 31.625,2.725 C30.8083293,2.50833225 29.766673,2.3833335 28.5,2.35 C27.8666635,2.35 27.316669,2.34166675 26.85,2.325 C26.383331,2.30833325 25.916669,2.3 25.45,2.3 L22.15,2.3 C22.15,3.1333375 22.1416668,4.2666595 22.125,5.7 C22.1083332,7.1333405 22.1,8.6333255 22.1,10.2 L22.1,29.75 C22.1,30.7166715 22.1249998,31.6416622 22.175,32.525 C22.2250002,33.4083377 22.383332,34.0333315 22.65,34.4 C23.1500025,35.133337 23.8583288,35.633332 24.775,35.9 C25.6916713,36.166668 26.516663,36.366666 27.25,36.5 L27.25,37 L11,37 L11,36.5 C11.866671,36.3999995 12.699996,36.2333345 13.5,36 C14.300004,35.7666655 15.0833295,35.216671 15.85,34.35 C16.0166675,34.1833325 16.1416662,33.9083352 16.225,33.525 C16.3083337,33.1416648 16.3749998,32.7083358 16.425,32.225 C16.4750002,31.7416642 16.5083332,31.2166695 16.525,30.65 C16.5416667,30.0833305 16.55,29.533336 16.55,29 C16.55,28.533331 16.5583333,27.9166705 16.575,27.15 C16.5916668,26.3833295 16.6083332,25.533338 16.625,24.6 C16.6416668,23.666662 16.65,22.700005 16.65,21.7 L16.65,2.3 L13.35,2.3 C12.9166645,2.3 12.4583357,2.30833325 11.975,2.325 C11.4916642,2.34166675 10.9333365,2.35 10.3,2.35 C9.033327,2.3833335 7.99167075,2.533332 7.175,2.8 C6.35832925,3.066668 5.6000035,3.53333 4.9,4.2 C4.633332,4.4333345 4.32500175,4.783331 3.975,5.25 C3.62499825,5.716669 3.25833525,6.22499725 2.875,6.775 C2.49166475,7.32500275 2.12500175,7.9166635 1.775,8.55 C1.42499825,9.1833365 1.150001,9.799997 0.95,10.4 L0.5,10.25 L2,0.75 C2.7666705,0.9166675 3.47499675,1.0499995 4.125,1.15 C4.77500325,1.2500005 5.7166605,1.3166665 6.95,1.35 C8.216673,1.3833335 9.349995,1.40833325 10.35,1.425 C11.350005,1.44166675 12.316662,1.45 13.25,1.45 L22.75,1.45 C23.750005,1.45 24.716662,1.44166675 25.65,1.425 C26.583338,1.40833325 27.549995,1.39166675 28.55,1.375 C29.550005,1.35833325 30.683327,1.35 31.95,1.35 C33.0500055,1.3166665 33.9583297,1.22500075 34.675,1.075 C35.3916703,0.92499925 36.1333295,0.7333345 36.9,0.5 L38.5,10.25 Z M60,13.9 C59.599998,13.9333335 59.2083353,13.9666665 58.825,14 C58.4416647,14.0333335 58.0750017,14.116666 57.725,14.25 C57.3749982,14.383334 57.066668,14.5916653 56.8,14.875 C56.533332,15.1583347 56.3166675,15.566664 56.15,16.1 C55.9833325,16.633336 55.7166685,17.4833275 55.35,18.65 C54.9833315,19.8166725 54.5500025,21.1916587 54.05,22.775 L52.4,28 C51.799997,29.9000095 51.1916697,31.84999 50.575,33.85 C49.9583303,35.85001 49.3416698,37.8333235 48.725,39.8 C48.1083302,41.7666765 47.5166695,43.6333245 46.95,45.4 C46.549998,46.666673 45.983337,47.5833305 45.25,48.15 C44.516663,48.7166695 43.7666705,49 43,49 C42.33333,49 41.7166695,48.7916687 41.15,48.375 C40.5833305,47.9583313 40.3,47.41667 40.3,46.75 C40.3,46.08333 40.499998,45.5333355 40.9,45.1 C41.300002,44.6666645 41.83333,44.45 42.5,44.45 C43.16667,44.45 43.7249978,44.649998 44.175,45.05 C44.6250022,45.450002 45.083331,45.8666645 45.55,46.3 L45.65,46.3 C46.0166685,45.3999955 46.3416653,44.5083378 46.625,43.625 C46.9083347,42.7416622 47.1583323,41.9416703 47.375,41.225 C47.5916677,40.5083298 47.766666,39.9000025 47.9,39.4 C48.033334,38.8999975 48.1166665,38.5666675 48.15,38.4 C48.083333,38.266666 47.9000015,37.7916707 47.6,36.975 C47.2999985,36.1583292 46.916669,35.1083398 46.45,33.825 C45.983331,32.5416602 45.450003,31.100008 44.85,29.5 C44.249997,27.899992 43.6416698,26.2583417 43.025,24.575 C42.4083303,22.8916582 41.800003,21.2333415 41.2,19.6 C40.599997,17.9666585 40.0500025,16.4666735 39.55,15.1 C39.2499985,14.766665 38.8916688,14.500001 38.475,14.3 C38.0583313,14.099999 37.283339,13.966667 36.15,13.9 L36.15,13.35 L47.05,13.35 L47.05,13.9 C46.3499965,14.0000005 45.7416692,14.1333325 45.225,14.3 C44.7083307,14.4666675 44.45,14.8666635 44.45,15.5 C44.45,15.6666675 44.549999,16.0749967 44.75,16.725 C44.950001,17.3750032 45.216665,18.1833285 45.55,19.15 C45.883335,20.1166715 46.2583312,21.1749943 46.675,22.325 C47.0916688,23.4750058 47.5083312,24.6333275 47.925,25.8 C48.3416688,26.9666725 48.749998,28.0916613 49.15,29.175 C49.550002,30.2583388 49.8999985,31.199996 50.2,32 C50.3000005,31.733332 50.483332,31.166671 50.75,30.3 C51.016668,29.433329 51.3333315,28.4083393 51.7,27.225 C52.0666685,26.0416608 52.449998,24.8000065 52.85,23.5 C53.250002,22.1999935 53.616665,20.9750058 53.95,19.825 C54.283335,18.6749943 54.5583323,17.6916707 54.775,16.875 C54.9916678,16.0583293 55.1,15.550001 55.1,15.35 C55.1,15.0499985 55.0166675,14.8083343 54.85,14.625 C54.6833325,14.4416657 54.4583347,14.3000005 54.175,14.2 C53.8916652,14.0999995 53.583335,14.0333335 53.25,14 C52.916665,13.9666665 52.6000015,13.9333335 52.3,13.9 L52.3,13.35 L60,13.35 L60,13.9 Z M84.35,23.75 C84.35,25.616676 84.0250033,27.349992 83.375,28.95 C82.7249967,30.550008 81.800006,31.9249943 80.6,33.075 C79.399994,34.2250058 77.933342,35.1249968 76.2,35.775 C74.466658,36.4250033 72.5166775,36.75 70.35,36.75 C69.749997,36.75 69.1583363,36.7333335 68.575,36.7 C67.9916638,36.6666665 67.3833365,36.583334 66.75,36.45 C66.75,36.916669 66.7583332,37.5999955 66.775,38.5 C66.7916667,39.4000045 66.8083333,40.349995 66.825,41.35 C66.8416668,42.350005 66.85,43.3333285 66.85,44.3 L66.85,46.65 C66.916667,46.9500015 67.0999985,47.1749993 67.4,47.325 C67.7000015,47.4750008 68.0583313,47.5916663 68.475,47.675 C68.8916688,47.7583338 69.3249977,47.8166665 69.775,47.85 C70.2250022,47.8833335 70.616665,47.9166665 70.95,47.95 L70.95,48.5 L58.65,48.5 L58.65,47.95 C58.983335,47.9166665 59.383331,47.8583338 59.85,47.775 C60.316669,47.6916663 60.7583312,47.583334 61.175,47.45 C61.5916688,47.316666 61.9416653,47.150001 62.225,46.95 C62.5083348,46.749999 62.65,46.516668 62.65,46.25 L62.65,18.55 C62.65,18.283332 62.6250002,18.083334 62.575,17.95 C62.5249998,17.816666 62.3833345,17.6666675 62.15,17.5 C61.8499985,17.3333325 61.36667,17.0916682 60.7,16.775 C60.03333,16.4583317 59.500002,16.2166675 59.1,16.05 L59.1,15.75 L66.45,12.85 L66.75,12.85 L66.75,18.45 L66.8,18.55 C67.266669,17.9166635 67.7833305,17.26667 68.35,16.6 C68.9166695,15.93333 69.5499965,15.3250027 70.25,14.775 C70.9500035,14.2249973 71.7083293,13.7666685 72.525,13.4 C73.3416708,13.0333315 74.2333285,12.85 75.2,12.85 C76.7666745,12.85 78.1249942,13.1666635 79.275,13.8 C80.4250057,14.4333365 81.3749962,15.2666615 82.125,16.3 C82.8750038,17.3333385 83.4333315,18.4999935 83.8,19.8 C84.1666685,21.1000065 84.35,22.41666 84.35,23.75 Z M79.85,25.2 C79.85,23.933327 79.7000015,22.7500055 79.4,21.65 C79.0999985,20.5499945 78.6416698,19.5916708 78.025,18.775 C77.4083303,17.9583293 76.6250048,17.3083357 75.675,16.825 C74.7249953,16.3416643 73.616673,16.1 72.35,16.1 C71.483329,16.1 70.7083367,16.2583318 70.025,16.575 C69.3416633,16.8916682 68.7583358,17.2583312 68.275,17.675 C67.7916643,18.0916688 67.4250013,18.5166645 67.175,18.95 C66.9249987,19.3833355 66.8,19.699999 66.8,19.9 C66.8,20.56667 66.7916667,21.2749962 66.775,22.025 C66.7583332,22.7750037 66.75,23.4333305 66.75,24 L66.75,27.2 C66.75,27.9666705 66.7666665,28.7333295 66.8,29.5 C66.866667,30.2000035 66.9833325,30.9249963 67.15,31.675 C67.3166675,32.4250037 67.599998,33.1083302 68,33.725 C68.400002,34.3416698 68.9499965,34.8416648 69.65,35.225 C70.3500035,35.6083352 71.2499945,35.8 72.35,35.8 C73.3166715,35.8 74.2499955,35.533336 75.15,35 C76.0500045,34.466664 76.8499965,33.733338 77.55,32.8 C78.2500035,31.866662 78.8083313,30.7500065 79.225,29.45 C79.6416688,28.1499935 79.85,26.733341 79.85,25.2 Z M109.95,24.75 C109.95,26.4500085 109.633337,28.0583257 109,29.575 C108.366663,31.0916742 107.516672,32.416661 106.45,33.55 C105.383328,34.683339 104.141674,35.5666635 102.725,36.2 C101.308326,36.8333365 99.8166745,37.15 98.25,37.15 C96.9499935,37.15 95.600007,36.916669 94.2,36.45 C92.799993,35.983331 91.5083393,35.2416718 90.325,34.225 C89.1416608,33.2083283 88.1750037,31.9083413 87.425,30.325 C86.6749963,28.7416587 86.3,26.883344 86.3,24.75 C86.3,23.216659 86.5916637,21.7333405 87.175,20.3 C87.7583362,18.8666595 88.5749947,17.6000055 89.625,16.5 C90.6750053,15.3999945 91.9416593,14.51667 93.425,13.85 C94.9083407,13.18333 96.549991,12.85 98.35,12.85 C99.68334,12.85 101.033327,13.0999975 102.4,13.6 C103.766674,14.1000025 105.008328,14.8416617 106.125,15.825 C107.241672,16.8083383 108.15833,18.0416593 108.875,19.525 C109.59167,21.0083408 109.95,22.74999 109.95,24.75 Z M105.3,24.7 C105.3,23.566661 105.175001,22.3500065 104.925,21.05 C104.674999,19.7499935 104.26667,18.5500055 103.7,17.45 C103.133331,16.3499945 102.383338,15.4416703 101.45,14.725 C100.516662,14.0083298 99.3666735,13.65 98,13.65 C96.8999945,13.65 95.916671,13.98333 95.05,14.65 C94.183329,15.31667 93.4416698,16.1916613 92.825,17.275 C92.2083303,18.3583388 91.7416682,19.5749933 91.425,20.925 C91.1083318,22.2750067 90.95,23.649993 90.95,25.05 C90.95,26.583341 91.083332,28.0333265 91.35,29.4 C91.616668,30.7666735 92.049997,31.9749947 92.65,33.025 C93.250003,34.0750053 94.016662,34.9083302 94.95,35.525 C95.883338,36.1416698 96.9999935,36.45 98.3,36.45 C99.6000065,36.45 100.691662,36.0583373 101.575,35.275 C102.458338,34.4916628 103.174997,33.5083393 103.725,32.325 C104.275003,31.1416608 104.674999,29.8666735 104.925,28.5 C105.175001,27.1333265 105.3,25.8666725 105.3,24.7 Z M137.65,15.6 C137.65,16.1000025 137.475002,16.5416647 137.125,16.925 C136.774998,17.3083353 136.350003,17.5 135.85,17.5 C135.649999,17.5 135.350002,17.4166675 134.95,17.25 C134.549998,17.0833325 134.108336,16.8833345 133.625,16.65 C133.141664,16.4166655 132.650003,16.1583347 132.15,15.875 C131.649998,15.5916653 131.200002,15.3333345 130.8,15.1 L130.6,15.3 C131.100003,16.0666705 131.524998,16.78333 131.875,17.45 C132.225002,18.11667 132.4,18.983328 132.4,20.05 C132.4,22.6833465 131.483342,24.6583268 129.65,25.975 C127.816658,27.2916733 125.283349,27.95 122.05,27.95 C121.583331,27.95 121.108336,27.916667 120.625,27.85 C120.141664,27.783333 119.56667,27.75 118.9,27.75 C117.833328,27.816667 116.983336,28.0666645 116.35,28.5 C115.716663,28.9333355 115.4,29.48333 115.4,30.15 C115.4,30.683336 115.566665,31.1249982 115.9,31.475 C116.233335,31.8250017 116.649998,32.099999 117.15,32.3 C117.650003,32.500001 118.199997,32.633333 118.8,32.7 C119.400003,32.766667 119.98333,32.8 120.55,32.8 L128.55,32.8 C129.716672,32.8 130.766662,32.9833315 131.7,33.35 C132.633338,33.7166685 133.43333,34.2166635 134.1,34.85 C134.76667,35.4833365 135.274998,36.2083293 135.625,37.025 C135.975002,37.8416708 136.15,38.749995 136.15,39.75 C136.15,41.0500065 135.825003,42.2916608 135.175,43.475 C134.524997,44.6583393 133.616673,45.6999955 132.45,46.6 C131.283328,47.5000045 129.908341,48.2083307 128.325,48.725 C126.741659,49.2416692 125.00001,49.5 123.1,49.5 C119.466649,49.5 116.641677,48.9583388 114.625,47.875 C112.608323,46.7916613 111.6,45.3000095 111.6,43.4 C111.6,42.6999965 111.791665,42.0666695 112.175,41.5 C112.558335,40.9333305 113.041664,40.3916692 113.625,39.875 C114.208336,39.3583308 114.85833,38.8750022 115.575,38.425 C116.29167,37.9749978 116.999996,37.5333355 117.7,37.1 L117.7,37 C115.999991,36.799999 114.691671,36.3166705 113.775,35.55 C112.858329,34.7833295 112.4,33.766673 112.4,32.5 C112.4,31.8666635 112.549999,31.2666695 112.85,30.7 C113.150002,30.1333305 113.566664,29.616669 114.1,29.15 C114.633336,28.683331 115.25833,28.2916683 115.975,27.975 C116.69167,27.6583318 117.466662,27.4500005 118.3,27.35 L118.3,27.2 C116.833326,26.6333305 115.691671,25.8000055 114.875,24.7 C114.058329,23.5999945 113.65,22.2000085 113.65,20.5 C113.65,19.433328 113.891664,18.433338 114.375,17.5 C114.858336,16.566662 115.533329,15.7583368 116.4,15.075 C117.266671,14.3916632 118.291661,13.850002 119.475,13.45 C120.658339,13.049998 121.949993,12.85 123.35,12.85 C124.616673,12.85 125.741662,12.9666655 126.725,13.2 C127.708338,13.4333345 128.733328,13.8333305 129.8,14.4 C130.200002,14.533334 130.541665,14.6166665 130.825,14.65 C131.108335,14.6833335 131.449998,14.7 131.85,14.7 C132.250002,14.7 132.608332,14.6416672 132.925,14.525 C133.241668,14.4083327 133.533332,14.2750008 133.8,14.125 C134.066668,13.9749992 134.349999,13.8416673 134.65,13.725 C134.950001,13.6083328 135.299998,13.55 135.7,13.55 C136.26667,13.55 136.733332,13.749998 137.1,14.15 C137.466668,14.550002 137.65,15.0333305 137.65,15.6 Z M128.4,20.05 C128.4,19.183329 128.283335,18.3666705 128.05,17.6 C127.816666,16.8333295 127.475002,16.1583363 127.025,15.575 C126.574998,14.9916638 126.008337,14.5250018 125.325,14.175 C124.641663,13.8249983 123.850005,13.65 122.95,13.65 C122.116662,13.65 121.36667,13.8416647 120.7,14.225 C120.03333,14.6083352 119.475002,15.1249968 119.025,15.775 C118.574998,16.4250033 118.233334,17.1666625 118,18 C117.766666,18.8333375 117.65,19.683329 117.65,20.55 C117.65,22.55001 118.158328,24.1583272 119.175,25.375 C120.191672,26.5916728 121.433326,27.2 122.9,27.2 C123.800005,27.2 124.591663,27.000002 125.275,26.6 C125.958337,26.199998 126.533331,25.66667 127,25 C127.466669,24.33333 127.816666,23.5750043 128.05,22.725 C128.283335,21.8749958 128.4,20.983338 128.4,20.05 Z M132.8,41.8 C132.8,40.8333285 132.600002,40.0000035 132.2,39.3 C131.799998,38.5999965 131.316669,38.116668 130.75,37.85 C130.016663,37.4833315 129.100005,37.2250007 128,37.075 C126.899995,36.9249993 125.383343,36.85 123.45,36.85 C122.749996,36.85 122.033337,36.883333 121.3,36.95 C120.566663,37.016667 119.966669,37.083333 119.5,37.15 C117.933326,37.550002 116.850003,38.183329 116.25,39.05 C115.649997,39.916671 115.35,40.8666615 115.35,41.9 C115.35,42.966672 115.641664,43.899996 116.225,44.7 C116.808336,45.500004 117.533329,46.1749973 118.4,46.725 C119.266671,47.2750027 120.191662,47.683332 121.175,47.95 C122.158338,48.216668 123.066663,48.35 123.9,48.35 C124.900005,48.35 125.75833,48.3000005 126.475,48.2 C127.19167,48.0999995 127.83333,47.950001 128.4,47.75 C129.566672,47.283331 130.591662,46.5333385 131.475,45.5 C132.358338,44.4666615 132.8,43.2333405 132.8,41.8 Z M155.5,15.5 C155.5,16.233337 155.283336,16.8416643 154.85,17.325 C154.416665,17.8083357 153.91667,18.05 153.35,18.05 C152.816664,18.05 152.391668,17.9583343 152.075,17.775 C151.758332,17.5916657 151.483334,17.3833345 151.25,17.15 C151.016666,16.9166655 150.766668,16.7083343 150.5,16.525 C150.233332,16.3416657 149.866669,16.25 149.4,16.25 C148.999998,16.25 148.608335,16.3916652 148.225,16.675 C147.841665,16.9583347 147.483335,17.3166645 147.15,17.75 C146.816665,18.1833355 146.516668,18.6749973 146.25,19.225 C145.983332,19.7750027 145.750001,20.2999975 145.55,20.8 L145.55,35.2 C145.650001,35.5000015 145.866665,35.7333325 146.2,35.9 C146.533335,36.0666675 146.908331,36.183333 147.325,36.25 C147.741669,36.316667 148.174998,36.3583332 148.625,36.375 C149.075002,36.3916668 149.466665,36.433333 149.8,36.5 L149.8,37 L138.6,37 L138.6,36.5 C139.366671,36.433333 140.024997,36.2833345 140.575,36.05 C141.125003,35.8166655 141.4,35.433336 141.4,34.9 L141.4,18 C141.4,17.733332 141.375,17.533334 141.325,17.4 C141.275,17.266666 141.133335,17.1166675 140.9,16.95 C140.599999,16.7833325 140.250002,16.5750013 139.85,16.325 C139.449998,16.0749987 139.050002,15.8666675 138.65,15.7 L138.65,15.4 L145.2,12.85 L145.5,12.85 L145.4,19.8 L145.5,19.8 C145.666668,19.399998 145.933332,18.8166705 146.3,18.05 C146.666669,17.2833295 147.133331,16.5083373 147.7,15.725 C148.26667,14.9416627 148.949996,14.2666695 149.75,13.7 C150.550004,13.1333305 151.466661,12.85 152.5,12.85 C153.333337,12.85 154.041664,13.0999975 154.625,13.6 C155.208336,14.1000025 155.5,14.7333295 155.5,15.5 Z M178.25,32.1 C178.216666,32.7333365 178.066668,33.349997 177.8,33.95 C177.533332,34.550003 177.183335,35.0916643 176.75,35.575 C176.316665,36.0583357 175.808336,36.4249987 175.225,36.675 C174.641664,36.9250013 174.000004,37.05 173.3,37.05 C172.166661,37.05 171.158338,36.71667 170.275,36.05 C169.391662,35.38333 168.95,34.216675 168.95,32.55 L168.85,32.5 C168.583332,32.9333355 168.225002,33.416664 167.775,33.95 C167.324998,34.483336 166.79167,34.983331 166.175,35.45 C165.55833,35.916669 164.875004,36.2916653 164.125,36.575 C163.374996,36.8583348 162.550005,37 161.65,37 C161.116664,37 160.575003,36.9250007 160.025,36.775 C159.474997,36.6249992 158.975002,36.3583352 158.525,35.975 C158.074998,35.5916648 157.708335,35.100003 157.425,34.5 C157.141665,33.899997 157,33.166671 157,32.3 C157,31.366662 157.374996,30.466671 158.125,29.6 C158.875004,28.733329 159.799995,27.9500035 160.9,27.25 C162.000006,26.5499965 162.974996,25.9500025 163.825,25.45 C164.675004,24.9499975 165.416664,24.5250018 166.05,24.175 C166.683336,23.8249983 167.241664,23.5250013 167.725,23.275 C168.208336,23.0249988 168.616665,22.800001 168.95,22.6 L168.95,17.45 C168.95,17.383333 168.891667,17.2250012 168.775,16.975 C168.658333,16.7249987 168.458335,16.466668 168.175,16.2 C167.891665,15.933332 167.500002,15.6916677 167,15.475 C166.499998,15.2583322 165.850004,15.15 165.05,15.15 C164.516664,15.15 163.991669,15.2416658 163.475,15.425 C162.958331,15.6083342 162.500002,15.8416653 162.1,16.125 C161.699998,16.4083347 161.383335,16.6916653 161.15,16.975 C160.916666,17.2583348 160.8,17.499999 160.8,17.7 L160.8,19.95 C160.8,20.416669 160.558336,20.8333315 160.075,21.2 C159.591664,21.5666685 159.066669,21.75 158.5,21.75 C157.966664,21.75 157.508335,21.5583353 157.125,21.175 C156.741665,20.7916647 156.55,20.3500025 156.55,19.85 C156.55,19.449998 156.649999,19.083335 156.85,18.75 C157.050001,18.416665 157.299999,18.116668 157.6,17.85 C157.900002,17.583332 158.224998,17.350001 158.575,17.15 C158.925002,16.949999 159.233332,16.7666675 159.5,16.6 C160.366671,16.0999975 161.249996,15.616669 162.15,15.15 C163.050005,14.683331 163.908329,14.283335 164.725,13.95 C165.541671,13.616665 166.291663,13.350001 166.975,13.15 C167.658337,12.949999 168.216664,12.85 168.65,12.85 C169.516671,12.85 170.333329,13.0749977 171.1,13.525 C171.866671,13.9750022 172.416665,14.53333 172.75,15.2 C172.883334,15.4333345 172.966666,15.8416637 173,16.425 C173.033334,17.0083362 173.05,17.5833305 173.05,18.15 C173.05,19.350006 173.041667,20.4333285 173.025,21.4 C173.008333,22.3666715 173,23.2999955 173,24.2 C173,25.1000045 172.991667,26.0249952 172.975,26.975 C172.958333,27.9250047 172.95,28.966661 172.95,30.1 C172.95,31.6000075 173.208331,32.5916643 173.725,33.075 C174.241669,33.5583357 174.83333,33.8 175.5,33.8 C176.266671,33.8 176.833331,33.6416682 177.2,33.325 C177.566668,33.0083318 177.816666,32.6000025 177.95,32.1 L178.25,32.1 Z M168.95,31.1 L168.95,23.4 C168.349997,23.8333355 167.600005,24.2916642 166.7,24.775 C165.799996,25.2583358 164.925004,25.7833305 164.075,26.35 C163.224996,26.9166695 162.49167,27.5416633 161.875,28.225 C161.25833,28.9083367 160.95,29.683329 160.95,30.55 C160.95,31.416671 161.249997,32.1999965 161.85,32.9 C162.450003,33.6000035 163.233328,33.95 164.2,33.95 C165.066671,33.95 165.83333,33.850001 166.5,33.65 C167.16667,33.449999 167.78333,33.0666695 168.35,32.5 C168.750002,32.1333315 168.95,31.6666695 168.95,31.1 Z M203.1,23.75 C203.1,25.616676 202.775003,27.349992 202.125,28.95 C201.474997,30.550008 200.550006,31.9249943 199.35,33.075 C198.149994,34.2250058 196.683342,35.1249968 194.95,35.775 C193.216658,36.4250033 191.266678,36.75 189.1,36.75 C188.499997,36.75 187.908336,36.7333335 187.325,36.7 C186.741664,36.6666665 186.133337,36.583334 185.5,36.45 C185.5,36.916669 185.508333,37.5999955 185.525,38.5 C185.541667,39.4000045 185.558333,40.349995 185.575,41.35 C185.591667,42.350005 185.6,43.3333285 185.6,44.3 L185.6,46.65 C185.666667,46.9500015 185.849999,47.1749993 186.15,47.325 C186.450002,47.4750008 186.808331,47.5916663 187.225,47.675 C187.641669,47.7583338 188.074998,47.8166665 188.525,47.85 C188.975002,47.8833335 189.366665,47.9166665 189.7,47.95 L189.7,48.5 L177.4,48.5 L177.4,47.95 C177.733335,47.9166665 178.133331,47.8583338 178.6,47.775 C179.066669,47.6916663 179.508331,47.583334 179.925,47.45 C180.341669,47.316666 180.691665,47.150001 180.975,46.95 C181.258335,46.749999 181.4,46.516668 181.4,46.25 L181.4,18.55 C181.4,18.283332 181.375,18.083334 181.325,17.95 C181.275,17.816666 181.133335,17.6666675 180.9,17.5 C180.599998,17.3333325 180.11667,17.0916682 179.45,16.775 C178.78333,16.4583317 178.250002,16.2166675 177.85,16.05 L177.85,15.75 L185.2,12.85 L185.5,12.85 L185.5,18.45 L185.55,18.55 C186.016669,17.9166635 186.533331,17.26667 187.1,16.6 C187.66667,15.93333 188.299997,15.3250027 189,14.775 C189.700004,14.2249973 190.458329,13.7666685 191.275,13.4 C192.091671,13.0333315 192.983328,12.85 193.95,12.85 C195.516675,12.85 196.874994,13.1666635 198.025,13.8 C199.175006,14.4333365 200.124996,15.2666615 200.875,16.3 C201.625004,17.3333385 202.183332,18.4999935 202.55,19.8 C202.916669,21.1000065 203.1,22.41666 203.1,23.75 Z M198.6,25.2 C198.6,23.933327 198.450002,22.7500055 198.15,21.65 C197.849999,20.5499945 197.39167,19.5916708 196.775,18.775 C196.15833,17.9583293 195.375005,17.3083357 194.425,16.825 C193.474995,16.3416643 192.366673,16.1 191.1,16.1 C190.233329,16.1 189.458337,16.2583318 188.775,16.575 C188.091663,16.8916682 187.508336,17.2583312 187.025,17.675 C186.541664,18.0916688 186.175001,18.5166645 185.925,18.95 C185.674999,19.3833355 185.55,19.699999 185.55,19.9 C185.55,20.56667 185.541667,21.2749962 185.525,22.025 C185.508333,22.7750037 185.5,23.4333305 185.5,24 L185.5,27.2 C185.5,27.9666705 185.516666,28.7333295 185.55,29.5 C185.616667,30.2000035 185.733332,30.9249963 185.9,31.675 C186.066668,32.4250037 186.349998,33.1083302 186.75,33.725 C187.150002,34.3416698 187.699997,34.8416648 188.4,35.225 C189.100003,35.6083352 189.999994,35.8 191.1,35.8 C192.066672,35.8 192.999996,35.533336 193.9,35 C194.800005,34.466664 195.599997,33.733338 196.3,32.8 C197.000004,31.866662 197.558331,30.7500065 197.975,29.45 C198.391669,28.1499935 198.6,26.733341 198.6,25.2 Z M229.8,37 L219.5,37 L219.5,36.45 C220.400005,36.383333 221.149997,36.2750008 221.75,36.125 C222.350003,35.9749992 222.65,35.633336 222.65,35.1 L222.65,22.6 C222.65,21.6333285 222.583334,20.7333375 222.45,19.9 C222.316666,19.0666625 222.075002,18.350003 221.725,17.75 C221.374998,17.149997 220.900003,16.683335 220.3,16.35 C219.699997,16.016665 218.933338,15.85 218,15.85 C216.799994,15.85 215.783338,16.0666645 214.95,16.5 C214.116663,16.9333355 213.450002,17.516663 212.95,18.25 C212.883333,18.3500005 212.791667,18.5583317 212.675,18.875 C212.558333,19.1916683 212.5,19.483332 212.5,19.75 L212.5,35.1 C212.5,35.4000015 212.583333,35.6333325 212.75,35.8 C212.916668,35.9666675 213.133332,36.0916663 213.4,36.175 C213.666668,36.2583338 213.966665,36.3166665 214.3,36.35 C214.633335,36.3833335 214.966665,36.433333 215.3,36.5 L215.3,37 L205.35,37 L205.35,36.5 C206.116671,36.433333 206.80833,36.3083343 207.425,36.125 C208.04167,35.9416657 208.35,35.5333365 208.35,34.9 L208.35,6.5 C208.35,6.233332 208.325,6.033334 208.275,5.9 C208.225,5.766666 208.083335,5.6166675 207.85,5.45 C207.583332,5.2166655 207.225002,4.99166775 206.775,4.775 C206.324998,4.55833225 205.883336,4.316668 205.45,4.05 L205.45,3.75 L212.15,0.7 L212.55,0.7 L212.4,18.05 L212.5,18.1 C212.733335,17.633331 213.091664,17.100003 213.575,16.5 C214.058336,15.899997 214.666663,15.333336 215.4,14.8 C216.133337,14.266664 216.974995,13.8083353 217.925,13.425 C218.875005,13.0416647 219.916661,12.85 221.05,12.85 C222.150006,12.85 223.074996,13.0416647 223.825,13.425 C224.575004,13.8083353 225.174998,14.3416633 225.625,15.025 C226.075002,15.7083367 226.391666,16.516662 226.575,17.45 C226.758334,18.383338 226.85,19.3999945 226.85,20.5 L226.85,35.25 C226.85,35.4833345 226.949999,35.6833325 227.15,35.85 C227.350001,36.0166675 227.599999,36.1416662 227.9,36.225 C228.200002,36.3083337 228.516665,36.3749998 228.85,36.425 C229.183335,36.4750002 229.499998,36.5166665 229.8,36.55 L229.8,37 Z M239.15,4.95 C239.15,5.7166705 238.891669,6.35833075 238.375,6.875 C237.858331,7.39166925 237.21667,7.65 236.45,7.65 C235.716663,7.65 235.083336,7.383336 234.55,6.85 C234.016664,6.316664 233.75,5.683337 233.75,4.95 C233.75,4.1833295 234.008331,3.5500025 234.525,3.05 C235.041669,2.5499975 235.68333,2.3 236.45,2.3 C237.21667,2.3 237.858331,2.5499975 238.375,3.05 C238.891669,3.5500025 239.15,4.1833295 239.15,4.95 Z M241.95,37 L231.2,37 L231.2,36.5 C231.600002,36.4666665 231.999998,36.4250003 232.4,36.375 C232.800002,36.3249997 233.158332,36.2416672 233.475,36.125 C233.791668,36.0083328 234.058332,35.850001 234.275,35.65 C234.491668,35.449999 234.6,35.2000015 234.6,34.9 L234.6,17.75 C234.6,17.483332 234.575,17.250001 234.525,17.05 C234.475,16.849999 234.333335,16.6666675 234.1,16.5 C233.799999,16.299999 233.441669,16.100001 233.025,15.9 C232.608331,15.699999 232.166669,15.5166675 231.7,15.35 L231.7,15.05 L238.45,12.85 L238.75,12.85 L238.75,35.2 C238.816667,35.533335 238.958332,35.7749993 239.175,35.925 C239.391668,36.0750007 239.649999,36.183333 239.95,36.25 C240.250002,36.316667 240.574998,36.3583332 240.925,36.375 C241.275002,36.3916668 241.616665,36.433333 241.95,36.5 L241.95,37 Z M265.05,29.85 C264.749998,30.850005 264.300003,31.7916622 263.7,32.675 C263.099997,33.5583377 262.366671,34.3416633 261.5,35.025 C260.633329,35.7083367 259.658339,36.2333315 258.575,36.6 C257.491661,36.9666685 256.316673,37.15 255.05,37.15 C253.449992,37.15 251.966674,36.8416697 250.6,36.225 C249.233327,35.6083302 248.066672,34.7416722 247.1,33.625 C246.133329,32.5083278 245.375003,31.2000075 244.825,29.7 C244.274997,28.1999925 244,26.6000085 244,24.9 C244,23.299992 244.283331,21.7750073 244.85,20.325 C245.41667,18.8749928 246.199995,17.6000055 247.2,16.5 C248.200005,15.3999945 249.39166,14.51667 250.775,13.85 C252.15834,13.18333 253.666659,12.85 255.3,12.85 C256.400006,12.85 257.483328,12.983332 258.55,13.25 C259.616672,13.516668 260.566663,13.8999975 261.4,14.4 C262.233338,14.9000025 262.908331,15.516663 263.425,16.25 C263.941669,16.983337 264.2,17.8333285 264.2,18.8 C264.2,19.5000035 263.941669,20.1083308 263.425,20.625 C262.908331,21.1416692 262.300004,21.4 261.6,21.4 C261.033331,21.4 260.525002,21.233335 260.075,20.9 C259.624998,20.566665 259.333334,20.1500025 259.2,19.65 C259.366667,19.183331 259.45,18.61667 259.45,17.95 C259.45,16.7166605 259.125003,15.6916707 258.475,14.875 C257.824997,14.0583293 256.800007,13.65 255.4,13.65 C254.366661,13.65 253.416671,13.916664 252.55,14.45 C251.683329,14.983336 250.933337,15.6999955 250.3,16.6 C249.666663,17.5000045 249.166669,18.549994 248.8,19.75 C248.433332,20.950006 248.25,22.2333265 248.25,23.6 C248.25,25.1000075 248.449998,26.4749937 248.85,27.725 C249.250002,28.9750062 249.816663,30.0416622 250.55,30.925 C251.283337,31.8083377 252.174995,32.4916642 253.225,32.975 C254.275005,33.4583358 255.449994,33.7 256.75,33.7 C258.816677,33.7 260.449994,33.3583368 261.65,32.675 C262.850006,31.9916632 263.849996,30.98334 264.65,29.65 L265.05,29.85 Z M37.35,72.55 L36.75,72.6 C36.3166645,70.999992 35.666671,69.500007 34.8,68.1 C33.933329,66.699993 32.9083393,65.4833385 31.725,64.45 C30.5416608,63.4166615 29.2083408,62.600003 27.725,62 C26.2416592,61.399997 24.666675,61.1 23,61.1 C20.6999885,61.1 18.650009,61.6166615 16.85,62.65 C15.049991,63.6833385 13.5416727,65.0499915 12.325,66.75 C11.1083273,68.4500085 10.1750033,70.3749892 9.525,72.525 C8.87499675,74.6750107 8.55,76.883322 8.55,79.15 C8.55,81.550012 8.89166325,83.7999895 9.575,85.9 C10.2583368,88.0000105 11.233327,89.8249923 12.5,91.375 C13.766673,92.9250077 15.299991,94.1499955 17.1,95.05 C18.900009,95.9500045 20.899989,96.4 23.1,96.4 C24.833342,96.4 26.4583257,96.0833365 27.975,95.45 C29.4916742,94.8166635 30.8416607,93.9833385 32.025,92.95 C33.2083392,91.9166615 34.2083293,90.7250068 35.025,89.375 C35.8416708,88.0249932 36.3999985,86.6333405 36.7,85.2 L37.3,85.2 L37.15,96.2 L36.55,96.2 C36.149998,95.6333305 35.7333355,95.116669 35.3,94.65 C34.8666645,94.183331 34.5666675,93.95 34.4,93.95 C34.333333,93.95 34.033336,94.1249982 33.5,94.475 C32.966664,94.8250017 32.200005,95.2083313 31.2,95.625 C30.199995,96.0416687 28.9833405,96.4083318 27.55,96.725 C26.1166595,97.0416683 24.466676,97.2 22.6,97.2 C19.4999845,97.2 16.7000125,96.7583378 14.2,95.875 C11.6999875,94.9916622 9.57500875,93.7416748 7.825,92.125 C6.07499125,90.5083252 4.733338,88.5750112 3.8,86.325 C2.866662,84.0749887 2.4,81.6000135 2.4,78.9 C2.4,78.299997 2.44166625,77.6166705 2.525,76.85 C2.60833375,76.0833295 2.75833225,75.266671 2.975,74.4 C3.19166775,73.533329 3.49166475,72.6250048 3.875,71.675 C4.25833525,70.7249953 4.749997,69.7666715 5.35,68.8 C6.0500035,67.666661 6.9166615,66.5833385 7.95,65.55 C8.9833385,64.5166615 10.199993,63.6083372 11.6,62.825 C13.000007,62.0416628 14.5833245,61.416669 16.35,60.95 C18.1166755,60.483331 20.099989,60.25 22.3,60.25 C24.30001,60.25 26.0499925,60.4333315 27.55,60.8 C29.0500075,61.1666685 30.299995,61.5666645 31.3,62 C32.300005,62.4333355 33.066664,62.8333315 33.6,63.2 C34.133336,63.5666685 34.433333,63.75 34.5,63.75 C34.566667,63.75 34.6916657,63.6750007 34.875,63.525 C35.0583343,63.3749992 35.2583322,63.1916677 35.475,62.975 C35.6916677,62.7583322 35.9166655,62.5083348 36.15,62.225 C36.3833345,61.9416653 36.599999,61.6500015 36.8,61.35 L37.35,61.35 L37.35,72.55 Z M63.05,92.1 C63.0166665,92.7333365 62.866668,93.349997 62.6,93.95 C62.333332,94.550003 61.9833355,95.0916643 61.55,95.575 C61.1166645,96.0583357 60.6083362,96.4249987 60.025,96.675 C59.4416637,96.9250013 58.8000035,97.05 58.1,97.05 C56.966661,97.05 55.9583378,96.71667 55.075,96.05 C54.1916623,95.38333 53.75,94.216675 53.75,92.55 L53.65,92.5 C53.383332,92.9333355 53.0250022,93.416664 52.575,93.95 C52.1249978,94.483336 51.5916698,94.983331 50.975,95.45 C50.3583302,95.916669 49.6750037,96.2916653 48.925,96.575 C48.1749963,96.8583348 47.3500045,97 46.45,97 C45.916664,97 45.3750028,96.9250007 44.825,96.775 C44.2749972,96.6249992 43.7750023,96.3583352 43.325,95.975 C42.8749978,95.5916648 42.5083348,95.100003 42.225,94.5 C41.9416653,93.899997 41.8,93.166671 41.8,92.3 C41.8,91.366662 42.1749963,90.466671 42.925,89.6 C43.6750037,88.733329 44.5999945,87.9500035 45.7,87.25 C46.8000055,86.5499965 47.7749958,85.9500025 48.625,85.45 C49.4750042,84.9499975 50.2166635,84.5250018 50.85,84.175 C51.4833365,83.8249983 52.0416642,83.5250013 52.525,83.275 C53.0083358,83.0249988 53.416665,82.800001 53.75,82.6 L53.75,77.45 C53.75,77.383333 53.6916673,77.2250012 53.575,76.975 C53.4583327,76.7249987 53.2583348,76.466668 52.975,76.2 C52.6916653,75.933332 52.3000025,75.6916677 51.8,75.475 C51.2999975,75.2583322 50.650004,75.15 49.85,75.15 C49.316664,75.15 48.7916693,75.2416658 48.275,75.425 C47.7583308,75.6083342 47.300002,75.8416653 46.9,76.125 C46.499998,76.4083347 46.1833345,76.6916653 45.95,76.975 C45.7166655,77.2583348 45.6,77.499999 45.6,77.7 L45.6,79.95 C45.6,80.416669 45.3583358,80.8333315 44.875,81.2 C44.3916642,81.5666685 43.8666695,81.75 43.3,81.75 C42.766664,81.75 42.3083353,81.5583353 41.925,81.175 C41.5416647,80.7916647 41.35,80.3500025 41.35,79.85 C41.35,79.449998 41.449999,79.083335 41.65,78.75 C41.850001,78.416665 42.0999985,78.116668 42.4,77.85 C42.7000015,77.583332 43.0249982,77.350001 43.375,77.15 C43.7250018,76.949999 44.033332,76.7666675 44.3,76.6 C45.166671,76.0999975 46.0499955,75.616669 46.95,75.15 C47.8500045,74.683331 48.7083293,74.283335 49.525,73.95 C50.3416708,73.616665 51.0916633,73.350001 51.775,73.15 C52.4583367,72.949999 53.0166645,72.85 53.45,72.85 C54.316671,72.85 55.1333295,73.0749977 55.9,73.525 C56.6666705,73.9750022 57.216665,74.53333 57.55,75.2 C57.683334,75.4333345 57.7666665,75.8416637 57.8,76.425 C57.8333335,77.0083362 57.85,77.5833305 57.85,78.15 C57.85,79.350006 57.8416668,80.4333285 57.825,81.4 C57.8083333,82.3666715 57.8,83.2999955 57.8,84.2 C57.8,85.1000045 57.7916667,86.0249952 57.775,86.975 C57.7583332,87.9250047 57.75,88.966661 57.75,90.1 C57.75,91.6000075 58.0083308,92.5916643 58.525,93.075 C59.0416693,93.5583357 59.63333,93.8 60.3,93.8 C61.0666705,93.8 61.6333315,93.6416683 62,93.325 C62.3666685,93.0083318 62.616666,92.6000025 62.75,92.1 L63.05,92.1 Z M53.75,91.1 L53.75,83.4 C53.149997,83.8333355 52.4000045,84.2916642 51.5,84.775 C50.5999955,85.2583358 49.7250042,85.7833305 48.875,86.35 C48.0249958,86.9166695 47.2916697,87.5416633 46.675,88.225 C46.0583303,88.9083367 45.75,89.683329 45.75,90.55 C45.75,91.416671 46.049997,92.1999965 46.65,92.9 C47.250003,93.6000035 48.0333285,93.95 49,93.95 C49.866671,93.95 50.63333,93.850001 51.3,93.65 C51.96667,93.449999 52.5833305,93.0666695 53.15,92.5 C53.550002,92.1333315 53.75,91.6666695 53.75,91.1 Z M74.2,97 L62.55,97 L62.55,96.45 C64.083341,96.3499995 65.0999975,96.1916677 65.6,95.975 C66.1000025,95.7583322 66.35,95.383336 66.35,94.85 L66.35,66.1 C66.35,65.833332 66.3250003,65.633334 66.275,65.5 C66.2249998,65.366666 66.0833345,65.2166675 65.85,65.05 C65.5499985,64.8833325 65.100003,64.6250018 64.5,64.275 C63.899997,63.9249983 63.400002,63.6666675 63,63.5 L63,63.2 L70.15,60.85 L70.5,60.85 L70.5,95.1 C70.5,95.433335 70.5749993,95.6833325 70.725,95.85 C70.8750008,96.0166675 71.0999985,96.133333 71.4,96.2 C71.7000015,96.266667 72.083331,96.3083333 72.55,96.325 C73.016669,96.3416668 73.5666635,96.383333 74.2,96.45 L74.2,97 Z M96.15,89.4 C96.016666,90.133337 95.716669,90.9583287 95.25,91.875 C94.783331,92.7916713 94.150004,93.6333295 93.35,94.4 C92.549996,95.1666705 91.5916722,95.7999975 90.475,96.3 C89.3583277,96.8000025 88.1166735,97.05 86.75,97.05 C85.0499915,97.05 83.500007,96.7333365 82.1,96.1 C80.699993,95.4666635 79.5083382,94.5750057 78.525,93.425 C77.5416618,92.2749942 76.783336,90.9250077 76.25,89.375 C75.716664,87.8249923 75.45,86.183342 75.45,84.45 C75.45,83.049993 75.6999975,81.6583403 76.2,80.275 C76.7000025,78.8916598 77.4083288,77.6500055 78.325,76.55 C79.2416712,75.4499945 80.3583268,74.5583367 81.675,73.875 C82.9916732,73.1916633 84.449992,72.85 86.05,72.85 C87.3500065,72.85 88.5749943,73.016665 89.725,73.35 C90.8750058,73.683335 91.8749958,74.1916633 92.725,74.875 C93.5750043,75.5583367 94.266664,76.4166615 94.8,77.45 C95.333336,78.4833385 95.6499995,79.699993 95.75,81.1 L79.7,81.1 C79.7,81.366668 79.6833335,81.6749983 79.65,82.025 C79.6166665,82.3750018 79.6,82.7333315 79.6,83.1 C79.6,84.500007 79.799998,85.8416603 80.2,87.125 C80.600002,88.4083397 81.1833295,89.5416618 81.95,90.525 C82.7166705,91.5083382 83.6833275,92.2833305 84.85,92.85 C86.0166725,93.4166695 87.366659,93.7 88.9,93.7 C90.566675,93.7 92.0249938,93.2750042 93.275,92.425 C94.5250063,91.5749957 95.349998,90.5333395 95.75,89.3 L96.15,89.4 Z M90.8,78.2 C90.8,76.9666605 90.3750042,75.9083377 89.525,75.025 C88.6749957,74.1416622 87.5333405,73.7 86.1,73.7 C85.166662,73.7 84.3250037,73.9749973 83.575,74.525 C82.8249963,75.0750027 82.1750027,75.716663 81.625,76.45 C81.0749973,77.183337 80.6500015,77.9249963 80.35,78.675 C80.0499985,79.4250037 79.866667,79.999998 79.8,80.4 L81.85,80.4 C82.450003,80.4 83.0416637,80.3916668 83.625,80.375 C84.2083363,80.3583332 84.8166635,80.3416668 85.45,80.325 C86.0833365,80.3083333 86.7833295,80.3 87.55,80.3 C88.0500025,80.3 88.5166645,80.2833335 88.95,80.25 C89.3833355,80.2166665 89.766665,80.133334 90.1,80 C90.3333345,79.733332 90.5083328,79.4833345 90.625,79.25 C90.7416672,79.0166655 90.8,78.666669 90.8,78.2 Z M121.85,97 L111.65,97 L111.65,96.45 C112.550005,96.383333 113.266664,96.2750008 113.8,96.125 C114.333336,95.9749992 114.6,95.633336 114.6,95.1 L114.6,82.5 C114.6,80.566657 114.233337,79.0083393 113.5,77.825 C112.766663,76.6416608 111.533342,76.05 109.8,76.05 C108.699995,76.05 107.783337,76.283331 107.05,76.75 C106.316663,77.216669 105.500005,77.8999955 104.6,78.8 L104.6,95.2 C104.666667,95.533335 104.783333,95.7749993 104.95,95.925 C105.116667,96.0750007 105.316665,96.183333 105.55,96.25 C105.783335,96.316667 106.049999,96.3583332 106.35,96.375 C106.650002,96.3916668 106.966665,96.433333 107.3,96.5 L107.3,97 L97.65,97 L97.65,96.5 C98.4166705,96.433333 99.0749973,96.2833345 99.625,96.05 C100.175003,95.8166655 100.45,95.433336 100.45,94.9 L100.45,77.7 C100.45,77.433332 100.425,77.233334 100.375,77.1 C100.325,76.966666 100.183335,76.8166675 99.95,76.65 C99.6499985,76.4833325 99.300002,76.2916677 98.9,76.075 C98.499998,75.8583322 98.100002,75.6666675 97.7,75.5 L97.7,75.2 L104.25,72.85 L104.55,72.85 L104.55,78.25 L104.65,78.3 C105.016669,77.7333305 105.474997,77.1250032 106.025,76.475 C106.575003,75.8249967 107.199996,75.233336 107.9,74.7 C108.600003,74.166664 109.366662,73.7250018 110.2,73.375 C111.033338,73.0249982 111.899996,72.85 112.8,72.85 C114.733343,72.85 116.216661,73.5666595 117.25,75 C118.283339,76.4333405 118.8,78.283322 118.8,80.55 L118.8,95.25 C118.8,95.4833345 118.908332,95.6833325 119.125,95.85 C119.341668,96.0166675 119.599998,96.1416662 119.9,96.225 C120.200001,96.3083337 120.524998,96.3749998 120.875,96.425 C121.225002,96.4750002 121.549999,96.5166665 121.85,96.55 L121.85,97 Z M148.95,95.05 L141.55,97.15 L141.25,97.15 L141.25,92.15 L141.2,92.15 C140.233328,93.816675 139.091673,95.049996 137.775,95.85 C136.458327,96.650004 134.816676,97.05 132.85,97.05 C131.61666,97.05 130.425006,96.8083357 129.275,96.325 C128.124994,95.8416643 127.100004,95.0916718 126.2,94.075 C125.299996,93.0583283 124.583336,91.8083407 124.05,90.325 C123.516664,88.8416593 123.25,87.133343 123.25,85.2 C123.25,83.466658 123.55833,81.8500075 124.175,80.35 C124.79167,78.8499925 125.658328,77.5416723 126.775,76.425 C127.891672,75.3083277 129.233325,74.4333365 130.8,73.8 C132.366675,73.1666635 134.09999,72.85 136,72.85 C137.000005,72.85 137.941662,72.9333325 138.825,73.1 C139.708338,73.2666675 140.516663,73.4666655 141.25,73.7 C141.216666,73.1999975 141.191667,72.516671 141.175,71.65 C141.158333,70.783329 141.15,69.9000045 141.15,69 L141.15,64.75 L137.05,63.2 L137.05,62.9 L145,60.7 L145.4,60.7 L145.4,93.15 C145.666668,93.3166675 146.166663,93.5499985 146.9,93.85 C147.633337,94.1500015 148.316664,94.433332 148.95,94.7 L148.95,95.05 Z M141.2,90.25 L141.2,78.35 C140.466663,76.9833265 139.533339,75.8833375 138.4,75.05 C137.266661,74.2166625 136.216671,73.8 135.25,73.8 C133.949994,73.8 132.841671,74.099997 131.925,74.7 C131.008329,75.300003 130.250003,76.099995 129.65,77.1 C129.049997,78.100005 128.608335,79.2499935 128.325,80.55 C128.041665,81.8500065 127.9,83.1833265 127.9,84.55 C127.9,85.9166735 128.066665,87.2416602 128.4,88.525 C128.733335,89.8083397 129.23333,90.9416617 129.9,91.925 C130.56667,92.9083383 131.391662,93.699997 132.375,94.3 C133.358338,94.900003 134.499994,95.2 135.8,95.2 C137.166674,95.2 138.341662,94.733338 139.325,93.8 C140.308338,92.866662 140.933332,91.6833405 141.2,90.25 Z M172.85,92.1 C172.816667,92.7333365 172.666668,93.349997 172.4,93.95 C172.133332,94.550003 171.783336,95.0916643 171.35,95.575 C170.916665,96.0583357 170.408336,96.4249987 169.825,96.675 C169.241664,96.9250013 168.600003,97.05 167.9,97.05 C166.766661,97.05 165.758338,96.71667 164.875,96.05 C163.991662,95.38333 163.55,94.216675 163.55,92.55 L163.45,92.5 C163.183332,92.9333355 162.825002,93.416664 162.375,93.95 C161.924998,94.483336 161.39167,94.983331 160.775,95.45 C160.15833,95.916669 159.475004,96.2916653 158.725,96.575 C157.974996,96.8583348 157.150005,97 156.25,97 C155.716664,97 155.175003,96.9250007 154.625,96.775 C154.074997,96.6249992 153.575002,96.3583352 153.125,95.975 C152.674998,95.5916648 152.308335,95.100003 152.025,94.5 C151.741665,93.899997 151.6,93.166671 151.6,92.3 C151.6,91.366662 151.974996,90.466671 152.725,89.6 C153.475004,88.733329 154.399995,87.9500035 155.5,87.25 C156.600005,86.5499965 157.574996,85.9500025 158.425,85.45 C159.275004,84.9499975 160.016664,84.5250018 160.65,84.175 C161.283337,83.8249983 161.841664,83.5250013 162.325,83.275 C162.808336,83.0249988 163.216665,82.800001 163.55,82.6 L163.55,77.45 C163.55,77.383333 163.491667,77.2250012 163.375,76.975 C163.258333,76.7249987 163.058335,76.466668 162.775,76.2 C162.491665,75.933332 162.100002,75.6916677 161.6,75.475 C161.099998,75.2583322 160.450004,75.15 159.65,75.15 C159.116664,75.15 158.591669,75.2416658 158.075,75.425 C157.558331,75.6083342 157.100002,75.8416653 156.7,76.125 C156.299998,76.4083347 155.983334,76.6916653 155.75,76.975 C155.516666,77.2583348 155.4,77.499999 155.4,77.7 L155.4,79.95 C155.4,80.416669 155.158336,80.8333315 154.675,81.2 C154.191664,81.5666685 153.66667,81.75 153.1,81.75 C152.566664,81.75 152.108335,81.5583353 151.725,81.175 C151.341665,80.7916647 151.15,80.3500025 151.15,79.85 C151.15,79.449998 151.249999,79.083335 151.45,78.75 C151.650001,78.416665 151.899999,78.116668 152.2,77.85 C152.500002,77.583332 152.824998,77.350001 153.175,77.15 C153.525002,76.949999 153.833332,76.7666675 154.1,76.6 C154.966671,76.0999975 155.849996,75.616669 156.75,75.15 C157.650005,74.683331 158.508329,74.283335 159.325,73.95 C160.141671,73.616665 160.891663,73.350001 161.575,73.15 C162.258337,72.949999 162.816665,72.85 163.25,72.85 C164.116671,72.85 164.93333,73.0749977 165.7,73.525 C166.46667,73.9750022 167.016665,74.53333 167.35,75.2 C167.483334,75.4333345 167.566667,75.8416637 167.6,76.425 C167.633333,77.0083362 167.65,77.5833305 167.65,78.15 C167.65,79.350006 167.641667,80.4333285 167.625,81.4 C167.608333,82.3666715 167.6,83.2999955 167.6,84.2 C167.6,85.1000045 167.591667,86.0249952 167.575,86.975 C167.558333,87.9250047 167.55,88.966661 167.55,90.1 C167.55,91.6000075 167.808331,92.5916643 168.325,93.075 C168.841669,93.5583357 169.43333,93.8 170.1,93.8 C170.866671,93.8 171.433332,93.6416683 171.8,93.325 C172.166669,93.0083318 172.416666,92.6000025 172.55,92.1 L172.85,92.1 Z M163.55,91.1 L163.55,83.4 C162.949997,83.8333355 162.200004,84.2916642 161.3,84.775 C160.399995,85.2583358 159.525004,85.7833305 158.675,86.35 C157.824996,86.9166695 157.09167,87.5416633 156.475,88.225 C155.85833,88.9083367 155.55,89.683329 155.55,90.55 C155.55,91.416671 155.849997,92.1999965 156.45,92.9 C157.050003,93.6000035 157.833328,93.95 158.8,93.95 C159.666671,93.95 160.43333,93.850001 161.1,93.65 C161.76667,93.449999 162.383331,93.0666695 162.95,92.5 C163.350002,92.1333315 163.55,91.6666695 163.55,91.1 Z M190.35,75.5 C190.35,76.233337 190.133335,76.8416643 189.7,77.325 C189.266664,77.8083357 188.76667,78.05 188.2,78.05 C187.666664,78.05 187.241668,77.9583343 186.925,77.775 C186.608332,77.5916657 186.333335,77.3833345 186.1,77.15 C185.866665,76.9166655 185.616668,76.7083343 185.35,76.525 C185.083332,76.3416657 184.716669,76.25 184.25,76.25 C183.849998,76.25 183.458335,76.3916652 183.075,76.675 C182.691665,76.9583347 182.333335,77.3166645 182,77.75 C181.666665,78.1833355 181.366668,78.6749972 181.1,79.225 C180.833332,79.7750027 180.600001,80.2999975 180.4,80.8 L180.4,95.2 C180.5,95.5000015 180.716665,95.7333325 181.05,95.9 C181.383335,96.0666675 181.758331,96.183333 182.175,96.25 C182.591669,96.316667 183.024998,96.3583332 183.475,96.375 C183.925002,96.3916668 184.316665,96.433333 184.65,96.5 L184.65,97 L173.45,97 L173.45,96.5 C174.21667,96.433333 174.874997,96.2833345 175.425,96.05 C175.975003,95.8166655 176.25,95.433336 176.25,94.9 L176.25,78 C176.25,77.733332 176.225,77.533334 176.175,77.4 C176.125,77.266666 175.983334,77.1166675 175.75,76.95 C175.449999,76.7833325 175.100002,76.5750013 174.7,76.325 C174.299998,76.0749987 173.900002,75.8666675 173.5,75.7 L173.5,75.4 L180.05,72.85 L180.35,72.85 L180.25,79.8 L180.35,79.8 C180.516668,79.399998 180.783332,78.8166705 181.15,78.05 C181.516668,77.2833295 181.98333,76.5083372 182.55,75.725 C183.116669,74.9416627 183.799996,74.2666695 184.6,73.7 C185.400004,73.1333305 186.316662,72.85 187.35,72.85 C188.183338,72.85 188.891664,73.0999975 189.475,73.6 C190.058336,74.1000025 190.35,74.7333295 190.35,75.5 Z" id="logo10" fill="#000000"></path>
    </g>
</svg>