<?xml version="1.0" encoding="UTF-8"?>
<svg width="332px" height="110px" viewBox="0 0 332 110" version="1.1" xmlns="http://www.w3.org/2000/svg" xmlns:xlink="http://www.w3.org/1999/xlink">
    <!-- Generator: Sketch 48.2 (47327) - http://www.bohemiancoding.com/sketch -->
    <title>logo4</title>
    <desc>Created with Sketch.</desc>
    <defs></defs>
    <g id="Page-1" stroke="none" stroke-width="1" fill="none" fill-rule="evenodd">
        <path d="M8,40.65 C7.7666655,40.65 7.64166675,40.5416677 7.625,40.325 C7.60833325,40.1083322 7.699999,39.966667 7.9,39.9 C8.033334,39.833333 8.29166475,39.766667 8.675,39.7 C9.05833525,39.633333 9.47499775,39.5750003 9.925,39.525 C10.3750022,39.4749997 10.8083313,39.4333335 11.225,39.4 C11.6416688,39.3666665 11.9333325,39.35 12.1,39.35 C12.4666685,39.35 12.65,39.1666685 12.65,38.8 L12.65,5.85 C12.65,5.516665 12.483335,5.35 12.15,5.35 L5.85,5.35 C5.6833325,5.35 5.533334,5.416666 5.4,5.55 C5.266666,5.683334 5.166667,5.7999995 5.1,5.9 C4.966666,6.100001 4.800001,6.55832975 4.6,7.275 C4.399999,7.99167025 4.19166775,8.7666625 3.975,9.6 C3.75833225,10.4333375 3.54166775,11.249996 3.325,12.05 C3.10833225,12.850004 2.9166675,13.416665 2.75,13.75 C2.616666,13.9833345 2.316669,14.0833335 1.85,14.05 C1.383331,14.0166665 1.0333345,14 0.8,14 C0.466665,14 0.3,13.833335 0.3,13.5 C0.3,13.1333315 0.30833325,12.7916682 0.325,12.475 C0.34166675,12.1583318 0.3666665,11.8166685 0.4,11.45 C0.466667,10.2833275 0.52499975,9.12500575 0.575,7.975 C0.62500025,6.82499425 0.65,5.6666725 0.65,4.5 C0.65,4.166665 0.816665,4 1.15,4 L32.5,4 C32.833335,4 33,4.166665 33,4.5 L33,13.5 C33,13.833335 32.833335,14 32.5,14 C32.366666,14 32.200001,14.0083333 32,14.025 C31.799999,14.0416667 31.600001,14.05 31.4,14.05 C31.199999,14.05 31.0166675,14.0250003 30.85,13.975 C30.6833325,13.9249997 30.5833335,13.8166675 30.55,13.65 C30.4499995,13.3499985 30.2916677,12.800004 30.075,12 C29.8583322,11.199996 29.6250012,10.366671 29.375,9.5 C29.1249988,8.633329 28.900001,7.84167025 28.7,7.125 C28.499999,6.40832975 28.3500005,6.0000005 28.25,5.9 C28.183333,5.833333 28.0583343,5.72500075 27.875,5.575 C27.6916657,5.42499925 27.5500005,5.35 27.45,5.35 L21.15,5.35 C20.816665,5.35 20.65,5.516665 20.65,5.85 L20.65,38.8 C20.65,38.933334 20.7083327,39.0583327 20.825,39.175 C20.9416673,39.2916672 21.066666,39.35 21.2,39.35 C21.3666675,39.35 21.6583312,39.3666665 22.075,39.4 C22.4916688,39.4333335 22.9249977,39.4749997 23.375,39.525 C23.8250023,39.5750003 24.249998,39.633333 24.65,39.7 C25.050002,39.766667 25.2999995,39.833333 25.4,39.9 C25.5666675,39.966667 25.6583333,40.1083322 25.675,40.325 C25.6916667,40.5416677 25.5833345,40.65 25.35,40.65 L8,40.65 Z M45.65,15.2 C45.5499995,15.4333345 45.4750002,15.5666665 45.425,15.6 C45.3749998,15.6333335 45.35,15.783332 45.35,16.05 C45.35,16.1500005 45.4666655,16.4749973 45.7,17.025 C45.9333345,17.5750028 46.1916653,18.18333 46.475,18.85 C46.7583348,19.51667 47.033332,20.149997 47.3,20.75 C47.566668,21.350003 47.733333,21.749999 47.8,21.95 C48.1666685,22.8500045 48.6333305,23.9583267 49.2,25.275 C49.7666695,26.5916732 50.3083307,27.949993 50.825,29.35 C51.3416692,30.750007 51.7833315,32.11666 52.15,33.45 C52.5166685,34.78334 52.7,35.8999955 52.7,36.8 C52.7,37.600004 52.5750013,38.4833285 52.325,39.45 C52.0749987,40.4166715 51.7583352,41.3833285 51.375,42.35 C50.9916648,43.3166715 50.566669,44.2583288 50.1,45.175 C49.633331,46.0916712 49.1833355,46.8666635 48.75,47.5 C48.1166635,48.4666715 47.3750042,49.449995 46.525,50.45 C45.6749957,51.450005 44.7333385,52.2916632 43.7,52.975 C42.6666615,53.6583367 41.5666725,54.0916658 40.4,54.275 C39.2333275,54.4583343 38.016673,54.21667 36.75,53.55 C36.283331,53.283332 35.8750018,52.9333355 35.525,52.5 C35.1749983,52.0666645 35,51.5666695 35,51 C35,50.1666625 35.3833295,49.450003 36.15,48.85 C37.016671,48.18333 37.9333285,47.8916662 38.9,47.975 C39.8666715,48.0583337 40.7666625,48.4166635 41.6,49.05 C41.7000005,49.1500005 41.883332,49.3249988 42.15,49.575 C42.416668,49.8250013 42.6916653,50.083332 42.975,50.35 C43.2583348,50.616668 43.5166655,50.849999 43.75,51.05 C43.9833345,51.250001 44.1499995,51.35 44.25,51.35 C44.6166685,51.35 44.9416653,51.216668 45.225,50.95 C45.5083348,50.683332 45.749999,50.416668 45.95,50.15 C46.0500005,50.016666 46.2749982,49.650003 46.625,49.05 C46.9750018,48.449997 47.3249983,47.8250033 47.675,47.175 C48.0250018,46.5249968 48.3416653,45.9166695 48.625,45.35 C48.9083347,44.7833305 49.05,44.4500005 49.05,44.35 C49.05,44.1833325 49.0583333,43.9916678 49.075,43.775 C49.0916668,43.5583323 49.066667,43.383334 49,43.25 L37.7,16.35 C37.4666655,15.7833305 37.1750017,15.4250007 36.825,15.275 C36.4749982,15.1249992 36.1416682,15.0416667 35.825,15.025 C35.5083318,15.0083333 35.2416678,15.0083333 35.025,15.025 C34.8083323,15.0416667 34.7,14.916668 34.7,14.65 C34.7,14.449999 34.8166655,14.35 35.05,14.35 L48.65,14.35 C48.916668,14.35 49.05,14.483332 49.05,14.75 C49.05,14.9833345 48.9000015,15.1166665 48.6,15.15 C48.2999985,15.1833335 47.9583353,15.1916667 47.575,15.175 C47.1916647,15.1583332 46.8083353,15.1333335 46.425,15.1 C46.0416647,15.0666665 45.783334,15.0999995 45.65,15.2 Z M63.75,14.35 C63.950001,14.35 64.05,14.449999 64.05,14.65 C64.05,14.916668 63.9000015,15.0749997 63.6,15.125 C63.2999985,15.1750003 62.9666685,15.2166665 62.6,15.25 C62.2333315,15.2833335 61.8583352,15.3416663 61.475,15.425 C61.0916648,15.5083338 60.833334,15.6999985 60.7,16 C60.433332,16.5666695 60.200001,17.1666635 60,17.8 C59.799999,18.4333365 59.5833345,19.049997 59.35,19.65 C58.883331,20.916673 58.4000025,22.1916602 57.9,23.475 C57.3999975,24.7583398 56.916669,26.033327 56.45,27.3 C56.3499995,27.6000015 56.1750013,28.0916633 55.925,28.775 C55.6749987,29.4583368 55.416668,30.1583298 55.15,30.875 C54.883332,31.5916702 54.6333345,32.249997 54.4,32.85 C54.1666655,33.450003 53.983334,33.849999 53.85,34.05 C53.7499995,34.2166675 53.6916667,34.2166675 53.675,34.05 C53.6583333,33.8833325 53.6583333,33.6583347 53.675,33.375 C53.6916667,33.0916653 53.7249998,32.816668 53.775,32.55 C53.8250003,32.283332 53.85,32.1333335 53.85,32.1 C54.2166685,30.5999925 54.666664,29.1250073 55.2,27.675 C55.733336,26.2249928 56.233331,24.766674 56.7,23.3 C57.0666685,22.1333275 57.4666645,20.9916722 57.9,19.875 C58.3333355,18.7583277 58.6999985,17.6166725 59,16.45 C59.0333335,16.2833325 59.0416667,16.0250018 59.025,15.675 C59.0083332,15.3249983 58.900001,15.15 58.7,15.15 L55.1,15.15 C54.833332,15.15 54.7,15.016668 54.7,14.75 C54.7,14.483332 54.833332,14.35 55.1,14.35 L63.75,14.35 Z M77.4,38.85 C77.2999995,38.9500005 77.25,39.066666 77.25,39.2 L77.25,43.15 C77.25,44.083338 77.2416668,45.0749947 77.225,46.125 C77.2083333,47.1750053 77.2083333,48.133329 77.225,49 C77.2416668,49.866671 77.2583332,50.599997 77.275,51.2 C77.2916667,51.800003 77.3166665,52.1166665 77.35,52.15 C77.416667,52.216667 77.4916662,52.2999995 77.575,52.4 C77.6583337,52.5000005 77.733333,52.583333 77.8,52.65 C77.9666675,52.8166675 78.2249982,52.9 78.575,52.9 C78.9250017,52.9 79.2749982,52.8833335 79.625,52.85 C79.9750018,52.8166665 80.283332,52.8166665 80.55,52.85 C80.816668,52.8833335 80.95,53.0166655 80.95,53.25 C80.95,53.516668 80.816668,53.65 80.55,53.65 L67,53.65 C66.733332,53.65 66.6,53.516668 66.6,53.25 C66.6,52.983332 66.7749982,52.8416668 67.125,52.825 C67.4750018,52.8083333 67.8583312,52.8249998 68.275,52.875 C68.6916687,52.9250002 69.0749983,52.9333335 69.425,52.9 C69.7750018,52.8666665 69.95,52.683335 69.95,52.35 L69.95,18.2 C69.95,18.0333325 69.916667,17.916667 69.85,17.85 C69.783333,17.783333 69.7083338,17.7000005 69.625,17.6 C69.5416663,17.4999995 69.466667,17.416667 69.4,17.35 C69.2999995,17.2499995 69.116668,17.1833335 68.85,17.15 C68.583332,17.1166665 68.2916683,17.1 67.975,17.1 C67.6583318,17.1 67.3500015,17.1083332 67.05,17.125 C66.7499985,17.1416668 66.533334,17.15 66.4,17.15 C66.199999,17.15 66.133333,17.0333345 66.2,16.8 C66.266667,16.666666 66.333333,16.5833335 66.4,16.55 C66.4333335,16.4499995 66.5333325,16.366667 66.7,16.3 L75.6,13.65 C76.000002,13.516666 76.3166655,13.5333325 76.55,13.7 C76.7833345,13.8666675 76.9499995,14.0999985 77.05,14.4 C77.1500005,14.7000015 77.2083333,15.0249983 77.225,15.375 C77.2416668,15.7250017 77.25,16.033332 77.25,16.3 C77.25,16.566668 77.3666655,16.7 77.6,16.7 C78.066669,16.7 78.599997,16.5416683 79.2,16.225 C79.800003,15.9083318 80.4499965,15.5583353 81.15,15.175 C81.8500035,14.7916647 82.599996,14.4416683 83.4,14.125 C84.200004,13.8083317 85.0499955,13.65 85.95,13.65 C88.3833455,13.65 90.366659,14.2666605 91.9,15.5 C93.433341,16.7333395 94.5916628,18.283324 95.375,20.15 C96.1583373,22.016676 96.583333,24.0416558 96.65,26.225 C96.716667,28.4083443 96.483336,30.466657 95.95,32.4 C95.5833315,33.73334 95.06667,34.9499945 94.4,36.05 C93.73333,37.1500055 92.933338,38.0916628 92,38.875 C91.066662,39.6583372 90.000006,40.2666645 88.8,40.7 C87.599994,41.1333355 86.300007,41.35 84.9,41.35 C84.033329,41.35 83.2166705,41.1583352 82.45,40.775 C81.6833295,40.3916648 80.9166705,39.9833355 80.15,39.55 C79.9833325,39.4499995 79.800001,39.3583337 79.6,39.275 C79.399999,39.1916663 79.233334,39.1000005 79.1,39 C78.9333325,38.866666 78.8666665,38.733334 78.9,38.6 C78.9333335,38.466666 79.049999,38.3833335 79.25,38.35 C81.25001,38.8500025 82.8666605,38.8583357 84.1,38.375 C85.3333395,37.8916643 86.28333,37.1000055 86.95,36 C87.61667,34.8999945 88.0666655,33.6000075 88.3,32.1 C88.5333345,30.5999925 88.65,29.0666745 88.65,27.5 C88.65,26.366661 88.5916673,25.1416732 88.475,23.825 C88.3583328,22.5083267 88.0833355,21.2916723 87.65,20.175 C87.2166645,19.0583277 86.566671,18.133337 85.7,17.4 C84.833329,16.666663 83.633341,16.3 82.1,16.3 C81.833332,16.3 81.4500025,16.3249997 80.95,16.375 C80.4499975,16.4250003 79.9500025,16.5083328 79.45,16.625 C78.9499975,16.7416672 78.5166685,16.9166655 78.15,17.15 C77.7833315,17.3833345 77.6,17.666665 77.6,18 L77.6,37.35 C77.6,37.5166675 77.6083332,37.666666 77.625,37.8 C77.6416668,37.933334 77.65,38.0833325 77.65,38.25 L77.4,38.85 Z M101.05,27.5 C101.05,25.4666565 101.391663,23.6000085 102.075,21.9 C102.758337,20.1999915 103.708327,18.7416728 104.925,17.525 C106.141673,16.3083272 107.599992,15.3583368 109.3,14.675 C111.000009,13.9916632 112.866656,13.65 114.9,13.65 C117.033344,13.65 118.933325,13.9916632 120.6,14.675 C122.266675,15.3583368 123.674994,16.3166605 124.825,17.55 C125.975006,18.7833395 126.85833,20.266658 127.475,22 C128.09167,23.733342 128.4,25.633323 128.4,27.7 C128.4,29.7333435 128.075003,31.583325 127.425,33.25 C126.774997,34.916675 125.866673,36.349994 124.7,37.55 C123.533328,38.750006 122.116675,39.68333 120.45,40.35 C118.783325,41.01667 116.933343,41.35 114.9,41.35 C112.833323,41.35 110.950008,41.01667 109.25,40.35 C107.549992,39.68333 106.091673,38.7416728 104.875,37.525 C103.658327,36.3083272 102.71667,34.8500085 102.05,33.15 C101.38333,31.4499915 101.05,29.566677 101.05,27.5 Z M109,27.5 C109,28.16667 109.008333,28.9499955 109.025,29.85 C109.041667,30.7500045 109.099999,31.6749952 109.2,32.625 C109.300001,33.5750048 109.466665,34.516662 109.7,35.45 C109.933335,36.383338 110.266665,37.2083297 110.7,37.925 C111.133336,38.6416703 111.68333,39.2249977 112.35,39.675 C113.01667,40.1250022 113.833328,40.35 114.8,40.35 C115.800005,40.35 116.624997,40.1250022 117.275,39.675 C117.925003,39.2249977 118.458331,38.6416703 118.875,37.925 C119.291669,37.2083297 119.608332,36.383338 119.825,35.45 C120.041668,34.516662 120.191666,33.5750048 120.275,32.625 C120.358334,31.6749952 120.4,30.7500045 120.4,29.85 L120.4,27.5 C120.4,26.499995 120.391667,25.266674 120.375,23.8 C120.358333,22.333326 120.191668,20.9250067 119.875,19.575 C119.558332,18.2249933 119.025004,17.0666715 118.275,16.1 C117.524996,15.1333285 116.416674,14.65 114.95,14.65 C113.416659,14.65 112.250004,15.116662 111.45,16.05 C110.649996,16.983338 110.066668,18.1249932 109.7,19.475 C109.333331,20.8250068 109.125,22.233326 109.075,23.7 C109.025,25.166674 109,26.433328 109,27.5 Z M158.8,13.7 C158.900001,13.633333 159,13.6083332 159.1,13.625 C159.2,13.6416668 159.3,13.65 159.4,13.65 C159.666668,13.65 159.833333,13.7666655 159.9,14 C159.966667,14.2333345 160.016667,14.449999 160.05,14.65 L160.25,16.55 C160.283334,16.816668 160.116669,16.983333 159.75,17.05 C158.98333,17.116667 158.21667,17.016668 157.45,16.75 C156.68333,16.483332 155.933337,16.3666665 155.2,16.4 C154.966666,16.4333335 154.833333,16.4666665 154.8,16.5 C154.766666,16.5333335 154.733334,16.6666655 154.7,16.9 C154.666667,17.3333355 154.699999,17.783331 154.8,18.25 C154.900001,18.716669 155.008333,19.183331 155.125,19.65 C155.241667,20.116669 155.349999,20.583331 155.45,21.05 C155.550001,21.516669 155.6,21.983331 155.6,22.45 C155.6,23.516672 155.408335,24.5583282 155.025,25.575 C154.641665,26.5916717 154.108337,27.499996 153.425,28.3 C152.741663,29.100004 151.925005,29.7499975 150.975,30.25 C150.024995,30.7500025 149.000006,31 147.9,31 L141.25,31 C140.116661,31 139.083338,30.733336 138.15,30.2 C136.81666,29.399996 135.758337,28.3583398 134.975,27.075 C134.191663,25.7916603 133.725001,24.450007 133.575,23.05 C133.424999,21.649993 133.624997,20.2750067 134.175,18.925 C134.725003,17.5749933 135.683327,16.433338 137.05,15.5 C137.683336,15.0666645 138.433329,14.7083348 139.3,14.425 C140.166671,14.1416653 141.058329,13.933334 141.975,13.8 C142.891671,13.666666 143.808329,13.6083332 144.725,13.625 C145.641671,13.6416668 146.466663,13.749999 147.2,13.95 C147.600002,14.0500005 148.116663,14.2166655 148.75,14.45 C149.383337,14.6833345 150.03333,14.9083322 150.7,15.125 C151.36667,15.3416677 151.999997,15.5083328 152.6,15.625 C153.200003,15.7416672 153.666665,15.733334 154,15.6 L158.8,13.7 Z M140.2,22.35 C140.2,23.1166705 140.233333,23.9583288 140.3,24.875 C140.366667,25.7916713 140.549999,26.6583293 140.85,27.475 C141.150002,28.2916707 141.591664,28.9749973 142.175,29.525 C142.758336,30.0750028 143.549995,30.35 144.55,30.35 C145.550005,30.35 146.35833,30.0750028 146.975,29.525 C147.59167,28.9749973 148.066665,28.300004 148.4,27.5 C148.733335,26.699996 148.958333,25.833338 149.075,24.9 C149.191667,23.966662 149.25,23.1166705 149.25,22.35 C149.25,21.616663 149.208334,20.783338 149.125,19.85 C149.041666,18.916662 148.850001,18.0333375 148.55,17.2 C148.249998,16.3666625 147.800003,15.6750027 147.2,15.125 C146.599997,14.5749973 145.800005,14.3 144.8,14.3 C143.733328,14.3 142.89167,14.566664 142.275,15.1 C141.65833,15.633336 141.200001,16.3083292 140.9,17.125 C140.599999,17.9416708 140.408334,18.816662 140.325,19.75 C140.241666,20.683338 140.2,21.549996 140.2,22.35 Z M136.6,41.8 C136.6,41.7666665 136.500001,41.650001 136.3,41.45 C136.099999,41.249999 135.866668,41.0250013 135.6,40.775 C135.333332,40.5249988 135.075001,40.2750013 134.825,40.025 C134.574999,39.7749988 134.416667,39.6000005 134.35,39.5 C134.016665,38.9999975 133.841667,38.316671 133.825,37.45 C133.808333,36.583329 133.924999,35.7250042 134.175,34.875 C134.425001,34.0249958 134.783331,33.2500035 135.25,32.55 C135.716669,31.8499965 136.266664,31.4166675 136.9,31.25 C137.233335,31.1499995 137.425,31.2583318 137.475,31.575 C137.525,31.8916683 137.55,32.2916642 137.55,32.775 C137.55,33.2583358 137.591666,33.7749973 137.675,34.325 C137.758334,34.8750028 137.983332,35.3333315 138.35,35.7 C138.616668,35.966668 138.849999,36.133333 139.05,36.2 C139.250001,36.266667 139.533332,36.3166665 139.9,36.35 C140.466669,36.416667 141.016664,36.4250003 141.55,36.375 C142.083336,36.3249997 142.633331,36.2833335 143.2,36.25 C144.133338,36.2166665 145.183328,36.1916667 146.35,36.175 C147.516672,36.1583332 148.708327,36.2083328 149.925,36.325 C151.141673,36.4416673 152.333327,36.6499985 153.5,36.95 C154.666673,37.2500015 155.699995,37.6916637 156.6,38.275 C157.500005,38.8583362 158.224997,39.5999955 158.775,40.5 C159.325003,41.4000045 159.6,42.51666 159.6,43.85 C159.6,45.1500065 159.358336,46.2916618 158.875,47.275 C158.391664,48.2583383 157.733338,49.116663 156.9,49.85 C156.066663,50.583337 155.116672,51.1916643 154.05,51.675 C152.983328,52.1583357 151.866673,52.5499985 150.7,52.85 C149.533328,53.1500015 148.366673,53.366666 147.2,53.5 C146.033328,53.633334 144.933338,53.7 143.9,53.7 C143.099996,53.7 142.225005,53.6750002 141.275,53.625 C140.324995,53.5749998 139.391671,53.4583343 138.475,53.275 C137.558329,53.0916658 136.691671,52.8166685 135.875,52.45 C135.058329,52.0833315 134.350003,51.56667 133.75,50.9 C132.949996,49.9999955 132.55,48.9000065 132.55,47.6 C132.55,46.666662 132.766665,45.9083362 133.2,45.325 C133.633335,44.7416637 134.116664,44.2583353 134.65,43.875 C135.183336,43.4916647 135.649998,43.1500015 136.05,42.85 C136.450002,42.5499985 136.633333,42.200002 136.6,41.8 Z M148.05,42.6 C146.283324,42.533333 144.533342,42.4750002 142.8,42.425 C141.066658,42.3749998 139.316675,42.35 137.55,42.35 C137.349999,42.35 137.2,42.4333325 137.1,42.6 C136.833332,43.066669 136.666667,43.6499965 136.6,44.35 C136.533333,45.0500035 136.5,45.666664 136.5,46.2 C136.5,47.1666715 136.691665,48.0666625 137.075,48.9 C137.458335,49.7333375 138.083329,50.3999975 138.95,50.9 C139.750004,51.366669 140.808327,51.699999 142.125,51.9 C143.441673,52.100001 144.79166,52.1500005 146.175,52.05 C147.55834,51.9499995 148.86666,51.700002 150.1,51.3 C151.333339,50.899998 152.266664,50.3500035 152.9,49.65 C153.433336,49.049997 153.758333,48.3666705 153.875,47.6 C153.991667,46.8333295 153.916668,46.1083368 153.65,45.425 C153.383332,44.7416632 152.958336,44.1416693 152.375,43.625 C151.791664,43.1083307 151.083337,42.783334 150.25,42.65 C149.883332,42.583333 149.516669,42.5583333 149.15,42.575 C148.783332,42.5916668 148.416669,42.6 148.05,42.6 Z M178.65,40 C178.716667,40.133334 178.766667,40.2749993 178.8,40.425 C178.833333,40.5750008 178.733334,40.65 178.5,40.65 L163.85,40.65 C163.583332,40.65 163.45,40.516668 163.45,40.25 C163.45,39.983332 163.608332,39.8416668 163.925,39.825 C164.241668,39.8083333 164.583331,39.8166665 164.95,39.85 C165.316668,39.8833335 165.658332,39.8833335 165.975,39.85 C166.291668,39.8166665 166.45,39.6500015 166.45,39.35 L166.45,17.65 C166.45,17.316665 166.266669,17.1416668 165.9,17.125 C165.533332,17.1083332 165.125002,17.1166665 164.675,17.15 C164.224998,17.1833335 163.825002,17.2 163.475,17.2 C163.124998,17.2 162.983333,17.066668 163.05,16.8 C163.116667,16.666666 163.183333,16.5833335 163.25,16.55 C163.283333,16.4499995 163.383333,16.366667 163.55,16.3 L172.4,13.65 C172.566667,13.583333 172.774999,13.5749997 173.025,13.625 C173.275001,13.6750003 173.449999,13.7833325 173.55,13.95 C173.650001,14.1166675 173.725,14.433331 173.775,14.9 C173.825,15.366669 173.866667,15.8916638 173.9,16.475 C173.933333,17.0583363 173.958333,17.616664 173.975,18.15 C173.991667,18.683336 174.033333,19.0666655 174.1,19.3 C174.133334,19.4666675 174.158333,19.5666665 174.175,19.6 C174.191667,19.6333335 174.283333,19.6666665 174.45,19.7 C174.783335,19.7333335 175.166664,19.4333365 175.6,18.8 C176.033335,18.1666635 176.55833,17.4666705 177.175,16.7 C177.79167,15.9333295 178.524996,15.2250032 179.375,14.575 C180.225004,13.9249967 181.233328,13.6 182.4,13.6 C182.933336,13.6 183.466664,13.6583327 184,13.775 C184.533336,13.8916673 185.008331,14.083332 185.425,14.35 C185.841669,14.616668 186.174999,14.9666645 186.425,15.4 C186.675001,15.8333355 186.8,16.3666635 186.8,17 C186.8,19.2333445 185.683344,20.35 183.45,20.35 C182.983331,20.35 182.566668,20.316667 182.2,20.25 C181.833331,20.183333 181.466668,20.016668 181.1,19.75 L180.625,19.275 C180.408332,19.0583323 180.183334,18.8250013 179.95,18.575 C179.716665,18.3249987 179.508334,18.100001 179.325,17.9 C179.141666,17.699999 179.016667,17.6 178.95,17.6 C178.683332,17.533333 178.433334,17.5499995 178.2,17.65 C177.699997,17.8166675 177.200002,18.2166635 176.7,18.85 C176.199997,19.4833365 175.758335,20.199996 175.375,21 C174.991665,21.800004 174.683334,22.599996 174.45,23.4 C174.216666,24.200004 174.1,24.8499975 174.1,25.35 L174.1,38.8 C174.1,38.9666675 174.216666,39.183332 174.45,39.45 C174.683334,39.716668 174.883333,39.85 175.05,39.85 L178.45,39.85 L178.65,40 Z M208.7,41.3 C208.299998,41.166666 207.883336,40.9500015 207.45,40.65 C207.016665,40.3499985 206.616669,40.000002 206.25,39.6 C205.883331,39.199998 205.575001,38.7750023 205.325,38.325 C205.074999,37.8749978 204.95,37.4333355 204.95,37 L204.95,36 L205.1,26.2 C205.1,25.933332 204.966668,25.7500005 204.7,25.65 C204.499999,25.583333 204.250002,25.5666665 203.95,25.6 C203.649999,25.6333335 203.341668,25.6999995 203.025,25.8 C202.708332,25.9000005 202.400002,25.9999995 202.1,26.1 C201.799999,26.2000005 201.566667,26.2999995 201.4,26.4 C199.366656,27.400005 197.916671,28.966656 197.05,31.1 C196.716665,31.8666705 196.508334,32.6916623 196.425,33.575 C196.341666,34.4583377 196.424999,35.2833295 196.675,36.05 C196.925001,36.8166705 197.349997,37.4499975 197.95,37.95 C198.550003,38.4500025 199.383328,38.7 200.45,38.7 C200.583334,38.7 200.841665,38.6416673 201.225,38.525 C201.608335,38.4083327 201.983332,38.3083337 202.35,38.225 C202.716668,38.1416663 203.008332,38.1166665 203.225,38.15 C203.441668,38.1833335 203.466667,38.366665 203.3,38.7 C202.866665,39.5333375 202.141672,40.1583313 201.125,40.575 C200.108328,40.9916688 199.008339,41.2249997 197.825,41.275 C196.641661,41.3250003 195.491672,41.2250012 194.375,40.975 C193.258328,40.7249987 192.36667,40.333336 191.7,39.8 C190.93333,39.199997 190.416668,38.4833375 190.15,37.65 C189.883332,36.8166625 189.75,35.933338 189.75,35 C189.75,33.533326 190.116663,32.2750052 190.85,31.225 C191.583337,30.1749947 192.516661,29.283337 193.65,28.55 C194.783339,27.816663 196.008327,27.2333355 197.325,26.8 C198.641673,26.3666645 199.899994,26.016668 201.1,25.75 C201.300001,25.7166665 201.566665,25.6750003 201.9,25.625 C202.233335,25.5749997 202.583331,25.516667 202.95,25.45 C203.316669,25.383333 203.658332,25.316667 203.975,25.25 C204.291668,25.183333 204.516666,25.116667 204.65,25.05 C205.016669,24.8833325 205.191667,24.6083352 205.175,24.225 C205.158333,23.8416648 205.15,23.5000015 205.15,23.2 L205.15,21.35 C205.15,20.68333 205.116667,20.0083368 205.05,19.325 C204.983333,18.6416633 204.858334,17.9916698 204.675,17.375 C204.491666,16.7583302 204.216668,16.2000025 203.85,15.7 C203.349997,14.9999965 202.666671,14.65 201.8,14.65 C201.599999,14.65 201.291669,14.6416668 200.875,14.625 C200.458331,14.6083332 200.033336,14.6 199.6,14.6 C199.166665,14.6 198.766669,14.6166665 198.4,14.65 C198.033332,14.6833335 197.783334,14.733333 197.65,14.8 C197.516666,14.866667 197.433334,15.1083312 197.4,15.525 C197.366667,15.9416688 197.325,16.449997 197.275,17.05 C197.225,17.650003 197.141667,18.2749968 197.025,18.925 C196.908333,19.5750033 196.716668,20.1833305 196.45,20.75 C196.183332,21.3166695 195.808336,21.7833315 195.325,22.15 C194.841664,22.5166685 194.21667,22.7 193.45,22.7 C192.583329,22.7 191.925002,22.4916688 191.475,22.075 C191.024998,21.6583313 190.758334,21.1416698 190.675,20.525 C190.591666,19.9083303 190.666666,19.26667 190.9,18.6 C191.133335,17.93333 191.483331,17.3500025 191.95,16.85 C192.583337,16.18333 193.308329,15.6333355 194.125,15.2 C194.941671,14.7666645 195.816662,14.4333345 196.75,14.2 C197.683338,13.9666655 198.624995,13.8083337 199.575,13.725 C200.525005,13.6416662 201.433329,13.6 202.3,13.6 C202.766669,13.6 203.233331,13.6083332 203.7,13.625 C204.166669,13.6416668 204.633331,13.65 205.1,13.65 C206.100005,13.65 207.041662,13.8666645 207.925,14.3 C208.808338,14.7333355 209.574997,15.3083297 210.225,16.025 C210.875003,16.7416702 211.383332,17.566662 211.75,18.5 C212.116669,19.433338 212.3,20.3833285 212.3,21.35 L212.3,38 C212.3,38.2333345 212.374999,38.4249992 212.525,38.575 C212.675001,38.7250007 212.833333,38.8499995 213,38.95 C213.300002,39.150001 213.558332,39.2749998 213.775,39.325 C213.991668,39.3750002 214.191666,39.3833335 214.375,39.35 C214.558334,39.3166665 214.749999,39.2500005 214.95,39.15 C215.150001,39.0499995 215.399999,38.9500005 215.7,38.85 C215.966668,38.7499995 216.158333,38.7 216.275,38.7 C216.391667,38.7 216.416667,38.8833315 216.35,39.25 C216.316666,39.4166675 216.25,39.566666 216.15,39.7 C216.05,39.833334 215.95,39.9499995 215.85,40.05 C215.449998,40.450002 214.958336,40.7416657 214.375,40.925 C213.791664,41.1083342 213.183336,41.233333 212.55,41.3 C211.916664,41.366667 211.283337,41.3916668 210.65,41.375 C210.016664,41.3583332 209.433336,41.35 208.9,41.35 C208.8,41.35 208.733334,41.3333335 208.7,41.3 Z M230.2,38.85 C230.099999,38.9500005 230.05,39.066666 230.05,39.2 L230.05,43.15 C230.05,44.083338 230.041667,45.0749947 230.025,46.125 C230.008333,47.1750053 230.008333,48.133329 230.025,49 C230.041667,49.866671 230.058333,50.599997 230.075,51.2 C230.091667,51.800003 230.116667,52.1166665 230.15,52.15 C230.216667,52.216667 230.291666,52.2999995 230.375,52.4 C230.458334,52.5000005 230.533333,52.583333 230.6,52.65 C230.766668,52.8166675 231.024998,52.9 231.375,52.9 C231.725002,52.9 232.074998,52.8833335 232.425,52.85 C232.775002,52.8166665 233.083332,52.8166665 233.35,52.85 C233.616668,52.8833335 233.75,53.0166655 233.75,53.25 C233.75,53.516668 233.616668,53.65 233.35,53.65 L219.8,53.65 C219.533332,53.65 219.4,53.516668 219.4,53.25 C219.4,52.983332 219.574998,52.8416668 219.925,52.825 C220.275002,52.8083333 220.658331,52.8249998 221.075,52.875 C221.491669,52.9250002 221.874998,52.9333335 222.225,52.9 C222.575002,52.8666665 222.75,52.683335 222.75,52.35 L222.75,18.2 C222.75,18.0333325 222.716667,17.916667 222.65,17.85 C222.583333,17.783333 222.508334,17.7000005 222.425,17.6 C222.341666,17.4999995 222.266667,17.416667 222.2,17.35 C222.099999,17.2499995 221.916668,17.1833335 221.65,17.15 C221.383332,17.1166665 221.091668,17.1 220.775,17.1 C220.458332,17.1 220.150002,17.1083332 219.85,17.125 C219.549999,17.1416668 219.333334,17.15 219.2,17.15 C218.999999,17.15 218.933333,17.0333345 219,16.8 C219.066667,16.666666 219.133333,16.5833335 219.2,16.55 C219.233334,16.4499995 219.333333,16.366667 219.5,16.3 L228.4,13.65 C228.800002,13.516666 229.116665,13.5333325 229.35,13.7 C229.583335,13.8666675 229.75,14.0999985 229.85,14.4 C229.950001,14.7000015 230.008333,15.0249983 230.025,15.375 C230.041667,15.7250017 230.05,16.033332 230.05,16.3 C230.05,16.566668 230.166666,16.7 230.4,16.7 C230.866669,16.7 231.399997,16.5416683 232,16.225 C232.600003,15.9083318 233.249997,15.5583353 233.95,15.175 C234.650004,14.7916647 235.399996,14.4416683 236.2,14.125 C237.000004,13.8083317 237.849996,13.65 238.75,13.65 C241.183346,13.65 243.166659,14.2666605 244.7,15.5 C246.233341,16.7333395 247.391663,18.283324 248.175,20.15 C248.958337,22.016676 249.383333,24.0416558 249.45,26.225 C249.516667,28.4083443 249.283336,30.466657 248.75,32.4 C248.383332,33.73334 247.86667,34.9499945 247.2,36.05 C246.53333,37.1500055 245.733338,38.0916628 244.8,38.875 C243.866662,39.6583372 242.800006,40.2666645 241.6,40.7 C240.399994,41.1333355 239.100007,41.35 237.7,41.35 C236.833329,41.35 236.016671,41.1583352 235.25,40.775 C234.48333,40.3916648 233.71667,39.9833355 232.95,39.55 C232.783333,39.4499995 232.600001,39.3583337 232.4,39.275 C232.199999,39.1916663 232.033334,39.1000005 231.9,39 C231.733333,38.866666 231.666667,38.733334 231.7,38.6 C231.733334,38.466666 231.849999,38.3833335 232.05,38.35 C234.05001,38.8500025 235.666661,38.8583357 236.9,38.375 C238.13334,37.8916643 239.08333,37.1000055 239.75,36 C240.41667,34.8999945 240.866665,33.6000075 241.1,32.1 C241.333335,30.5999925 241.45,29.0666745 241.45,27.5 C241.45,26.366661 241.391667,25.1416732 241.275,23.825 C241.158333,22.5083267 240.883336,21.2916723 240.45,20.175 C240.016665,19.0583277 239.366671,18.133337 238.5,17.4 C237.633329,16.666663 236.433341,16.3 234.9,16.3 C234.633332,16.3 234.250003,16.3249997 233.75,16.375 C233.249998,16.4250003 232.750003,16.5083328 232.25,16.625 C231.749998,16.7416672 231.316669,16.9166655 230.95,17.15 C230.583332,17.3833345 230.4,17.666665 230.4,18 L230.4,37.35 C230.4,37.5166675 230.408333,37.666666 230.425,37.8 C230.441667,37.933334 230.45,38.0833325 230.45,38.25 L230.2,38.85 Z M263.8,0.35 L264.05,0.35 C264.150001,0.35 264.233333,0.3666665 264.3,0.4 C264.433334,0.4333335 264.5,0.516666 264.5,0.65 C264.533334,1.050002 264.55,1.77499475 264.55,2.825 C264.55,3.87500525 264.533334,5.05832675 264.5,6.375 C264.466666,7.69167325 264.425,9.07499275 264.375,10.525 C264.325,11.9750072 264.275,13.3083273 264.225,14.525 C264.175,15.7416728 264.15,16.7583292 264.15,17.575 C264.15,18.3916708 264.183333,18.833333 264.25,18.9 C264.350001,19.033334 264.449999,19.133333 264.55,19.2 C264.650001,19.266667 264.7,19.399999 264.7,19.6 L264.7,39.35 C264.7,39.683335 264.866665,39.85 265.2,39.85 L267.1,39.85 C267.366668,39.85 267.5,39.983332 267.5,40.25 C267.5,40.516668 267.366668,40.65 267.1,40.65 L254.25,40.65 C253.983332,40.65 253.85,40.5583343 253.85,40.375 C253.85,40.1916657 253.933333,40.033334 254.1,39.9 C254.233334,39.7999995 254.466665,39.7666665 254.8,39.8 C255.133335,39.8333335 255.474998,39.8666665 255.825,39.9 C256.175002,39.9333335 256.491665,39.9250003 256.775,39.875 C257.058335,39.8249997 257.2,39.6500015 257.2,39.35 L257.2,3.65 C257.2,3.316665 257.025002,3.14166675 256.675,3.125 C256.324998,3.10833325 255.941669,3.1166665 255.525,3.15 C255.108331,3.1833335 254.725002,3.2 254.375,3.2 C254.024998,3.2 253.85,3.0500015 253.85,2.75 C253.85,2.483332 253.983332,2.316667 254.25,2.25 L263.8,0.35 Z M271.3,40.15 C271.466667,39.949999 271.724998,39.85 272.075,39.85 C272.425002,39.85 272.783332,39.8583332 273.15,39.875 C273.516669,39.8916668 273.833332,39.8833335 274.1,39.85 C274.366668,39.8166665 274.5,39.6500015 274.5,39.35 L274.5,22 C274.5,21.1666625 274.400001,20.3750038 274.2,19.625 C273.999999,18.8749962 273.683336,18.2500025 273.25,17.75 C272.816665,17.2499975 272.258337,16.9083342 271.575,16.725 C270.891663,16.5416657 270.083338,16.5999985 269.15,16.9 C269.083333,16.9 268.825002,17.0249988 268.375,17.275 C267.924998,17.5250013 267.466669,17.7416658 267,17.925 C266.533331,18.1083342 266.158335,18.2083333 265.875,18.225 C265.591665,18.2416667 265.616665,18.016669 265.95,17.55 C266.916672,16.2499935 268.108326,15.2750032 269.525,14.625 C270.941674,13.9749968 272.449992,13.65 274.05,13.65 C276.450012,13.65 278.374993,14.3249933 279.825,15.675 C281.275007,17.0250067 282,18.9166545 282,21.35 L282,39.35 C282,39.6500015 282.149999,39.8166665 282.45,39.85 C282.750002,39.8833335 283.074998,39.8833335 283.425,39.85 C283.775002,39.8166665 284.099999,39.8083333 284.4,39.825 C284.700002,39.8416668 284.85,39.983332 284.85,40.25 C284.85,40.516668 284.716668,40.65 284.45,40.65 L271.7,40.65 C271.333331,40.65 271.199999,40.483335 271.3,40.15 Z M292.15,4 C292.15,2.7666605 292.53333,1.8333365 293.3,1.2 C294.066671,0.5666635 294.916662,0.25 295.85,0.25 C296.783338,0.25 297.633329,0.5666635 298.4,1.2 C299.166671,1.8333365 299.55,2.7666605 299.55,4 C299.55,5.2333395 299.166671,6.15833025 298.4,6.775 C297.633329,7.39166975 296.783338,7.7 295.85,7.7 C294.916662,7.7 294.066671,7.39166975 293.3,6.775 C292.53333,6.15833025 292.15,5.2333395 292.15,4 Z M289.05,40.5 C288.883333,40.3999995 288.874999,40.2666675 289.025,40.1 C289.175001,39.9333325 289.316666,39.85 289.45,39.85 L291.7,39.85 C292.033335,39.85 292.2,39.683335 292.2,39.35 L292.2,17.65 C292.2,17.316665 292.033335,17.15 291.7,17.15 L288.85,17.15 C288.783333,17.083333 288.691667,16.9416677 288.575,16.725 C288.458333,16.5083322 288.483332,16.366667 288.65,16.3 L299.05,13.6 C299.483336,13.4999995 299.7,13.6666645 299.7,14.1 L299.7,39.35 C299.7,39.5833345 299.833332,39.7166665 300.1,39.75 C300.366668,39.7833335 300.674998,39.8 301.025,39.8 C301.375002,39.8 301.716665,39.8083333 302.05,39.825 C302.383335,39.8416668 302.616666,39.949999 302.75,40.15 C302.850001,40.3166675 302.816667,40.4499995 302.65,40.55 C302.583333,40.5833335 302.21667,40.6083332 301.55,40.625 C300.88333,40.6416668 300.058338,40.6583332 299.075,40.675 C298.091662,40.6916667 297.025006,40.7 295.875,40.7 L292.675,40.7 C291.691662,40.7 290.858337,40.6833335 290.175,40.65 C289.491663,40.6166665 289.116667,40.5833335 289.05,40.55 L289.05,40.5 Z M330.8,35.8 C330.8,36.4333365 330.716668,36.9583313 330.55,37.375 C330.383333,37.7916687 330.066669,38.199998 329.6,38.6 C329.199998,38.9666685 328.741669,39.283332 328.225,39.55 C327.708331,39.816668 327.16667,40.049999 326.6,40.25 C326.033331,40.450001 325.458336,40.6249992 324.875,40.775 C324.291664,40.9250007 323.750002,41.033333 323.25,41.1 C320.949989,41.433335 318.791677,41.366669 316.775,40.9 C314.758323,40.433331 313.008341,39.6083392 311.525,38.425 C310.041659,37.2416607 308.875004,35.7250092 308.025,33.875 C307.174996,32.0249908 306.75,29.900012 306.75,27.5 C306.75,25.3999895 307.116663,23.4916753 307.85,21.775 C308.583337,20.0583247 309.599993,18.600006 310.9,17.4 C312.200006,16.199994 313.733324,15.2750032 315.5,14.625 C317.266676,13.9749968 319.183323,13.65 321.25,13.65 L324.1,13.65 C324.500002,13.8166675 324.908331,13.9749992 325.325,14.125 C325.741669,14.2750008 326.149998,14.4333325 326.55,14.6 C327.150003,14.8333345 327.724997,15.1583313 328.275,15.575 C328.825003,15.9916688 329.308331,16.4749973 329.725,17.025 C330.141669,17.5750028 330.483332,18.1666635 330.75,18.8 C331.016668,19.4333365 331.15,20.0666635 331.15,20.7 C331.15,21.300003 330.975002,21.7916647 330.625,22.175 C330.274998,22.5583353 329.850003,22.8249993 329.35,22.975 C328.849997,23.1250008 328.325003,23.1583337 327.775,23.075 C327.224997,22.9916662 326.750002,22.8000015 326.35,22.5 C325.716663,22.033331 325.333334,21.4416703 325.2,20.725 C325.066666,20.0083298 324.991667,19.2666705 324.975,18.5 C324.958333,17.7333295 324.908334,17.0083368 324.825,16.325 C324.741666,15.6416632 324.41667,15.100002 323.85,14.7 C323.816666,14.6666665 323.733334,14.65 323.6,14.65 C322.633329,14.65 321.758337,14.6916663 320.975,14.775 C320.191663,14.8583338 319.383338,15.199997 318.55,15.8 C317.683329,16.4333365 317.000002,17.2083288 316.5,18.125 C315.999998,19.0416713 315.616668,20.0166615 315.35,21.05 C315.083332,22.0833385 314.916667,23.1416612 314.85,24.225 C314.783333,25.3083387 314.75,26.3333285 314.75,27.3 C314.75,27.766669 314.741667,28.2166645 314.725,28.65 C314.708333,29.0833355 314.716666,29.533331 314.75,30 C314.783334,30.4333355 314.924999,30.9916632 315.175,31.675 C315.425001,32.3583368 315.649999,32.899998 315.85,33.3 C316.616671,34.9333415 317.658327,36.2416617 318.975,37.225 C320.291673,38.2083382 321.883324,38.7 323.75,38.7 C324.41667,38.7 325.066664,38.633334 325.7,38.5 C326.333336,38.366666 326.933331,38.1500015 327.5,37.85 C328.066669,37.583332 328.599997,37.2583353 329.1,36.875 C329.600003,36.4916647 330.099997,36.1166685 330.6,35.75 C330.666667,35.683333 330.733333,35.6999995 330.8,35.8 Z M31.35,81.85 C31.35,82.183335 31.183335,82.35 30.85,82.35 L29.35,82.35 C29.1833325,82.35 29.0833335,82.3250003 29.05,82.275 C29.0166665,82.2249997 28.966667,82.133334 28.9,82 C28.7333325,81.5666645 28.5416677,80.916671 28.325,80.05 C28.1083322,79.183329 27.8750012,78.2916713 27.625,77.375 C27.3749988,76.4583287 27.1333345,75.6083372 26.9,74.825 C26.6666655,74.0416628 26.450001,73.516668 26.25,73.25 C26.0166655,72.916665 25.7166685,72.716667 25.35,72.65 C24.883331,72.583333 24.4333355,72.5666665 24,72.6 C23.5666645,72.6333335 23.116669,72.65 22.65,72.65 C20.583323,72.65 18.8000075,73.0249963 17.3,73.775 C15.7999925,74.5250037 14.5416717,75.533327 13.525,76.8 C12.5083282,78.066673 11.7083363,79.533325 11.125,81.2 C10.5416637,82.866675 10.1416678,84.5916577 9.925,86.375 C9.70833225,88.1583423 9.633333,89.949991 9.7,91.75 C9.766667,93.550009 9.9499985,95.2333255 10.25,96.8 C10.5500015,98.4333415 11.0249968,99.9583263 11.675,101.375 C12.3250033,102.791674 13.1583282,104.016661 14.175,105.05 C15.1916717,106.083338 16.3916598,106.891664 17.775,107.475 C19.1583403,108.058336 20.7333245,108.35 22.5,108.35 C23.2000035,108.35 23.8666635,108.358333 24.5,108.375 C25.1333365,108.391667 25.749997,108.183335 26.35,107.75 C26.5833345,107.583332 26.833332,107.108337 27.1,106.325 C27.366668,105.541663 27.6416652,104.666672 27.925,103.7 C28.2083347,102.733328 28.4666655,101.800005 28.7,100.9 C28.9333345,99.9999955 29.116666,99.3666685 29.25,99 C29.316667,98.866666 29.3666665,98.7750003 29.4,98.725 C29.4333335,98.6749997 29.5333325,98.65 29.7,98.65 L31.15,98.65 C31.483335,98.65 31.65,98.816665 31.65,99.15 L31.65,107 C31.65,107.266668 31.416669,107.516665 30.95,107.75 C30.483331,107.983335 29.8916702,108.199999 29.175,108.4 C28.4583297,108.600001 27.6750043,108.783333 26.825,108.95 C25.9749957,109.116668 25.150004,109.25 24.35,109.35 C23.549996,109.45 22.8333365,109.533333 22.2,109.6 C21.5666635,109.666667 21.116668,109.7 20.85,109.7 C17.9499855,109.7 15.3166785,109.250004 12.95,108.35 C10.5833215,107.449995 8.55834175,106.158342 6.875,104.475 C5.19165825,102.791658 3.9000045,100.766679 3,98.4 C2.0999955,96.0333215 1.65,93.4000145 1.65,90.5 C1.65,87.566652 2.12499525,84.9166785 3.075,82.55 C4.02500475,80.1833215 5.35832475,78.166675 7.075,76.5 C8.79167525,74.833325 10.849988,73.5500045 13.25,72.65 C15.650012,71.7499955 18.2999855,71.3 21.2,71.3 C21.5666685,71.3 22.2999945,71.3583327 23.4,71.475 C24.5000055,71.5916673 25.6416608,71.7583322 26.825,71.975 C28.0083392,72.1916677 29.0583287,72.4416653 29.975,72.725 C30.8916712,73.0083348 31.35,73.316665 31.35,73.65 L31.35,81.85 Z M55.65,109.3 C55.249998,109.166666 54.8333355,108.950001 54.4,108.65 C53.9666645,108.349998 53.5666685,108.000002 53.2,107.6 C52.8333315,107.199998 52.5250012,106.775002 52.275,106.325 C52.0249988,105.874998 51.9,105.433335 51.9,105 L51.9,104 L52.05,94.2 C52.05,93.933332 51.916668,93.7500005 51.65,93.65 C51.449999,93.583333 51.2000015,93.5666665 50.9,93.6 C50.5999985,93.6333335 50.2916683,93.6999995 49.975,93.8 C49.6583318,93.9000005 49.3500015,93.9999995 49.05,94.1 C48.7499985,94.2000005 48.5166675,94.2999995 48.35,94.4 C46.3166565,95.400005 44.866671,96.966656 44,99.1 C43.666665,99.8666705 43.4583337,100.691662 43.375,101.575 C43.2916663,102.458338 43.3749988,103.28333 43.625,104.05 C43.8750012,104.81667 44.299997,105.449997 44.9,105.95 C45.500003,106.450002 46.333328,106.7 47.4,106.7 C47.533334,106.7 47.7916647,106.641667 48.175,106.525 C48.5583353,106.408333 48.9333315,106.308334 49.3,106.225 C49.6666685,106.141666 49.9583323,106.116667 50.175,106.15 C50.3916678,106.183334 50.4166675,106.366665 50.25,106.7 C49.8166645,107.533338 49.0916718,108.158331 48.075,108.575 C47.0583283,108.991669 45.9583392,109.225 44.775,109.275 C43.5916607,109.325 42.4416723,109.225001 41.325,108.975 C40.2083277,108.724999 39.31667,108.333336 38.65,107.8 C37.8833295,107.199997 37.366668,106.483338 37.1,105.65 C36.833332,104.816663 36.7,103.933338 36.7,103 C36.7,101.533326 37.066663,100.275005 37.8,99.225 C38.533337,98.1749947 39.466661,97.283337 40.6,96.55 C41.733339,95.816663 42.9583267,95.2333355 44.275,94.8 C45.5916732,94.3666645 46.849994,94.016668 48.05,93.75 C48.250001,93.7166665 48.516665,93.6750002 48.85,93.625 C49.183335,93.5749998 49.5333315,93.516667 49.9,93.45 C50.2666685,93.383333 50.6083318,93.316667 50.925,93.25 C51.2416682,93.183333 51.466666,93.116667 51.6,93.05 C51.9666685,92.8833325 52.1416668,92.6083352 52.125,92.225 C52.1083332,91.8416648 52.1,91.5000015 52.1,91.2 L52.1,89.35 C52.1,88.68333 52.066667,88.0083368 52,87.325 C51.933333,86.6416632 51.8083343,85.9916698 51.625,85.375 C51.4416657,84.7583302 51.1666685,84.2000025 50.8,83.7 C50.2999975,82.9999965 49.616671,82.65 48.75,82.65 C48.549999,82.65 48.2416688,82.6416668 47.825,82.625 C47.4083312,82.6083332 46.9833355,82.6 46.55,82.6 C46.1166645,82.6 45.7166685,82.6166665 45.35,82.65 C44.9833315,82.6833335 44.733334,82.733333 44.6,82.8 C44.466666,82.866667 44.3833335,83.1083312 44.35,83.525 C44.3166665,83.9416687 44.2750002,84.449997 44.225,85.05 C44.1749997,85.650003 44.0916673,86.2749968 43.975,86.925 C43.8583328,87.5750033 43.666668,88.1833305 43.4,88.75 C43.133332,89.3166695 42.7583358,89.7833315 42.275,90.15 C41.7916642,90.5166685 41.1666705,90.7 40.4,90.7 C39.533329,90.7 38.8750022,90.4916688 38.425,90.075 C37.9749978,89.6583313 37.7083337,89.1416698 37.625,88.525 C37.5416663,87.9083303 37.6166655,87.26667 37.85,86.6 C38.0833345,85.93333 38.433331,85.3500025 38.9,84.85 C39.5333365,84.18333 40.2583292,83.6333355 41.075,83.2 C41.8916708,82.7666645 42.766662,82.4333345 43.7,82.2 C44.633338,81.9666655 45.5749953,81.8083337 46.525,81.725 C47.4750048,81.6416662 48.383329,81.6 49.25,81.6 C49.716669,81.6 50.183331,81.6083332 50.65,81.625 C51.116669,81.6416668 51.583331,81.65 52.05,81.65 C53.050005,81.65 53.9916622,81.8666645 54.875,82.3 C55.7583378,82.7333355 56.5249968,83.3083297 57.175,84.025 C57.8250033,84.7416702 58.3333315,85.566662 58.7,86.5 C59.0666685,87.433338 59.25,88.3833285 59.25,89.35 L59.25,106 C59.25,106.233335 59.3249993,106.424999 59.475,106.575 C59.6250008,106.725001 59.7833325,106.849999 59.95,106.95 C60.2500015,107.150001 60.5083322,107.275 60.725,107.325 C60.9416677,107.375 61.1416658,107.383333 61.325,107.35 C61.5083342,107.316666 61.699999,107.25 61.9,107.15 C62.100001,107.05 62.3499985,106.95 62.65,106.85 C62.916668,106.75 63.1083328,106.7 63.225,106.7 C63.3416673,106.7 63.366667,106.883331 63.3,107.25 C63.2666665,107.416668 63.2000005,107.566666 63.1,107.7 C62.9999995,107.833334 62.9000005,107.949999 62.8,108.05 C62.399998,108.450002 61.9083363,108.741666 61.325,108.925 C60.7416638,109.108334 60.1333365,109.233333 59.5,109.3 C58.8666635,109.366667 58.2333365,109.391667 57.6,109.375 C56.9666635,109.358333 56.383336,109.35 55.85,109.35 C55.7499995,109.35 55.6833335,109.333333 55.65,109.3 Z M66.75,108.65 C66.483332,108.65 66.35,108.516668 66.35,108.25 C66.35,107.949999 66.5249982,107.8 66.875,107.8 C67.2250018,107.8 67.6083312,107.825 68.025,107.875 C68.4416687,107.925 68.8249983,107.933334 69.175,107.9 C69.5250018,107.866667 69.7,107.683335 69.7,107.35 L69.7,71.65 C69.7,71.316665 69.533335,71.15 69.2,71.15 L66.75,71.15 C66.483332,71.15 66.35,71.016668 66.35,70.75 C66.35,70.483332 66.483332,70.316667 66.75,70.25 L76.6,68.25 C77.000002,68.1499995 77.2,68.3166645 77.2,68.75 L77.2,107.15 C77.2,107.316668 77.2749992,107.474999 77.425,107.625 C77.5750007,107.775001 77.7333325,107.85 77.9,107.85 L80.1,107.85 C80.366668,107.85 80.533333,107.983332 80.6,108.25 C80.666667,108.516668 80.5166685,108.65 80.15,108.65 L66.75,108.65 Z M102.6,91.75 C102.633333,91.7166665 102.65,91.6500005 102.65,91.55 C102.65,90.7833295 102.666667,90.0416703 102.7,89.325 C102.733333,88.6083297 102.666668,87.8666705 102.5,87.1 C102.233332,85.833327 101.750004,84.7750042 101.05,83.925 C100.349996,83.0749957 99.300007,82.65 97.9,82.65 C96.7999945,82.65 95.883337,83.049996 95.15,83.85 C94.4499965,84.5500035 93.9083352,85.3916618 93.525,86.375 C93.1416648,87.3583382 92.8583342,88.383328 92.675,89.45 C92.4916658,90.516672 92.3833335,91.583328 92.35,92.65 C92.3166665,93.716672 92.3,94.716662 92.3,95.65 C92.3,97.0166735 92.5083312,98.3499935 92.925,99.65 C93.3416688,100.950006 93.949996,102.133328 94.75,103.2 C95.3833365,104.033338 96.1249957,104.73333 96.975,105.3 C97.8250043,105.86667 98.7249953,106.266665 99.675,106.5 C100.625005,106.733335 101.608328,106.800001 102.625,106.7 C103.641672,106.599999 104.616662,106.300003 105.55,105.8 C106.016669,105.533332 106.449998,105.250001 106.85,104.95 C107.250002,104.649999 107.683331,104.366668 108.15,104.1 C108.416668,103.933333 108.616666,103.841667 108.75,103.825 C108.883334,103.808333 108.933334,104.016664 108.9,104.45 C108.866667,104.783335 108.725001,105.124998 108.475,105.475 C108.224999,105.825002 107.983334,106.116666 107.75,106.35 C106.883329,107.150004 105.816673,107.791664 104.55,108.275 C103.283327,108.758336 101.950007,109.074999 100.55,109.225 C99.149993,109.375001 97.7666735,109.375001 96.4,109.225 C95.0333265,109.074999 93.816672,108.783336 92.75,108.35 C90.616656,107.483329 88.9083397,106.225008 87.625,104.575 C86.3416603,102.924992 85.466669,101.108343 85,99.125 C84.533331,97.1416567 84.4749982,95.116677 84.825,93.05 C85.1750017,90.983323 85.916661,89.1083418 87.05,87.425 C88.183339,85.7416583 89.7083237,84.3583388 91.625,83.275 C93.5416763,82.1916612 95.83332,81.65 98.5,81.65 C100.233342,81.65 101.858326,81.9249972 103.375,82.475 C104.891674,83.0250027 106.183328,84.0166595 107.25,85.45 C107.650002,85.983336 108.016665,86.6333295 108.35,87.4 C108.683335,88.1666705 108.958332,88.9666625 109.175,89.8 C109.391668,90.6333375 109.558333,91.4666625 109.675,92.3 C109.791667,93.1333375 109.816667,93.8666635 109.75,94.5 C109.716666,94.6666675 109.675,94.7916662 109.625,94.875 C109.575,94.9583338 109.450001,95 109.25,95 L94.3,95 C94.099999,95 93.9416673,94.9500005 93.825,94.85 C93.7083327,94.7499995 93.65,94.633334 93.65,94.5 C93.65,94.366666 93.7083327,94.2500005 93.825,94.15 C93.9416673,94.0499995 94.1499985,94 94.45,94 L99.65,94 C100.450004,94 101.066665,93.800002 101.5,93.4 C101.933335,92.999998 102.299999,92.4500035 102.6,91.75 Z M124.75,107.5 C124.916668,107.566667 125.141665,107.625 125.425,107.675 L126.275,107.825 C126.558335,107.875 126.799999,107.933333 127,108 C127.200001,108.066667 127.3,108.166666 127.3,108.3 C127.3,108.533335 127.200001,108.65 127,108.65 L114.35,108.65 C114.083332,108.65 113.95,108.516668 113.95,108.25 C113.95,107.983332 114.108332,107.841667 114.425,107.825 C114.741668,107.808333 115.083331,107.816666 115.45,107.85 C115.816668,107.883333 116.158332,107.883333 116.475,107.85 C116.791668,107.816666 116.95,107.650002 116.95,107.35 L116.95,85.65 C116.95,85.316665 116.783335,85.15 116.45,85.15 L113.75,85.15 C113.616666,85.15 113.55,85.1083337 113.55,85.025 L113.55,84.8 C113.616667,84.666666 113.683333,84.5833335 113.75,84.55 C113.783334,84.4499995 113.883332,84.366667 114.05,84.3 L122.9,81.65 C123.366669,81.516666 123.716665,81.5999985 123.95,81.9 C124.183335,82.2000015 124.341666,82.583331 124.425,83.05 C124.508334,83.516669 124.533334,83.9999975 124.5,84.5 C124.466666,85.0000025 124.433334,85.383332 124.4,85.65 C124.366666,85.8166675 124.383333,86.0166655 124.45,86.25 C124.516667,86.4833345 124.583333,86.666666 124.65,86.8 L124.65,107.3 L124.75,107.5 Z M126.1,86.25 C125.833332,86.316667 125.658334,86.2916672 125.575,86.175 C125.491666,86.0583327 125.516666,85.8833345 125.65,85.65 L126.7,84.6 C127.833339,83.533328 128.933328,82.7750023 130,82.325 C131.066672,81.8749978 132.383325,81.65 133.95,81.65 C134.916672,81.65 135.874995,81.7999985 136.825,82.1 C137.775005,82.4000015 138.616663,82.8333305 139.35,83.4 C140.083337,83.9666695 140.674998,84.6666625 141.125,85.5 C141.575002,86.3333375 141.8,87.283328 141.8,88.35 L141.8,107.35 C141.8,107.583334 141.949998,107.716666 142.25,107.75 C142.550002,107.783334 142.883331,107.8 143.25,107.8 C143.616669,107.8 143.966665,107.825 144.3,107.875 C144.633335,107.925 144.849999,108.049999 144.95,108.25 C145.016667,108.416668 145,108.525 144.9,108.575 C144.8,108.625 144.683334,108.65 144.55,108.65 L131.7,108.65 C131.433332,108.65 131.3,108.516668 131.3,108.25 C131.3,107.983332 131.458332,107.841667 131.775,107.825 C132.091668,107.808333 132.433332,107.816666 132.8,107.85 C133.166669,107.883333 133.508332,107.883333 133.825,107.85 C134.141668,107.816666 134.3,107.650002 134.3,107.35 L134.3,88.35 C134.3,87.416662 134.116669,86.683336 133.75,86.15 C133.383331,85.616664 132.908336,85.2333345 132.325,85 C131.741664,84.7666655 131.09167,84.6749997 130.375,84.725 C129.65833,84.7750003 128.933337,84.9166655 128.2,85.15 C127.999999,85.216667 127.791668,85.2999995 127.575,85.4 C127.358332,85.5000005 127.150001,85.616666 126.95,85.75 L126.35,86.05 C126.25,86.1500005 126.166667,86.2166665 126.1,86.25 Z M174.65,68.4 C174.816667,68.266666 174.991666,68.2583328 175.175,68.375 C175.358334,68.4916672 175.45,68.649999 175.45,68.85 L175.45,107.35 C175.45,107.683335 175.608332,107.858333 175.925,107.875 C176.241668,107.891667 176.583331,107.883333 176.95,107.85 C177.316668,107.816666 177.658332,107.808333 177.975,107.825 C178.291668,107.841667 178.45,108.016665 178.45,108.35 C178.45,108.550001 178.350001,108.666667 178.15,108.7 C178.016666,108.766667 177.491671,108.841666 176.575,108.925 C175.658329,109.008334 174.658339,109.083333 173.575,109.15 C172.491661,109.216667 171.491671,109.275 170.575,109.325 C169.658329,109.375 169.116667,109.383333 168.95,109.35 C168.649999,109.316666 168.425001,109.200001 168.275,109 C168.124999,108.799999 168.025,108.566668 167.975,108.3 C167.925,108.033332 167.9,107.758335 167.9,107.475 L167.9,106.7 C167.9,106.466665 167.883333,106.241668 167.85,106.025 C167.816666,105.808332 167.8,105.583334 167.8,105.35 L167.8,85.65 C167.8,85.3499985 167.641668,85.1166675 167.325,84.95 C167.008332,84.7833325 166.650002,84.6500005 166.25,84.55 C165.849998,84.4499995 165.441669,84.3833335 165.025,84.35 C164.608331,84.3166665 164.300001,84.3 164.1,84.3 C163.43333,84.3 162.775003,84.3749992 162.125,84.525 C161.474997,84.6750007 160.866669,84.949998 160.3,85.35 C159.53333,85.883336 158.916669,86.549996 158.45,87.35 C157.983331,88.150004 157.625001,89.0083288 157.375,89.925 C157.124999,90.8416712 156.958334,91.7833285 156.875,92.75 C156.791666,93.7166715 156.75,94.633329 156.75,95.5 C156.75,96.366671 156.791666,97.266662 156.875,98.2 C156.958334,99.133338 157.116665,100.049996 157.35,100.95 C157.583334,101.850005 157.924998,102.708329 158.375,103.525 C158.825002,104.341671 159.399997,105.033331 160.1,105.6 C160.86667,106.233337 161.674996,106.575 162.525,106.625 C163.375004,106.675 164.266662,106.666667 165.2,106.6 C165.76667,106.533333 166.025,106.616666 165.975,106.85 C165.925,107.083334 165.750002,107.383331 165.45,107.75 C165.316666,107.883334 165.150001,108.016666 164.95,108.15 C164.583331,108.450001 164.200002,108.724999 163.8,108.975 C163.399998,109.225001 162.950002,109.35 162.45,109.35 L157.45,109.35 C155.916659,109.35 154.608339,108.866671 153.525,107.9 C152.441661,106.933329 151.550004,105.750007 150.85,104.35 C150.149997,102.949993 149.633335,101.458341 149.3,99.875 C148.966665,98.2916588 148.8,96.8833395 148.8,95.65 C148.8,93.849991 149.049998,92.1083418 149.55,90.425 C150.050003,88.7416583 150.791662,87.2500065 151.775,85.95 C152.758338,84.6499935 153.991659,83.600004 155.475,82.8 C156.958341,81.999996 158.683323,81.6 160.65,81.6 C161.083335,81.6 161.499998,81.5916668 161.9,81.575 C162.300002,81.5583333 162.716664,81.583333 163.15,81.65 C163.81667,81.716667 164.474997,81.983331 165.125,82.45 C165.775003,82.916669 166.366664,83.349998 166.9,83.75 C167,83.816667 167.116666,83.8999995 167.25,84 C167.383334,84.1000005 167.516666,84.183333 167.65,84.25 C167.916668,84.383334 168.158332,84.4250003 168.375,84.375 C168.591668,84.3249997 168.733333,84.1500015 168.8,83.85 C168.833333,83.6833325 168.841667,83.4250017 168.825,83.075 C168.808333,82.7249982 168.791667,82.3583352 168.775,81.975 C168.758333,81.5916648 168.725,81.2083353 168.675,80.825 C168.625,80.4416647 168.6,80.150001 168.6,79.95 C168.5,78.5833265 168.400001,77.2250068 168.3,75.875 C168.199999,74.5249932 168.15,73.1666735 168.15,71.8 C168.15,71.733333 168.116667,71.633334 168.05,71.5 C167.916666,71.2666655 167.750001,71.15 167.55,71.15 L164.7,71.15 C164.599999,71.15 164.5,71.116667 164.4,71.05 C164.3,70.983333 164.225,70.9000005 164.175,70.8 C164.125,70.6999995 164.108333,70.6083337 164.125,70.525 C164.141667,70.4416663 164.216666,70.3833335 164.35,70.35 L174.65,68.4 Z M201.7,109.3 C201.299998,109.166666 200.883335,108.950001 200.45,108.65 C200.016664,108.349998 199.616669,108.000002 199.25,107.6 C198.883331,107.199998 198.575001,106.775002 198.325,106.325 C198.074999,105.874998 197.95,105.433335 197.95,105 L197.95,104 L198.1,94.2 C198.1,93.933332 197.966668,93.7500005 197.7,93.65 C197.499999,93.583333 197.250002,93.5666665 196.95,93.6 C196.649999,93.6333335 196.341668,93.6999995 196.025,93.8 C195.708332,93.9000005 195.400001,93.9999995 195.1,94.1 C194.799998,94.2000005 194.566667,94.2999995 194.4,94.4 C192.366656,95.400005 190.916671,96.966656 190.05,99.1 C189.716665,99.8666705 189.508334,100.691662 189.425,101.575 C189.341666,102.458338 189.424999,103.28333 189.675,104.05 C189.925001,104.81667 190.349997,105.449997 190.95,105.95 C191.550003,106.450002 192.383328,106.7 193.45,106.7 C193.583334,106.7 193.841665,106.641667 194.225,106.525 C194.608335,106.408333 194.983332,106.308334 195.35,106.225 C195.716668,106.141666 196.008332,106.116667 196.225,106.15 C196.441668,106.183334 196.466667,106.366665 196.3,106.7 C195.866664,107.533338 195.141672,108.158331 194.125,108.575 C193.108328,108.991669 192.008339,109.225 190.825,109.275 C189.641661,109.325 188.491672,109.225001 187.375,108.975 C186.258328,108.724999 185.36667,108.333336 184.7,107.8 C183.93333,107.199997 183.416668,106.483338 183.15,105.65 C182.883332,104.816663 182.75,103.933338 182.75,103 C182.75,101.533326 183.116663,100.275005 183.85,99.225 C184.583337,98.1749947 185.516661,97.283337 186.65,96.55 C187.783339,95.816663 189.008327,95.2333355 190.325,94.8 C191.641673,94.3666645 192.899994,94.016668 194.1,93.75 C194.300001,93.7166665 194.566665,93.6750002 194.9,93.625 C195.233335,93.5749998 195.583331,93.516667 195.95,93.45 C196.316668,93.383333 196.658332,93.316667 196.975,93.25 C197.291668,93.183333 197.516666,93.116667 197.65,93.05 C198.016668,92.8833325 198.191667,92.6083352 198.175,92.225 C198.158333,91.8416648 198.15,91.5000015 198.15,91.2 L198.15,89.35 C198.15,88.68333 198.116667,88.0083368 198.05,87.325 C197.983333,86.6416632 197.858334,85.9916698 197.675,85.375 C197.491666,84.7583302 197.216668,84.2000025 196.85,83.7 C196.349997,82.9999965 195.666671,82.65 194.8,82.65 C194.599999,82.65 194.291669,82.6416668 193.875,82.625 C193.458331,82.6083332 193.033336,82.6 192.6,82.6 C192.166665,82.6 191.766668,82.6166665 191.4,82.65 C191.033332,82.6833335 190.783334,82.733333 190.65,82.8 C190.516666,82.866667 190.433334,83.1083312 190.4,83.525 C190.366666,83.9416687 190.325,84.449997 190.275,85.05 C190.225,85.650003 190.141667,86.2749968 190.025,86.925 C189.908333,87.5750033 189.716668,88.1833305 189.45,88.75 C189.183332,89.3166695 188.808336,89.7833315 188.325,90.15 C187.841664,90.5166685 187.21667,90.7 186.45,90.7 C185.583329,90.7 184.925002,90.4916688 184.475,90.075 C184.024998,89.6583313 183.758334,89.1416698 183.675,88.525 C183.591666,87.9083303 183.666665,87.26667 183.9,86.6 C184.133335,85.93333 184.483331,85.3500025 184.95,84.85 C185.583336,84.18333 186.308329,83.6333355 187.125,83.2 C187.941671,82.7666645 188.816662,82.4333345 189.75,82.2 C190.683338,81.9666655 191.624995,81.8083337 192.575,81.725 C193.525005,81.6416662 194.433329,81.6 195.3,81.6 C195.766669,81.6 196.233331,81.6083332 196.7,81.625 C197.166669,81.6416668 197.633331,81.65 198.1,81.65 C199.100005,81.65 200.041662,81.8666645 200.925,82.3 C201.808338,82.7333355 202.574997,83.3083297 203.225,84.025 C203.875003,84.7416702 204.383331,85.566662 204.75,86.5 C205.116669,87.433338 205.3,88.3833285 205.3,89.35 L205.3,106 C205.3,106.233335 205.374999,106.424999 205.525,106.575 C205.675001,106.725001 205.833332,106.849999 206,106.95 C206.300002,107.150001 206.558332,107.275 206.775,107.325 C206.991668,107.375 207.191666,107.383333 207.375,107.35 C207.558334,107.316666 207.749999,107.25 207.95,107.15 C208.150001,107.05 208.399999,106.95 208.7,106.85 C208.966668,106.75 209.158333,106.7 209.275,106.7 C209.391667,106.7 209.416667,106.883331 209.35,107.25 C209.316666,107.416668 209.25,107.566666 209.15,107.7 C209.05,107.833334 208.95,107.949999 208.85,108.05 C208.449998,108.450002 207.958336,108.741666 207.375,108.925 C206.791664,109.108334 206.183336,109.233333 205.55,109.3 C204.916664,109.366667 204.283337,109.391667 203.65,109.375 C203.016664,109.358333 202.433336,109.35 201.9,109.35 C201.8,109.35 201.733333,109.333333 201.7,109.3 Z M227.6,108 C227.666667,108.133334 227.716666,108.274999 227.75,108.425 C227.783334,108.575001 227.683335,108.65 227.45,108.65 L212.8,108.65 C212.533332,108.65 212.4,108.516668 212.4,108.25 C212.4,107.983332 212.558332,107.841667 212.875,107.825 C213.191668,107.808333 213.533332,107.816666 213.9,107.85 C214.266668,107.883333 214.608332,107.883333 214.925,107.85 C215.241668,107.816666 215.4,107.650002 215.4,107.35 L215.4,85.65 C215.4,85.316665 215.216668,85.1416668 214.85,85.125 C214.483331,85.1083332 214.075002,85.1166665 213.625,85.15 C213.174998,85.1833335 212.775002,85.2 212.425,85.2 C212.074998,85.2 211.933333,85.066668 212,84.8 C212.066667,84.666666 212.133333,84.5833335 212.2,84.55 C212.233333,84.4499995 212.333332,84.366667 212.5,84.3 L221.35,81.65 C221.516668,81.583333 221.724999,81.5749997 221.975,81.625 C222.225001,81.6750002 222.399999,81.7833325 222.5,81.95 C222.6,82.1166675 222.675,82.433331 222.725,82.9 C222.775,83.366669 222.816666,83.8916638 222.85,84.475 C222.883333,85.0583363 222.908333,85.616664 222.925,86.15 C222.941667,86.683336 222.983333,87.0666655 223.05,87.3 C223.083333,87.4666675 223.108333,87.5666665 223.125,87.6 C223.141667,87.6333335 223.233332,87.6666665 223.4,87.7 C223.733335,87.7333335 224.116664,87.4333365 224.55,86.8 C224.983335,86.1666635 225.50833,85.4666705 226.125,84.7 C226.74167,83.9333295 227.474996,83.2250032 228.325,82.575 C229.175004,81.9249967 230.183327,81.6 231.35,81.6 C231.883336,81.6 232.416664,81.6583327 232.95,81.775 C233.483336,81.8916673 233.958331,82.083332 234.375,82.35 C234.791669,82.616668 235.124999,82.9666645 235.375,83.4 C235.625001,83.8333355 235.75,84.3666635 235.75,85 C235.75,87.2333445 234.633345,88.35 232.4,88.35 C231.933331,88.35 231.516668,88.316667 231.15,88.25 C230.783332,88.183333 230.416669,88.016668 230.05,87.75 L229.575,87.275 C229.358332,87.0583323 229.133334,86.8250013 228.9,86.575 C228.666666,86.3249988 228.458334,86.100001 228.275,85.9 C228.091666,85.699999 227.966667,85.6 227.9,85.6 C227.633332,85.533333 227.383335,85.5499995 227.15,85.65 C226.649997,85.8166675 226.150003,86.2166635 225.65,86.85 C225.149997,87.4833365 224.708335,88.199996 224.325,89 C223.941665,89.800004 223.633334,90.599996 223.4,91.4 C223.166666,92.200004 223.05,92.8499975 223.05,93.35 L223.05,106.8 C223.05,106.966667 223.166666,107.183332 223.4,107.45 C223.633334,107.716668 223.833332,107.85 224,107.85 L227.4,107.85 L227.6,108 Z" id="logo4" fill="#000000"></path>
    </g>
</svg>