<?xml version="1.0" encoding="UTF-8"?>
<svg width="284px" height="101px" viewBox="0 0 284 101" version="1.1" xmlns="http://www.w3.org/2000/svg" xmlns:xlink="http://www.w3.org/1999/xlink">
    <!-- Generator: Sketch 48.2 (47327) - http://www.bohemiancoding.com/sketch -->
    <title>logo9</title>
    <desc>Created with Sketch.</desc>
    <defs></defs>
    <g id="Page-1" stroke="none" stroke-width="1" fill="none" fill-rule="evenodd">
        <path d="M13,2.1 L11.2,2.1 C9.9666605,2.1 8.8666715,2.22499875 7.9,2.475 C6.9333285,2.72500125 6.0666705,3.15833025 5.3,3.775 C4.5333295,4.39166975 3.850003,5.2499945 3.25,6.35 C2.649997,7.4500055 2.1000025,8.8499915 1.6,10.55 L0.95,10.55 L0.95,1.4 L32.3,1.4 L32.3,10.55 L31.65,10.55 C31.1499975,8.8499915 30.600003,7.4500055 30,6.35 C29.399997,5.2499945 28.7166705,4.39166975 27.95,3.775 C27.1833295,3.15833025 26.3166715,2.72500125 25.35,2.475 C24.3833285,2.22499875 23.2833395,2.1 22.05,2.1 L20.25,2.1 L20.25,36.3 L24.85,36.3 L24.85,37 L8.4,37 L8.4,36.3 L13,36.3 L13,2.1 Z M41.95,30.7 L48.3,16.25 L44.15,16.25 L44.15,15.55 L51.4,15.55 L51.4,16.25 L49.1,16.25 C47.233324,20.25002 45.63334,23.8333175 44.3,27 C42.96666,30.1666825 41.8083383,32.983321 40.825,35.45 C39.8416618,37.916679 38.9750037,40.0916573 38.225,41.975 C37.4749963,43.8583428 36.76667,45.5166595 36.1,46.95 C35.43333,48.4500075 34.6833375,49.5499965 33.85,50.25 C33.0166625,50.9500035 31.900007,51.3 30.5,51.3 C28.9999925,51.3 27.7750047,50.9416703 26.825,50.225 C25.8749952,49.5083298 25.4,48.516673 25.4,47.25 C25.4,46.2833285 25.7083302,45.5833355 26.325,45.15 C26.9416697,44.7166645 27.683329,44.5 28.55,44.5 C29.1833365,44.5 29.7833305,44.6749983 30.35,45.025 C30.9166695,45.3750018 31.2,45.8999965 31.2,46.6 C31.2,47.200003 31.0916677,47.6833315 30.875,48.05 C30.6583323,48.4166685 30.55,48.8499975 30.55,49.35 C30.55,49.7166685 30.649999,49.9916658 30.85,50.175 C31.050001,50.3583342 31.283332,50.45 31.55,50.45 C32.150003,50.45 32.7083308,50.2333355 33.225,49.8 C33.7416693,49.3666645 34.2083313,48.8250033 34.625,48.175 C35.0416687,47.5249968 35.4083318,46.833337 35.725,46.1 C36.0416682,45.366663 36.3166655,44.700003 36.55,44.1 L38.7,38.75 L29.3,16.25 L26.65,16.25 L26.65,15.55 L39.35,15.55 L39.35,16.25 L35.85,16.25 L41.95,30.7 Z M62,26.3 C62,27.3333385 62.0416662,28.4749937 62.125,29.725 C62.2083338,30.9750062 62.449998,32.1416612 62.85,33.225 C63.250002,34.3083387 63.8416628,35.2083297 64.625,35.925 C65.4083372,36.6416703 66.499993,37 67.9,37 C68.833338,37 69.5749972,36.7500025 70.125,36.25 C70.6750028,35.7499975 71.0916653,35.033338 71.375,34.1 C71.6583347,33.166662 71.8416663,32.0416733 71.925,30.725 C72.0083337,29.4083268 72.05,27.9333415 72.05,26.3 C72.05,24.29999 71.9750007,22.6083402 71.825,21.225 C71.6749992,19.8416597 71.4166685,18.7333375 71.05,17.9 C70.6833315,17.0666625 70.2166695,16.4666685 69.65,16.1 C69.0833305,15.7333315 68.366671,15.55 67.5,15.55 C66.2666605,15.55 65.283337,15.8999965 64.55,16.6 C63.816663,17.3000035 63.2666685,18.183328 62.9,19.25 C62.5333315,20.316672 62.2916672,21.483327 62.175,22.75 C62.0583327,24.016673 62,25.1999945 62,26.3 Z M55.9,16.25 L52.6,16.25 L52.6,15.55 L61.9,15.55 L61.9,19.25 L62,19.25 C63.0333385,16.316652 64.9999855,14.85 67.9,14.85 C69.833343,14.85 71.4833265,15.2249963 72.85,15.975 C74.2166735,16.7250038 75.3416623,17.666661 76.225,18.8 C77.1083378,19.933339 77.7583312,21.16666 78.175,22.5 C78.5916687,23.83334 78.8,25.0833275 78.8,26.25 C78.8,27.7500075 78.533336,29.1833265 78,30.55 C77.466664,31.9166735 76.7250048,33.1249948 75.775,34.175 C74.8249953,35.2250052 73.68334,36.0666635 72.35,36.7 C71.01666,37.3333365 69.5333415,37.65 67.9,37.65 C66.366659,37.65 65.133338,37.2333375 64.2,36.4 C63.266662,35.5666625 62.566669,34.5666725 62.1,33.4 L62,33.4 L62,50.25 L65.4,50.25 L65.4,50.95 L52.6,50.95 L52.6,50.25 L55.9,50.25 L55.9,16.25 Z M94.6,37 C95.9000065,37 96.916663,36.6916697 97.65,36.075 C98.383337,35.4583303 98.9249982,34.650005 99.275,33.65 C99.6250018,32.649995 99.8416663,31.5000065 99.925,30.2 C100.008334,28.8999935 100.05,27.58334 100.05,26.25 C100.05,24.91666 100.008334,23.6083398 99.925,22.325 C99.8416663,21.0416602 99.6250018,19.900005 99.275,18.9 C98.9249982,17.899995 98.383337,17.0916697 97.65,16.475 C96.916663,15.8583302 95.9000065,15.55 94.6,15.55 C93.2999935,15.55 92.283337,15.8583302 91.55,16.475 C90.816663,17.0916697 90.2750018,17.899995 89.925,18.9 C89.5749983,19.900005 89.3583338,21.0416602 89.275,22.325 C89.1916663,23.6083398 89.15,24.91666 89.15,26.25 C89.15,27.58334 89.1916663,28.8999935 89.275,30.2 C89.3583338,31.5000065 89.5749983,32.649995 89.925,33.65 C90.2750018,34.650005 90.816663,35.4583303 91.55,36.075 C92.283337,36.6916697 93.2999935,37 94.6,37 Z M94.6,14.85 C96.333342,14.85 97.9416593,15.1583302 99.425,15.775 C100.908341,16.3916698 102.199995,17.2166615 103.3,18.25 C104.400006,19.2833385 105.25833,20.4916598 105.875,21.875 C106.49167,23.2583402 106.8,24.716659 106.8,26.25 C106.8,27.8166745 106.49167,29.2916598 105.875,30.675 C105.25833,32.0583403 104.400006,33.2666615 103.3,34.3 C102.199995,35.3333385 100.908341,36.149997 99.425,36.75 C97.9416593,37.350003 96.333342,37.65 94.6,37.65 C92.866658,37.65 91.2583408,37.350003 89.775,36.75 C88.2916593,36.149997 87.0000055,35.3333385 85.9,34.3 C84.7999945,33.2666615 83.9416698,32.0583403 83.325,30.675 C82.7083303,29.2916598 82.4,27.8166745 82.4,26.25 C82.4,24.716659 82.7083303,23.2583402 83.325,21.875 C83.9416698,20.4916598 84.7999945,19.2833385 85.9,18.25 C87.0000055,17.2166615 88.2916593,16.3916698 89.775,15.775 C91.2583408,15.1583302 92.866658,14.85 94.6,14.85 Z M115.5,44.8 C115.5,45.400003 115.583332,46.0499965 115.75,46.75 C115.916668,47.4500035 116.233331,48.1083302 116.7,48.725 C117.166669,49.3416698 117.799996,49.849998 118.6,50.25 C119.400004,50.650002 120.433327,50.85 121.7,50.85 C122.666672,50.85 123.583329,50.683335 124.45,50.35 C125.316671,50.016665 126.074997,49.550003 126.725,48.95 C127.375003,48.349997 127.899998,47.6333375 128.3,46.8 C128.700002,45.9666625 128.9,45.050005 128.9,44.05 C128.9,43.049995 128.733335,42.2416698 128.4,41.625 C128.066665,41.0083302 127.650003,40.5166685 127.15,40.15 C126.649997,39.7833315 126.100003,39.533334 125.5,39.4 C124.899997,39.266666 124.350002,39.2 123.85,39.2 L118.65,39.2 C117.649995,40.000004 116.875003,40.799996 116.325,41.6 C115.774997,42.400004 115.5,43.46666 115.5,44.8 Z M121.3,28.65 C121.900003,28.65 122.433331,28.5750007 122.9,28.425 C123.366669,28.2749993 123.766665,27.9750022 124.1,27.525 C124.433335,27.0749977 124.691666,26.4250043 124.875,25.575 C125.058334,24.7249958 125.15,23.6166735 125.15,22.25 C125.15,21.2833285 125.116667,20.3916708 125.05,19.575 C124.983333,18.7583292 124.816668,18.050003 124.55,17.45 C124.283332,16.849997 123.900003,16.383335 123.4,16.05 C122.899998,15.716665 122.200004,15.55 121.3,15.55 C120.466662,15.55 119.783336,15.7249982 119.25,16.075 C118.716664,16.4250017 118.308335,16.8833305 118.025,17.45 C117.741665,18.0166695 117.550001,18.666663 117.45,19.4 C117.349999,20.133337 117.3,20.8833295 117.3,21.65 C117.3,23.2166745 117.399999,24.466662 117.6,25.4 C117.800001,26.333338 118.074998,27.0416642 118.425,27.525 C118.775002,28.0083358 119.199998,28.316666 119.7,28.45 C120.200002,28.583334 120.73333,28.65 121.3,28.65 Z M122.8,33.45 C124.066673,33.45 125.274994,33.5749987 126.425,33.825 C127.575006,34.0750013 128.583329,34.499997 129.45,35.1 C130.316671,35.700003 131.016664,36.5083282 131.55,37.525 C132.083336,38.5416717 132.35,39.816659 132.35,41.35 C132.35,42.6500065 132.083336,43.9166605 131.55,45.15 C131.016664,46.3833395 130.233339,47.4833285 129.2,48.45 C128.166662,49.4166715 126.925007,50.199997 125.475,50.8 C124.024993,51.400003 122.366676,51.7 120.5,51.7 C118.39999,51.7 116.725006,51.466669 115.475,51 C114.224994,50.533331 113.26667,49.9750032 112.6,49.325 C111.93333,48.6749967 111.500001,48.0083368 111.3,47.325 C111.099999,46.6416632 111,46.066669 111,45.6 C111,44.6999955 111.199998,43.9000035 111.6,43.2 C112.000002,42.4999965 112.524997,41.8916692 113.175,41.375 C113.825003,40.8583308 114.541663,40.4166685 115.325,40.05 C116.108337,39.6833315 116.88333,39.400001 117.65,39.2 L117.65,39.1 C116.98333,39.1 116.225004,39.0166675 115.375,38.85 C114.524996,38.6833325 113.733337,38.400002 113,38 C112.266663,37.599998 111.650003,37.0500035 111.15,36.35 C110.649998,35.6499965 110.4,34.7833385 110.4,33.75 C110.4,33.5833325 110.441666,33.2833355 110.525,32.85 C110.608334,32.4166645 110.799999,31.9083363 111.1,31.325 C111.400002,30.7416638 111.85833,30.1333365 112.475,29.5 C113.09167,28.8666635 113.916662,28.2666695 114.95,27.7 C114.649998,27.4666655 114.316668,27.1916683 113.95,26.875 C113.583331,26.5583317 113.241668,26.1916687 112.925,25.775 C112.608332,25.3583312 112.341668,24.8750028 112.125,24.325 C111.908332,23.7749972 111.8,23.133337 111.8,22.4 C111.8,21.3666615 112.024998,20.3916712 112.475,19.475 C112.925002,18.5583287 113.566663,17.7583368 114.4,17.075 C115.233338,16.3916632 116.258327,15.850002 117.475,15.45 C118.691673,15.049998 120.049993,14.85 121.55,14.85 C123.050007,14.85 124.341661,15.083331 125.425,15.55 C126.508339,16.016669 127.43333,16.549997 128.2,17.15 C129.033338,16.3833295 129.78333,15.8083353 130.45,15.425 C131.11667,15.0416647 131.999994,14.85 133.1,14.85 C134.066671,14.85 134.791664,15.0916643 135.275,15.575 C135.758336,16.0583357 136,16.6833295 136,17.45 C136,18.11667 135.800002,18.6416648 135.4,19.025 C134.999998,19.4083352 134.46667,19.6 133.8,19.6 C133.333331,19.6 132.958335,19.533334 132.675,19.4 C132.391665,19.266666 132.175001,19.1083342 132.025,18.925 C131.874999,18.7416658 131.775,18.5416677 131.725,18.325 C131.675,18.1083322 131.633333,17.933334 131.6,17.8 C131.533333,17.333331 131.466667,16.9833345 131.4,16.75 C131.333333,16.5166655 131.116669,16.4 130.75,16.4 C130.549999,16.4 130.316668,16.4749992 130.05,16.625 C129.783332,16.7750008 129.31667,17.083331 128.65,17.55 C129.050002,17.9833355 129.483331,18.5583297 129.95,19.275 C130.416669,19.9916702 130.65,21.0333265 130.65,22.4 C130.65,23.2333375 130.491668,24.0583293 130.175,24.875 C129.858332,25.6916707 129.34167,26.43333 128.625,27.1 C127.90833,27.76667 126.983339,28.3083313 125.85,28.725 C124.716661,29.1416688 123.316675,29.35 121.65,29.35 C120.31666,29.35 119.133339,29.216668 118.1,28.95 C117.066662,28.683332 116.21667,28.416668 115.55,28.15 C114.583328,28.7833365 114.016667,29.3249977 113.85,29.775 C113.683333,30.2250022 113.6,30.6333315 113.6,31 C113.6,31.8333375 113.93333,32.449998 114.6,32.85 C115.26667,33.250002 116.166661,33.45 117.3,33.45 L122.8,33.45 Z M137.4,15.55 L146.65,15.55 L146.65,19.75 L146.75,19.75 C147.350003,18.483327 148.158328,17.3916712 149.175,16.475 C150.191672,15.5583287 151.533325,15.1 153.2,15.1 C154.600007,15.1 155.733329,15.4749963 156.6,16.225 C157.466671,16.9750038 157.9,18.01666 157.9,19.35 C157.9,20.350005 157.658336,21.1333305 157.175,21.7 C156.691664,22.2666695 155.916672,22.55 154.85,22.55 C154.083329,22.55 153.383336,22.3916682 152.75,22.075 C152.116663,21.7583318 151.8,21.166671 151.8,20.3 C151.8,20.1999995 151.816666,20.0250013 151.85,19.775 C151.883333,19.5249988 151.925,19.2583348 151.975,18.975 C152.025,18.6916653 152.066666,18.4333345 152.1,18.2 C152.133333,17.9666655 152.15,17.8333335 152.15,17.8 L152.125,17.6 C152.108333,17.466666 152.066667,17.3250007 152,17.175 C151.933333,17.0249993 151.825001,16.8916672 151.675,16.775 C151.524999,16.6583327 151.300002,16.6 151,16.6 C150.666665,16.6 150.250002,16.7583318 149.75,17.075 C149.249998,17.3916682 148.783336,17.849997 148.35,18.45 C147.916665,19.050003 147.541668,19.7749958 147.225,20.625 C146.908332,21.4750042 146.75,22.433328 146.75,23.5 L146.75,36.3 L150.7,36.3 L150.7,37 L137.4,37 L137.4,36.3 L140.65,36.3 L140.65,16.25 L137.4,16.25 L137.4,15.55 Z M172.8,24.6 L172.7,24.6 C172.633333,24.800001 172.508334,24.9916658 172.325,25.175 C172.141666,25.3583342 171.816669,25.5666655 171.35,25.8 C170.716663,26.1000015 170.083337,26.3916652 169.45,26.675 C168.816664,26.9583347 168.250002,27.3166645 167.75,27.75 C167.249998,28.1833355 166.841668,28.7166635 166.525,29.35 C166.208332,29.9833365 166.05,30.799995 166.05,31.8 C166.05,32.200002 166.075,32.666664 166.125,33.2 C166.175,33.733336 166.308332,34.2499975 166.525,34.75 C166.741668,35.2500025 167.066665,35.6749983 167.5,36.025 C167.933335,36.3750018 168.53333,36.55 169.3,36.55 C169.733336,36.55 170.158331,36.450001 170.575,36.25 C170.991669,36.049999 171.366665,35.7416688 171.7,35.325 C172.033335,34.9083312 172.299999,34.3583368 172.5,33.675 C172.700001,32.9916632 172.8,32.1666715 172.8,31.2 L172.8,24.6 Z M182.9,36.2 C182.433331,36.9000035 181.758338,37.316666 180.875,37.45 C179.991662,37.583334 179.166671,37.65 178.4,37.65 C176.699992,37.65 175.441671,37.350003 174.625,36.75 C173.808329,36.149997 173.300001,35.316672 173.1,34.25 L173,34.25 C172.466664,35.58334 171.733338,36.483331 170.8,36.95 C169.866662,37.416669 168.516676,37.65 166.75,37.65 C165.949996,37.65 165.133338,37.5666675 164.3,37.4 C163.466663,37.2333325 162.700004,36.9666685 162,36.6 C161.299997,36.2333315 160.733336,35.7250032 160.3,35.075 C159.866665,34.4249967 159.65,33.633338 159.65,32.7 C159.65,31.7333285 159.841665,30.9250033 160.225,30.275 C160.608335,29.6249968 161.10833,29.0750023 161.725,28.625 C162.34167,28.1749977 163.041663,27.8083347 163.825,27.525 C164.608337,27.2416652 165.416663,26.966668 166.25,26.7 C167.616674,26.299998 168.724996,25.9583347 169.575,25.675 C170.425004,25.3916652 171.083331,25.0916682 171.55,24.775 C172.016669,24.4583317 172.341666,24.100002 172.525,23.7 C172.708334,23.299998 172.8,22.7833365 172.8,22.15 L172.8,19.1 C172.8,18.1999955 172.583336,17.383337 172.15,16.65 C171.716665,15.916663 170.900006,15.55 169.7,15.55 C168.93333,15.55 168.26667,15.7249982 167.7,16.075 C167.133331,16.4250017 166.85,17.066662 166.85,18 C166.85,18.1000005 166.866667,18.2749988 166.9,18.525 C166.933334,18.7750013 166.966667,19.0499985 167,19.35 C167.033334,19.6500015 167.066667,19.933332 167.1,20.2 C167.133334,20.466668 167.15,20.6499995 167.15,20.75 C167.15,21.2500025 167.033335,21.6416652 166.8,21.925 C166.566666,22.2083347 166.291668,22.416666 165.975,22.55 C165.658332,22.683334 165.325002,22.7583332 164.975,22.775 C164.624998,22.7916667 164.333335,22.8 164.1,22.8 C163.766665,22.8 163.425002,22.7750002 163.075,22.725 C162.724998,22.6749997 162.416668,22.5583343 162.15,22.375 C161.883332,22.1916657 161.658334,21.933335 161.475,21.6 C161.291666,21.266665 161.2,20.8166695 161.2,20.25 C161.2,19.383329 161.441664,18.6083368 161.925,17.925 C162.408336,17.2416632 163.049996,16.6750023 163.85,16.225 C164.650004,15.7749978 165.558328,15.4333345 166.575,15.2 C167.591672,14.9666655 168.649995,14.85 169.75,14.85 C171.016673,14.85 172.208328,14.949999 173.325,15.15 C174.441672,15.350001 175.408329,15.716664 176.225,16.25 C177.041671,16.783336 177.691664,17.5083288 178.175,18.425 C178.658336,19.3416712 178.9,20.499993 178.9,21.9 L178.9,34.3 C178.9,34.9333365 178.991666,35.4916642 179.175,35.975 C179.358334,36.4583358 179.816663,36.7 180.55,36.7 C180.983336,36.7 181.341665,36.6166675 181.625,36.45 C181.908335,36.2833325 182.183332,36.0500015 182.45,35.75 L182.9,36.2 Z M194.45,26.3 C194.45,27.3333385 194.491666,28.4749937 194.575,29.725 C194.658334,30.9750062 194.899998,32.1416612 195.3,33.225 C195.700002,34.3083387 196.291663,35.2083297 197.075,35.925 C197.858337,36.6416703 198.949993,37 200.35,37 C201.283338,37 202.024997,36.7500025 202.575,36.25 C203.125003,35.7499975 203.541665,35.033338 203.825,34.1 C204.108335,33.166662 204.291666,32.0416733 204.375,30.725 C204.458334,29.4083268 204.5,27.9333415 204.5,26.3 C204.5,24.29999 204.425001,22.6083402 204.275,21.225 C204.124999,19.8416597 203.866669,18.7333375 203.5,17.9 C203.133331,17.0666625 202.66667,16.4666685 202.1,16.1 C201.53333,15.7333315 200.816671,15.55 199.95,15.55 C198.71666,15.55 197.733337,15.8999965 197,16.6 C196.266663,17.3000035 195.716669,18.183328 195.35,19.25 C194.983332,20.316672 194.741667,21.483327 194.625,22.75 C194.508333,24.016673 194.45,25.1999945 194.45,26.3 Z M188.35,16.25 L185.05,16.25 L185.05,15.55 L194.35,15.55 L194.35,19.25 L194.45,19.25 C195.483339,16.316652 197.449986,14.85 200.35,14.85 C202.283343,14.85 203.933327,15.2249963 205.3,15.975 C206.666674,16.7250038 207.791662,17.666661 208.675,18.8 C209.558338,19.933339 210.208331,21.16666 210.625,22.5 C211.041669,23.83334 211.25,25.0833275 211.25,26.25 C211.25,27.7500075 210.983336,29.1833265 210.45,30.55 C209.916664,31.9166735 209.175005,33.1249948 208.225,34.175 C207.274995,35.2250052 206.13334,36.0666635 204.8,36.7 C203.46666,37.3333365 201.983342,37.65 200.35,37.65 C198.816659,37.65 197.583338,37.2333375 196.65,36.4 C195.716662,35.5666625 195.016669,34.5666725 194.55,33.4 L194.45,33.4 L194.45,50.25 L197.85,50.25 L197.85,50.95 L185.05,50.95 L185.05,50.25 L188.35,50.25 L188.35,16.25 Z M215,36.3 L218.3,36.3 L218.3,1.65 L215,1.65 L215,0.95 L224.4,0.95 L224.4,20.35 L224.5,20.35 C224.633334,20.0499985 224.858332,19.6083362 225.175,19.025 C225.491668,18.4416637 225.966663,17.8583362 226.6,17.275 C227.233337,16.6916637 228.041662,16.1833355 229.025,15.75 C230.008338,15.3166645 231.249992,15.1 232.75,15.1 C234.950011,15.1 236.658327,15.733327 237.875,17 C239.091673,18.266673 239.7,19.999989 239.7,22.2 L239.7,36.3 L243.05,36.3 L243.05,37 L230.5,37 L230.5,36.3 L233.6,36.3 L233.6,20.5 C233.6,19.099993 233.316669,18.0750033 232.75,17.425 C232.183331,16.7749968 231.416672,16.45 230.45,16.45 C229.649996,16.45 228.883337,16.6416648 228.15,17.025 C227.416663,17.4083352 226.775003,17.9833295 226.225,18.75 C225.674997,19.5166705 225.233335,20.466661 224.9,21.6 C224.566665,22.733339 224.4,24.066659 224.4,25.6 L224.4,36.3 L227.55,36.3 L227.55,37 L215,37 L215,36.3 Z M249.3,4.8 C249.3,3.8333285 249.649997,3.0000035 250.35,2.3 C251.050004,1.5999965 251.883329,1.25 252.85,1.25 C253.816671,1.25 254.649997,1.5999965 255.35,2.3 C256.050004,3.0000035 256.4,3.8333285 256.4,4.8 C256.4,5.7666715 256.050004,6.5999965 255.35,7.3 C254.649997,8.0000035 253.816671,8.35 252.85,8.35 C251.883329,8.35 251.050004,8.0000035 250.35,7.3 C249.649997,6.5999965 249.3,5.7666715 249.3,4.8 Z M246.45,15.55 L255.9,15.55 L255.9,36.3 L259.25,36.3 L259.25,37 L246.45,37 L246.45,36.3 L249.8,36.3 L249.8,16.25 L246.45,16.25 L246.45,15.55 Z M262.15,26.25 C262.15,25.0166605 262.416664,23.73334 262.95,22.4 C263.483336,21.06666 264.274995,19.8416722 265.325,18.725 C266.375005,17.6083277 267.658326,16.683337 269.175,15.95 C270.691674,15.216663 272.44999,14.85 274.45,14.85 C275.716673,14.85 276.866661,14.983332 277.9,15.25 C278.933338,15.516668 279.824996,15.8916643 280.575,16.375 C281.325004,16.8583358 281.908331,17.4416633 282.325,18.125 C282.741669,18.8083367 282.95,19.5666625 282.95,20.4 C282.95,21.5000055 282.666669,22.2749978 282.1,22.725 C281.53333,23.1750023 280.733338,23.4 279.7,23.4 C278.933329,23.4 278.225003,23.2583348 277.575,22.975 C276.924997,22.6916653 276.6,22.1000045 276.6,21.2 C276.6,21.066666 276.641666,20.833335 276.725,20.5 C276.808334,20.166665 276.891666,19.8166685 276.975,19.45 C277.058334,19.0833315 277.141666,18.733335 277.225,18.4 C277.308334,18.066665 277.35,17.833334 277.35,17.7 C277.35,17.03333 277.058336,16.5083352 276.475,16.125 C275.891664,15.7416648 275.166671,15.55 274.3,15.55 C273.099994,15.55 272.150003,15.8333305 271.45,16.4 C270.749996,16.9666695 270.208335,17.7249953 269.825,18.675 C269.441665,19.6250048 269.191667,20.7249937 269.075,21.975 C268.958333,23.2250062 268.9,24.549993 268.9,25.95 C268.9,27.2500065 268.949999,28.5499935 269.05,29.85 C269.15,31.1500065 269.416664,32.333328 269.85,33.4 C270.283335,34.466672 270.916662,35.33333 271.75,36 C272.583337,36.66667 273.716659,37 275.15,37 C276.516673,37 277.666662,36.7583358 278.6,36.275 C279.533338,35.7916642 280.28333,35.2250032 280.85,34.575 C281.416669,33.9249967 281.841665,33.2750033 282.125,32.625 C282.408335,31.9749967 282.583333,31.5000015 282.65,31.2 L283.35,31.45 C283.183332,32.050003 282.925002,32.7083297 282.575,33.425 C282.224998,34.1416703 281.71667,34.8083303 281.05,35.425 C280.38333,36.0416697 279.525005,36.5666645 278.475,37 C277.424995,37.4333355 276.100008,37.65 274.5,37.65 C274.066664,37.65 273.458337,37.6083338 272.675,37.525 C271.891663,37.4416663 271.041671,37.2583348 270.125,36.975 C269.208329,36.6916653 268.283338,36.3000025 267.35,35.8 C266.416662,35.2999975 265.558337,34.6250042 264.775,33.775 C263.991663,32.9249957 263.358336,31.8833395 262.875,30.65 C262.391664,29.4166605 262.15,27.9500085 262.15,26.25 Z M31.85,74.6 L31.2,74.6 C30.8333315,73.4999945 30.3916693,72.3416728 29.875,71.125 C29.3583307,69.9083272 28.6916708,68.7916717 27.875,67.775 C27.0583292,66.7583282 26.0416728,65.9250033 24.825,65.275 C23.6083273,64.6249968 22.100009,64.3 20.3,64.3 C17.8666545,64.3 15.950007,64.7499955 14.55,65.65 C13.149993,66.5500045 12.0916702,67.799992 11.375,69.4 C10.6583298,71.000008 10.200001,72.9083222 10,75.125 C9.799999,77.3416778 9.7,79.7666535 9.7,82.4 C9.7,85.866684 9.899998,88.733322 10.3,91 C10.700002,93.266678 11.3249957,95.06666 12.175,96.4 C13.0250042,97.73334 14.1249932,98.666664 15.475,99.2 C16.8250068,99.733336 18.433324,100 20.3,100 C21.8000075,100 23.1583273,99.700003 24.375,99.1 C25.5916727,98.499997 26.666662,97.7083382 27.6,96.725 C28.533338,95.7416618 29.3166635,94.616673 29.95,93.35 C30.5833365,92.083327 31.0499985,90.7666735 31.35,89.4 L32.15,89.4 L32.15,100 L31.35,100 C31.1833325,99.599998 30.9833345,99.3250007 30.75,99.175 C30.5166655,99.0249992 30.166669,98.95 29.7,98.95 C29.299998,98.95 28.7833365,99.0416657 28.15,99.225 C27.5166635,99.4083343 26.7916708,99.6083322 25.975,99.825 C25.1583293,100.041668 24.2666715,100.241666 23.3,100.425 C22.3333285,100.608334 21.316672,100.7 20.25,100.7 C17.8166545,100.7 15.466678,100.225005 13.2,99.275 C10.933322,98.3249953 8.94167525,97.0250083 7.225,95.375 C5.50832475,93.7249917 4.1333385,91.7833445 3.1,89.55 C2.0666615,87.3166555 1.55,84.900013 1.55,82.3 C1.55,79.4666525 2.12499425,76.9000115 3.275,74.6 C4.42500575,72.2999885 5.899991,70.3333415 7.7,68.7 C9.500009,67.0666585 11.5083222,65.8083377 13.725,64.925 C15.9416777,64.0416622 18.116656,63.6 20.25,63.6 C21.316672,63.6 22.3083287,63.699999 23.225,63.9 C24.1416713,64.100001 24.9916627,64.3083323 25.775,64.525 C26.5583372,64.7416678 27.2666635,64.949999 27.9,65.15 C28.5333365,65.350001 29.0666645,65.45 29.5,65.45 C29.966669,65.45 30.3166655,65.3916672 30.55,65.275 C30.7833345,65.1583327 30.9499995,64.866669 31.05,64.4 L31.85,64.4 L31.85,74.6 Z M50.35,87.6 L50.25,87.6 C50.183333,87.800001 50.0583343,87.9916658 49.875,88.175 C49.6916657,88.3583342 49.366669,88.5666655 48.9,88.8 C48.2666635,89.1000015 47.6333365,89.3916652 47,89.675 C46.3666635,89.9583347 45.8000025,90.3166645 45.3,90.75 C44.7999975,91.1833355 44.3916683,91.7166635 44.075,92.35 C43.7583317,92.9833365 43.6,93.799995 43.6,94.8 C43.6,95.200002 43.6249998,95.666664 43.675,96.2 C43.7250002,96.733336 43.8583322,97.2499975 44.075,97.75 C44.2916677,98.2500025 44.6166645,98.6749983 45.05,99.025 C45.4833355,99.3750018 46.0833295,99.55 46.85,99.55 C47.2833355,99.55 47.7083313,99.450001 48.125,99.25 C48.5416687,99.049999 48.916665,98.7416688 49.25,98.325 C49.583335,97.9083312 49.849999,97.3583368 50.05,96.675 C50.250001,95.9916632 50.35,95.1666715 50.35,94.2 L50.35,87.6 Z M60.45,99.2 C59.983331,99.9000035 59.3083378,100.316666 58.425,100.45 C57.5416623,100.583334 56.7166705,100.65 55.95,100.65 C54.2499915,100.65 52.9916708,100.350003 52.175,99.75 C51.3583293,99.149997 50.850001,98.316672 50.65,97.25 L50.55,97.25 C50.016664,98.58334 49.283338,99.483331 48.35,99.95 C47.416662,100.416669 46.0666755,100.65 44.3,100.65 C43.499996,100.65 42.6833375,100.566667 41.85,100.4 C41.0166625,100.233332 40.2500035,99.9666685 39.55,99.6 C38.8499965,99.2333315 38.2833355,98.7250032 37.85,98.075 C37.4166645,97.4249967 37.2,96.633338 37.2,95.7 C37.2,94.7333285 37.3916648,93.9250033 37.775,93.275 C38.1583353,92.6249968 38.6583303,92.0750023 39.275,91.625 C39.8916698,91.1749977 40.5916628,90.8083347 41.375,90.525 C42.1583372,90.2416652 42.9666625,89.966668 43.8,89.7 C45.1666735,89.299998 46.2749958,88.9583347 47.125,88.675 C47.9750042,88.3916652 48.633331,88.0916682 49.1,87.775 C49.566669,87.4583317 49.8916658,87.100002 50.075,86.7 C50.2583343,86.299998 50.35,85.7833365 50.35,85.15 L50.35,82.1 C50.35,81.1999955 50.1333355,80.383337 49.7,79.65 C49.2666645,78.916663 48.450006,78.55 47.25,78.55 C46.4833295,78.55 45.8166695,78.7249982 45.25,79.075 C44.6833305,79.4250017 44.4,80.066662 44.4,81 C44.4,81.1000005 44.4166665,81.2749988 44.45,81.525 C44.4833335,81.7750013 44.5166665,82.0499985 44.55,82.35 C44.5833335,82.6500015 44.6166665,82.933332 44.65,83.2 C44.6833335,83.466668 44.7,83.6499995 44.7,83.75 C44.7,84.2500025 44.5833345,84.6416652 44.35,84.925 C44.1166655,85.2083347 43.8416683,85.416666 43.525,85.55 C43.2083318,85.683334 42.8750018,85.7583332 42.525,85.775 C42.1749982,85.7916667 41.8833345,85.8 41.65,85.8 C41.316665,85.8 40.9750017,85.7750002 40.625,85.725 C40.2749983,85.6749997 39.966668,85.5583343 39.7,85.375 C39.433332,85.1916657 39.2083343,84.933335 39.025,84.6 C38.8416658,84.266665 38.75,83.8166695 38.75,83.25 C38.75,82.383329 38.9916642,81.6083368 39.475,80.925 C39.9583358,80.2416632 40.599996,79.6750023 41.4,79.225 C42.200004,78.7749978 43.1083283,78.4333345 44.125,78.2 C45.1416718,77.9666655 46.1999945,77.85 47.3,77.85 C48.566673,77.85 49.7583278,77.949999 50.875,78.15 C51.9916723,78.350001 52.9583293,78.716664 53.775,79.25 C54.5916708,79.783336 55.2416642,80.5083288 55.725,81.425 C56.2083358,82.3416712 56.45,83.499993 56.45,84.9 L56.45,97.3 C56.45,97.9333365 56.5416658,98.4916642 56.725,98.975 C56.9083343,99.4583358 57.366663,99.7 58.1,99.7 C58.5333355,99.7 58.8916653,99.6166675 59.175,99.45 C59.4583348,99.2833325 59.733332,99.0500015 60,98.75 L60.45,99.2 Z M62.85,63.95 L72.3,63.95 L72.3,99.3 L75.65,99.3 L75.65,100 L62.85,100 L62.85,99.3 L66.2,99.3 L66.2,64.65 L62.85,64.65 L62.85,63.95 Z M93.3,86.75 L93.3,83.4 C93.3,83.0333315 93.2833335,82.583336 93.25,82.05 C93.2166665,81.516664 93.100001,80.983336 92.9,80.45 C92.699999,79.916664 92.3750023,79.4666685 91.925,79.1 C91.4749977,78.7333315 90.850004,78.55 90.05,78.55 C88.916661,78.55 88.0416698,78.816664 87.425,79.35 C86.8083303,79.883336 86.3500015,80.5583293 86.05,81.375 C85.7499985,82.1916707 85.5583338,83.0749953 85.475,84.025 C85.3916663,84.9750048 85.3333335,85.883329 85.3,86.75 L93.3,86.75 Z M85.3,87.45 L85.3,89.7 C85.3,90.900006 85.3499995,92.1083273 85.45,93.325 C85.5500005,94.5416727 85.8166645,95.6416618 86.25,96.625 C86.6833355,97.6083382 87.3166625,98.4166635 88.15,99.05 C88.9833375,99.6833365 90.1499925,100 91.65,100 C92.98334,100 94.1083288,99.7500025 95.025,99.25 C95.9416713,98.7499975 96.6916638,98.1750033 97.275,97.525 C97.8583363,96.8749968 98.2916653,96.2333365 98.575,95.6 C98.8583348,94.9666635 99.0166665,94.5000015 99.05,94.2 L99.75,94.45 C99.5833325,95.0833365 99.300002,95.7583298 98.9,96.475 C98.499998,97.1916703 97.9500035,97.8583302 97.25,98.475 C96.5499965,99.0916697 95.6833385,99.6083312 94.65,100.025 C93.6166615,100.441669 92.366674,100.65 90.9,100.65 C89.166658,100.65 87.5500075,100.391669 86.05,99.875 C84.5499925,99.3583308 83.2416723,98.6083382 82.125,97.625 C81.0083278,96.6416618 80.1333365,95.4416738 79.5,94.025 C78.8666635,92.6083263 78.55,91.000009 78.55,89.2 C78.55,87.7666595 78.849997,86.3666735 79.45,85 C80.050003,83.6333265 80.8749948,82.4250053 81.925,81.375 C82.9750053,80.3249947 84.2083263,79.4750032 85.625,78.825 C87.0416738,78.1749967 88.5666585,77.85 90.2,77.85 C91.3666725,77.85 92.5333275,78.0333315 93.7,78.4 C94.8666725,78.7666685 95.916662,79.3333295 96.85,80.1 C97.783338,80.8666705 98.549997,81.8583273 99.15,83.075 C99.750003,84.2916727 100.05,85.7499915 100.05,87.45 L85.3,87.45 Z M103.9,99.3 L107.2,99.3 L107.2,79.25 L103.9,79.25 L103.9,78.55 L113.2,78.55 L113.2,83.55 L113.3,83.55 C113.433334,83.2499985 113.666665,82.7916697 114,82.175 C114.333335,81.5583303 114.816664,80.950003 115.45,80.35 C116.083337,79.749997 116.899995,79.2250022 117.9,78.775 C118.900005,78.3249977 120.149993,78.1 121.65,78.1 C123.850011,78.1 125.558327,78.733327 126.775,80 C127.991673,81.266673 128.6,82.999989 128.6,85.2 L128.6,99.3 L131.95,99.3 L131.95,100 L119.4,100 L119.4,99.3 L122.5,99.3 L122.5,83.5 C122.5,82.099993 122.21667,81.0750033 121.65,80.425 C121.083331,79.7749968 120.316671,79.45 119.35,79.45 C118.549996,79.45 117.783337,79.6416648 117.05,80.025 C116.316663,80.4083352 115.675003,80.9833295 115.125,81.75 C114.574997,82.5166705 114.133335,83.466661 113.8,84.6 C113.466665,85.733339 113.3,87.066659 113.3,88.6 L113.3,99.3 L116.45,99.3 L116.45,100 L103.9,100 L103.9,99.3 Z M152,89.3 C152,88.1999945 151.941667,87.016673 151.825,85.75 C151.708333,84.483327 151.466669,83.316672 151.1,82.25 C150.733332,81.183328 150.183337,80.3000035 149.45,79.6 C148.716663,78.8999965 147.73334,78.55 146.5,78.55 C145.666663,78.55 144.958336,78.7333315 144.375,79.1 C143.791664,79.4666685 143.316669,80.0666625 142.95,80.9 C142.583332,81.7333375 142.325001,82.8416597 142.175,84.225 C142.024999,85.6083402 141.95,87.29999 141.95,89.3 C141.95,90.9333415 141.991666,92.4083268 142.075,93.725 C142.158334,95.0416733 142.341665,96.166662 142.625,97.1 C142.908335,98.033338 143.324997,98.7499975 143.875,99.25 C144.425003,99.7500025 145.166662,100 146.1,100 C147.500007,100 148.591663,99.6416703 149.375,98.925 C150.158337,98.2083297 150.749998,97.3083387 151.15,96.225 C151.550002,95.1416612 151.791666,93.9750062 151.875,92.725 C151.958334,91.4749938 152,90.3333385 152,89.3 Z M158.1,99.3 L161.4,99.3 L161.4,100 L152.1,100 L152.1,96.3 L152,96.3 C151.466664,97.700007 150.725005,98.7749962 149.775,99.525 C148.824995,100.275004 147.600008,100.65 146.1,100.65 C144.466658,100.65 142.98334,100.333336 141.65,99.7 C140.31666,99.0666635 139.175005,98.2250052 138.225,97.175 C137.274995,96.1249948 136.533336,94.9166735 136,93.55 C135.466664,92.1833265 135.2,90.7500075 135.2,89.25 C135.2,88.0833275 135.408331,86.83334 135.825,85.5 C136.241669,84.16666 136.891662,82.933339 137.775,81.8 C138.658338,80.666661 139.783327,79.7250038 141.15,78.975 C142.516674,78.2249963 144.166657,77.85 146.1,77.85 C147.600008,77.85 148.816662,78.1999965 149.75,78.9 C150.683338,79.6000035 151.399998,80.649993 151.9,82.05 L152,82.05 L152,64.65 L148.6,64.65 L148.6,63.95 L158.1,63.95 L158.1,99.3 Z M178.2,87.6 L178.1,87.6 C178.033333,87.800001 177.908334,87.9916658 177.725,88.175 C177.541666,88.3583342 177.216669,88.5666655 176.75,88.8 C176.116664,89.1000015 175.483337,89.3916652 174.85,89.675 C174.216663,89.9583347 173.650003,90.3166645 173.15,90.75 C172.649998,91.1833355 172.241668,91.7166635 171.925,92.35 C171.608332,92.9833365 171.45,93.799995 171.45,94.8 C171.45,95.200002 171.475,95.666664 171.525,96.2 C171.575,96.733336 171.708332,97.2499975 171.925,97.75 C172.141668,98.2500025 172.466665,98.6749983 172.9,99.025 C173.333335,99.3750018 173.93333,99.55 174.7,99.55 C175.133336,99.55 175.558331,99.450001 175.975,99.25 C176.391669,99.049999 176.766665,98.7416688 177.1,98.325 C177.433335,97.9083312 177.699999,97.3583368 177.9,96.675 C178.100001,95.9916632 178.2,95.1666715 178.2,94.2 L178.2,87.6 Z M188.3,99.2 C187.833331,99.9000035 187.158338,100.316666 186.275,100.45 C185.391662,100.583334 184.56667,100.65 183.8,100.65 C182.099991,100.65 180.841671,100.350003 180.025,99.75 C179.208329,99.149997 178.700001,98.316672 178.5,97.25 L178.4,97.25 C177.866664,98.58334 177.133338,99.483331 176.2,99.95 C175.266662,100.416669 173.916675,100.65 172.15,100.65 C171.349996,100.65 170.533338,100.566667 169.7,100.4 C168.866663,100.233332 168.100004,99.9666685 167.4,99.6 C166.699996,99.2333315 166.133336,98.7250032 165.7,98.075 C165.266664,97.4249967 165.05,96.633338 165.05,95.7 C165.05,94.7333285 165.241665,93.9250033 165.625,93.275 C166.008335,92.6249968 166.50833,92.0750023 167.125,91.625 C167.74167,91.1749977 168.441663,90.8083347 169.225,90.525 C170.008337,90.2416652 170.816663,89.966668 171.65,89.7 C173.016674,89.299998 174.124996,88.9583347 174.975,88.675 C175.825004,88.3916652 176.483331,88.0916682 176.95,87.775 C177.416669,87.4583317 177.741666,87.100002 177.925,86.7 C178.108334,86.299998 178.2,85.7833365 178.2,85.15 L178.2,82.1 C178.2,81.1999955 177.983336,80.383337 177.55,79.65 C177.116665,78.916663 176.300006,78.55 175.1,78.55 C174.333329,78.55 173.66667,78.7249982 173.1,79.075 C172.533331,79.4250017 172.25,80.066662 172.25,81 C172.25,81.1000005 172.266667,81.2749988 172.3,81.525 C172.333334,81.7750013 172.366667,82.0499985 172.4,82.35 C172.433334,82.6500015 172.466667,82.933332 172.5,83.2 C172.533334,83.466668 172.55,83.6499995 172.55,83.75 C172.55,84.2500025 172.433335,84.6416652 172.2,84.925 C171.966666,85.2083347 171.691668,85.416666 171.375,85.55 C171.058332,85.683334 170.725002,85.7583332 170.375,85.775 C170.024998,85.7916667 169.733335,85.8 169.5,85.8 C169.166665,85.8 168.825002,85.7750002 168.475,85.725 C168.124998,85.6749997 167.816668,85.5583343 167.55,85.375 C167.283332,85.1916657 167.058334,84.933335 166.875,84.6 C166.691666,84.266665 166.6,83.8166695 166.6,83.25 C166.6,82.383329 166.841664,81.6083368 167.325,80.925 C167.808336,80.2416632 168.449996,79.6750023 169.25,79.225 C170.050004,78.7749978 170.958328,78.4333345 171.975,78.2 C172.991672,77.9666655 174.049995,77.85 175.15,77.85 C176.416673,77.85 177.608328,77.949999 178.725,78.15 C179.841672,78.350001 180.808329,78.716664 181.625,79.25 C182.441671,79.783336 183.091664,80.5083288 183.575,81.425 C184.058336,82.3416712 184.3,83.499993 184.3,84.9 L184.3,97.3 C184.3,97.9333365 184.391666,98.4916642 184.575,98.975 C184.758334,99.4583358 185.216663,99.7 185.95,99.7 C186.383336,99.7 186.741665,99.6166675 187.025,99.45 C187.308335,99.2833325 187.583332,99.0500015 187.85,98.75 L188.3,99.2 Z M190.95,78.55 L200.2,78.55 L200.2,82.75 L200.3,82.75 C200.900003,81.483327 201.708328,80.3916712 202.725,79.475 C203.741672,78.5583287 205.083325,78.1 206.75,78.1 C208.150007,78.1 209.283329,78.4749963 210.15,79.225 C211.016671,79.9750038 211.45,81.01666 211.45,82.35 C211.45,83.350005 211.208336,84.1333305 210.725,84.7 C210.241664,85.2666695 209.466672,85.55 208.4,85.55 C207.63333,85.55 206.933337,85.3916682 206.3,85.075 C205.666664,84.7583318 205.35,84.166671 205.35,83.3 C205.35,83.1999995 205.366667,83.0250013 205.4,82.775 C205.433334,82.5249988 205.475,82.2583348 205.525,81.975 C205.575,81.6916653 205.616667,81.4333345 205.65,81.2 C205.683334,80.9666655 205.7,80.8333335 205.7,80.8 L205.675,80.6 C205.658333,80.466666 205.616667,80.3250007 205.55,80.175 C205.483333,80.0249993 205.375001,79.8916672 205.225,79.775 C205.074999,79.6583327 204.850002,79.6 204.55,79.6 C204.216665,79.6 203.800003,79.7583318 203.3,80.075 C202.799998,80.3916683 202.333336,80.849997 201.9,81.45 C201.466665,82.050003 201.091668,82.7749958 200.775,83.625 C200.458332,84.4750042 200.3,85.433328 200.3,86.5 L200.3,99.3 L204.25,99.3 L204.25,100 L190.95,100 L190.95,99.3 L194.2,99.3 L194.2,79.25 L190.95,79.25 L190.95,78.55 Z" id="logo9" fill="#000000"></path>
    </g>
</svg>