<?xml version="1.0" encoding="UTF-8"?>
<svg width="224px" height="86px" viewBox="0 0 224 86" version="1.1" xmlns="http://www.w3.org/2000/svg" xmlns:xlink="http://www.w3.org/1999/xlink">
    <!-- Generator: Sketch 48.2 (47327) - http://www.bohemiancoding.com/sketch -->
    <title>logo6</title>
    <desc>Created with Sketch.</desc>
    <defs></defs>
    <g id="Page-1" stroke="none" stroke-width="1" fill="none" fill-rule="evenodd">
        <path d="M11.9335938,7.12109375 L11.9335938,33 L7.3828125,33 L7.3828125,7.12109375 L0.44921875,7.12109375 L0.44921875,2.84375 L18.8476562,2.84375 L18.8476562,7.12109375 L11.9335938,7.12109375 Z M26.2695313,29.4648437 L17.7148438,13.9765625 L22.8125,13.9765625 L28.6328125,24.9140625 L34.0625,13.9765625 L39.0234375,13.9765625 L23.8671875,43.3515625 L18.8476563,43.3515625 L26.2695313,29.4648437 Z M46.40625,43.3515625 L42.0117188,43.3515625 L42.0117188,13.9765625 L46.40625,13.9765625 L46.40625,16.046875 C48.1380295,14.3150955 50.1041557,13.4492188 52.3046875,13.4492188 C54.9218881,13.4492188 57.0768145,14.4127508 58.7695312,16.3398438 C60.4882898,18.2539158 61.3476562,20.6692562 61.3476562,23.5859375 C61.3476562,26.4375143 60.4948002,28.8137926 58.7890625,30.7148438 C57.0963457,32.602874 54.9609504,33.546875 52.3828125,33.546875 C50.1562389,33.546875 48.1640713,32.6549568 46.40625,30.8710938 L46.40625,43.3515625 Z M56.8554688,23.6054687 C56.8554688,21.782543 56.360682,20.2981828 55.3710938,19.1523437 C54.3684846,17.9934838 53.1054764,17.4140625 51.5820312,17.4140625 C49.9674398,17.4140625 48.6588592,17.9739527 47.65625,19.09375 C46.6536408,20.2135473 46.1523438,21.6848867 46.1523438,23.5078125 C46.1523438,25.2916756 46.6536408,26.763015 47.65625,27.921875 C48.6458383,29.0546932 49.9479086,29.6210937 51.5625,29.6210937 C53.0859451,29.6210937 54.342443,29.0481828 55.3320312,27.9023437 C56.3476613,26.7565047 56.8554688,25.3242273 56.8554688,23.6054687 Z M65.0976562,23.3515625 C65.0976562,20.6041529 66.0807193,18.2669367 68.046875,16.3398438 C70.0130307,14.4127508 72.40884,13.4492188 75.234375,13.4492188 C78.0729309,13.4492188 80.4817609,14.4192611 82.4609375,16.359375 C84.4140723,18.2994889 85.390625,20.6822775 85.390625,23.5078125 C85.390625,26.3593893 84.4075619,28.7486883 82.4414062,30.6757812 C80.4622297,32.5898533 78.0338686,33.546875 75.15625,33.546875 C72.3046732,33.546875 69.9153742,32.5703223 67.9882812,30.6171875 C66.0611883,28.6900945 65.0976562,26.2682438 65.0976562,23.3515625 Z M69.5898438,23.4296875 C69.5898438,25.3307387 70.0976512,26.8346299 71.1132812,27.9414062 C72.1549531,29.0612035 73.5286373,29.6210937 75.234375,29.6210937 C76.9531336,29.6210937 78.3268178,29.0677139 79.3554688,27.9609375 C80.3841197,26.8541611 80.8984375,25.3763113 80.8984375,23.5273437 C80.8984375,21.6783762 80.3841197,20.2005264 79.3554688,19.09375 C78.3137969,17.9739527 76.9401127,17.4140625 75.234375,17.4140625 C73.5546791,17.4140625 72.1940156,17.9739527 71.1523438,19.09375 C70.1106719,20.2135473 69.5898438,21.6588453 69.5898438,23.4296875 Z M108.4375,32.5507812 C108.4375,33.4492232 108.408203,34.240231 108.349609,34.9238281 C108.291015,35.6074253 108.209636,36.2096328 108.105469,36.7304687 C107.792967,38.1627676 107.180994,39.393224 106.269531,40.421875 C104.550773,42.4010516 102.187515,43.390625 99.1796875,43.390625 C96.6406123,43.390625 94.5507895,42.7070381 92.9101563,41.3398437 C91.2174395,39.9335867 90.2408867,37.9869916 89.9804688,35.5 L94.3945313,35.5 C94.5638029,36.4375047 94.843748,37.1601537 95.234375,37.6679687 C96.1458379,38.8528705 97.4739496,39.4453125 99.21875,39.4453125 C102.434912,39.4453125 104.042969,37.472676 104.042969,33.5273437 L104.042969,30.8710937 C102.298168,32.6549568 100.28647,33.546875 98.0078125,33.546875 C95.4166537,33.546875 93.2942791,32.6093844 91.640625,30.734375 C89.97395,28.8333238 89.140625,26.4570455 89.140625,23.6054687 C89.140625,20.8320174 89.9153568,18.4752701 91.4648438,16.5351562 C93.1315188,14.4778543 95.3320176,13.4492187 98.0664063,13.4492187 C100.462252,13.4492187 102.454419,14.3411369 104.042969,16.125 L104.042969,13.9765625 L108.4375,13.9765625 L108.4375,32.5507812 Z M104.21875,23.5273438 C104.21875,21.6783762 103.723963,20.2005264 102.734375,19.09375 C101.731766,17.9609318 100.449227,17.3945312 98.8867188,17.3945312 C97.2200438,17.3945312 95.9049527,18.0130146 94.9414063,19.25 C94.0690061,20.3567764 93.6328125,21.7890537 93.6328125,23.546875 C93.6328125,25.2786545 94.0690061,26.6979111 94.9414063,27.8046875 C95.8919318,29.0156311 97.2070229,29.6210938 98.8867188,29.6210938 C100.566415,29.6210938 101.894526,29.0091207 102.871094,27.7851562 C103.769536,26.6783799 104.21875,25.2591232 104.21875,23.5273438 Z M113.984375,13.9765625 L118.378906,13.9765625 L118.378906,15.6757812 C119.186202,14.8294229 119.902341,14.2500016 120.527344,13.9375 C121.165368,13.6119775 121.920569,13.4492188 122.792969,13.4492188 C123.951829,13.4492188 125.162754,13.8268191 126.425781,14.5820312 L124.414062,18.6054688 C123.580725,18.0065074 122.766931,17.7070312 121.972656,17.7070312 C119.576811,17.7070312 118.378906,19.516909 118.378906,23.1367188 L118.378906,33 L113.984375,33 L113.984375,13.9765625 Z M142.695312,13.9765625 L147.109375,13.9765625 L147.109375,33 L142.695312,33 L142.695312,31.0078125 C140.885408,32.7005293 138.938812,33.546875 136.855469,33.546875 C134.225247,33.546875 132.05079,32.5963637 130.332031,30.6953125 C128.626294,28.7551986 127.773438,26.3333479 127.773438,23.4296875 C127.773438,20.5781107 128.626294,18.2018324 130.332031,16.3007812 C132.037769,14.3997301 134.173164,13.4492188 136.738281,13.4492188 C138.951834,13.4492188 140.937491,14.360668 142.695312,16.1835938 L142.695312,13.9765625 Z M132.265625,23.4296875 C132.265625,25.2526133 132.753901,26.7369734 133.730469,27.8828125 C134.733078,29.0416725 135.996086,29.6210937 137.519531,29.6210937 C139.147144,29.6210937 140.462235,29.0612035 141.464844,27.9414062 C142.467453,26.7825463 142.96875,25.3112068 142.96875,23.5273437 C142.96875,21.7434807 142.467453,20.2721412 141.464844,19.1132812 C140.462235,17.9804631 139.160164,17.4140625 137.558594,17.4140625 C136.04817,17.4140625 134.785161,17.9869734 133.769531,19.1328125 C132.766922,20.2916725 132.265625,21.7239498 132.265625,23.4296875 Z M157.050781,43.3515625 L152.65625,43.3515625 L152.65625,13.9765625 L157.050781,13.9765625 L157.050781,16.046875 C158.782561,14.3150955 160.748687,13.4492188 162.949219,13.4492188 C165.566419,13.4492188 167.721346,14.4127508 169.414062,16.3398438 C171.132821,18.2539158 171.992188,20.6692562 171.992188,23.5859375 C171.992188,26.4375143 171.139331,28.8137926 169.433594,30.7148438 C167.740877,32.602874 165.605482,33.546875 163.027344,33.546875 C160.80077,33.546875 158.808603,32.6549568 157.050781,30.8710938 L157.050781,43.3515625 Z M167.5,23.6054687 C167.5,21.782543 167.005213,20.2981828 166.015625,19.1523437 C165.013016,17.9934838 163.750008,17.4140625 162.226562,17.4140625 C160.611971,17.4140625 159.30339,17.9739527 158.300781,19.09375 C157.298172,20.2135473 156.796875,21.6848867 156.796875,23.5078125 C156.796875,25.2916756 157.298172,26.763015 158.300781,27.921875 C159.29037,29.0546932 160.59244,29.6210937 162.207031,29.6210937 C163.730476,29.6210937 164.986974,29.0481828 165.976562,27.9023437 C166.992193,26.7565047 167.5,25.3242273 167.5,23.6054687 Z M176.640625,0.01171875 L181.035156,0.01171875 L181.035156,15.5585938 C182.597664,14.1523367 184.322907,13.4492188 186.210938,13.4492188 C188.359386,13.4492188 190.078119,14.1458264 191.367188,15.5390625 C192.460943,16.7500061 193.007813,18.6835805 193.007813,21.3398438 L193.007813,33 L188.613281,33 L188.613281,21.75 C188.613281,20.2265549 188.343102,19.1230503 187.802734,18.4394531 C187.262367,17.755856 186.393235,17.4140625 185.195313,17.4140625 C183.658846,17.4140625 182.578128,17.8893182 181.953125,18.8398438 C181.341143,19.8033902 181.035156,21.4570195 181.035156,23.8007812 L181.035156,33 L176.640625,33 L176.640625,0.01171875 Z M202.96875,13.9765625 L202.96875,33 L198.574219,33 L198.574219,13.9765625 L202.96875,13.9765625 Z M197.910156,6.06640625 C197.910156,5.29817324 198.190101,4.63411738 198.75,4.07421875 C199.309899,3.51432012 199.980465,3.234375 200.761719,3.234375 C201.555994,3.234375 202.23307,3.51432012 202.792969,4.07421875 C203.352867,4.62109648 203.632812,5.2916627 203.632812,6.0859375 C203.632812,6.8802123 203.352867,7.55728887 202.792969,8.1171875 C202.246091,8.67708613 201.575525,8.95703125 200.78125,8.95703125 C199.986975,8.95703125 199.309899,8.67708613 198.75,8.1171875 C198.190101,7.55728887 197.910156,6.87370195 197.910156,6.06640625 Z M223.339844,14.796875 L223.339844,20.6367188 C222.337235,19.4127543 221.438806,18.5729189 220.644531,18.1171875 C219.863277,17.6484352 218.945318,17.4140625 217.890625,17.4140625 C216.236971,17.4140625 214.863287,17.9934838 213.769531,19.1523438 C212.675776,20.3112037 212.128906,21.7630121 212.128906,23.5078125 C212.128906,25.2916756 212.656245,26.7565047 213.710938,27.9023438 C214.778651,29.0481828 216.139315,29.6210938 217.792969,29.6210938 C218.847662,29.6210938 219.778642,29.3932314 220.585938,28.9375 C221.367191,28.4947895 222.285151,27.635423 223.339844,26.359375 L223.339844,32.1601562 C221.555981,33.08464 219.772144,33.546875 217.988281,33.546875 C215.045558,33.546875 212.584645,32.5963637 210.605469,30.6953125 C208.626292,28.7812404 207.636719,26.4049621 207.636719,23.5664062 C207.636719,20.7278504 208.639313,18.332041 210.644531,16.3789062 C212.64975,14.4257715 215.110663,13.4492188 218.027344,13.4492188 C219.902353,13.4492188 221.673169,13.898433 223.339844,14.796875 Z M25.8984375,56.4648438 L25.8984375,61.8554688 C23.268216,59.6549369 20.5468891,58.5546875 17.734375,58.5546875 C14.6354012,58.5546875 12.0247502,59.6679576 9.90234375,61.8945312 C7.76691641,64.108084 6.69921875,66.8163902 6.69921875,70.0195312 C6.69921875,73.1836096 7.76691641,75.8528537 9.90234375,78.0273438 C12.0377711,80.2018338 14.6549324,81.2890625 17.7539062,81.2890625 C19.3554768,81.2890625 20.7161402,81.0286484 21.8359375,80.5078125 C22.4609406,80.2473945 23.1087206,79.8958355 23.7792969,79.453125 C24.4498731,79.0104145 25.1562463,78.4765656 25.8984375,77.8515625 L25.8984375,83.3398438 C23.2942578,84.8112053 20.5599102,85.546875 17.6953125,85.546875 C13.3853951,85.546875 9.70704648,84.0429838 6.66015625,81.0351562 C3.62628691,78.0012869 2.109375,74.3424693 2.109375,70.0585938 C2.109375,66.2174287 3.37889355,62.7929838 5.91796875,59.7851562 C9.04298438,56.100242 13.0859127,54.2578125 18.046875,54.2578125 C20.7552219,54.2578125 23.3723832,54.9934822 25.8984375,56.4648438 Z M44.8242188,65.9765625 L49.2382812,65.9765625 L49.2382812,85 L44.8242188,85 L44.8242188,83.0078125 C43.0143139,84.7005293 41.0677187,85.546875 38.984375,85.546875 C36.3541535,85.546875 34.1796961,84.5963637 32.4609375,82.6953125 C30.7551998,80.7551986 29.9023438,78.3333479 29.9023438,75.4296875 C29.9023438,72.5781107 30.7551998,70.2018324 32.4609375,68.3007812 C34.1666752,66.3997301 36.3020705,65.4492188 38.8671875,65.4492188 C41.0807402,65.4492188 43.0663975,66.360668 44.8242188,68.1835938 L44.8242188,65.9765625 Z M34.3945312,75.4296875 C34.3945312,77.2526133 34.8828076,78.7369734 35.859375,79.8828125 C36.8619842,81.0416725 38.1249924,81.6210938 39.6484375,81.6210938 C41.2760498,81.6210938 42.5911408,81.0612035 43.59375,79.9414062 C44.5963592,78.7825463 45.0976562,77.3112068 45.0976562,75.5273438 C45.0976562,73.7434807 44.5963592,72.2721412 43.59375,71.1132812 C42.5911408,69.9804631 41.2890705,69.4140625 39.6875,69.4140625 C38.1770758,69.4140625 36.9140676,69.9869734 35.8984375,71.1328125 C34.8958283,72.2916725 34.3945312,73.7239498 34.3945312,75.4296875 Z M59.1796875,52.0117188 L59.1796875,85 L54.7851563,85 L54.7851563,52.0117188 L59.1796875,52.0117188 Z M82.0703125,76.5234375 L68.4375,76.5234375 C68.5546881,78.0859453 69.0624955,79.3294225 69.9609375,80.2539062 C70.8593795,81.1653691 72.0117117,81.6210938 73.4179688,81.6210938 C74.5117242,81.6210938 75.4166631,81.3606797 76.1328125,80.8398438 C76.835941,80.3190078 77.6367143,79.3554758 78.5351562,77.9492188 L82.2460938,80.0195312 C81.6731742,80.9960986 81.0677115,81.8326788 80.4296875,82.5292969 C79.7916635,83.2259149 79.1080766,83.7988259 78.3789062,84.2480469 C77.6497359,84.6972679 76.8619834,85.0260406 76.015625,85.234375 C75.1692666,85.4427094 74.251307,85.546875 73.2617188,85.546875 C70.4231629,85.546875 68.1445398,84.6354258 66.4257812,82.8125 C64.7070227,80.9765533 63.8476562,78.5416818 63.8476562,75.5078125 C63.8476562,72.499985 64.6809813,70.0651135 66.3476562,68.203125 C68.0273521,66.3671783 70.2538924,65.4492188 73.0273438,65.4492188 C75.8268369,65.4492188 78.0403564,66.3411369 79.6679688,68.125 C81.2825602,69.8958422 82.0898438,72.3502447 82.0898438,75.4882812 L82.0703125,76.5234375 Z M77.5585938,72.9296875 C76.9466115,70.5859258 75.4687617,69.4140625 73.125,69.4140625 C72.5911432,69.4140625 72.0898461,69.4954419 71.6210938,69.6582031 C71.1523414,69.8209644 70.7259134,70.055337 70.3417969,70.3613281 C69.9576804,70.6673192 69.6289076,71.0351541 69.3554688,71.4648438 C69.0820299,71.8945334 68.8736986,72.3828098 68.7304688,72.9296875 L77.5585938,72.9296875 Z M86.875,65.9765625 L91.2890625,65.9765625 L91.2890625,67.734375 C92.8255285,66.2109299 94.557282,65.4492188 96.484375,65.4492188 C98.6979277,65.4492188 100.423171,66.1458264 101.660156,67.5390625 C102.72787,68.7239643 103.261719,70.6575387 103.261719,73.3398438 L103.261719,85 L98.8476562,85 L98.8476562,74.375 C98.8476562,72.4999906 98.5872422,71.2044307 98.0664062,70.4882812 C97.5585912,69.7591109 96.6341213,69.3945312 95.2929688,69.3945312 C93.8346281,69.3945312 92.7994822,69.8762973 92.1875,70.8398438 C91.5885387,71.7903693 91.2890625,73.450509 91.2890625,75.8203125 L91.2890625,85 L86.875,85 L86.875,65.9765625 Z M122.832031,52.0117188 L127.246094,52.0117188 L127.246094,85 L122.832031,85 L122.832031,83.0078125 C121.100252,84.7005293 119.140636,85.546875 116.953125,85.546875 C114.348945,85.546875 112.187509,84.5963637 110.46875,82.6953125 C108.763012,80.7551986 107.910156,78.3333479 107.910156,75.4296875 C107.910156,72.5911316 108.763012,70.2213637 110.46875,68.3203125 C112.161467,66.4062404 114.290352,65.4492188 116.855469,65.4492188 C119.082042,65.4492188 121.07421,66.360668 122.832031,68.1835938 L122.832031,52.0117188 Z M112.402344,75.4296875 C112.402344,77.2526133 112.89062,78.7369734 113.867188,79.8828125 C114.869797,81.0416725 116.132805,81.6210938 117.65625,81.6210938 C119.283862,81.6210938 120.598953,81.0612035 121.601563,79.9414062 C122.604172,78.7825463 123.105469,77.3112068 123.105469,75.5273438 C123.105469,73.7434807 122.604172,72.2721412 121.601563,71.1132812 C120.598953,69.9804631 119.296883,69.4140625 117.695313,69.4140625 C116.184888,69.4140625 114.92188,69.9869734 113.90625,71.1328125 C112.903641,72.2916725 112.402344,73.7239498 112.402344,75.4296875 Z M146.816406,65.9765625 L151.230469,65.9765625 L151.230469,85 L146.816406,85 L146.816406,83.0078125 C145.006501,84.7005293 143.059906,85.546875 140.976562,85.546875 C138.346341,85.546875 136.171884,84.5963637 134.453125,82.6953125 C132.747387,80.7551986 131.894531,78.3333479 131.894531,75.4296875 C131.894531,72.5781107 132.747387,70.2018324 134.453125,68.3007812 C136.158863,66.3997301 138.294258,65.4492188 140.859375,65.4492188 C143.072928,65.4492188 145.058585,66.360668 146.816406,68.1835938 L146.816406,65.9765625 Z M136.386719,75.4296875 C136.386719,77.2526133 136.874995,78.7369734 137.851563,79.8828125 C138.854172,81.0416725 140.11718,81.6210938 141.640625,81.6210938 C143.268237,81.6210938 144.583328,81.0612035 145.585938,79.9414062 C146.588547,78.7825463 147.089844,77.3112068 147.089844,75.5273438 C147.089844,73.7434807 146.588547,72.2721412 145.585938,71.1132812 C144.583328,69.9804631 143.281258,69.4140625 141.679688,69.4140625 C140.169263,69.4140625 138.906255,69.9869734 137.890625,71.1328125 C136.888016,72.2916725 136.386719,73.7239498 136.386719,75.4296875 Z M156.777344,65.9765625 L161.171875,65.9765625 L161.171875,67.6757812 C161.979171,66.8294229 162.695309,66.2500016 163.320313,65.9375 C163.958337,65.6119775 164.713537,65.4492188 165.585938,65.4492188 C166.744797,65.4492188 167.955723,65.8268191 169.21875,66.5820312 L167.207031,70.6054688 C166.373694,70.0065074 165.5599,69.7070312 164.765625,69.7070312 C162.36978,69.7070312 161.171875,71.516909 161.171875,75.1367188 L161.171875,85 L156.777344,85 L156.777344,65.9765625 Z" id="logo6" fill="#000000"></path>
    </g>
</svg>