<?xml version="1.0" encoding="UTF-8"?>
<svg width="244px" height="96px" viewBox="0 0 244 96" version="1.1" xmlns="http://www.w3.org/2000/svg" xmlns:xlink="http://www.w3.org/1999/xlink">
    <!-- Generator: Sketch 48.2 (47327) - http://www.bohemiancoding.com/sketch -->
    <title>logo7</title>
    <desc>Created with Sketch.</desc>
    <defs></defs>
    <g id="Page-1" stroke="none" stroke-width="1" fill="none" fill-rule="evenodd">
        <path d="M21.45,0.28 L21.45,3.965 L12.76,3.965 L12.76,37.185 L8.69,37.185 L8.69,3.965 L0,3.965 L0,0.28 L21.45,0.28 Z M24.75,47.195 L24.75,43.73 L39.05,43.73 L39.05,36.14 L24.585,36.14 L24.585,10.455 L28.435,10.455 L28.435,32.785 L39.05,32.785 L39.05,10.455 L43.065,10.455 L43.065,42.575 C43.065,45.16 40.975,47.195 38.335,47.195 L24.75,47.195 Z M63.085,37.13 L53.295,37.13 L53.295,47.085 L49.335,47.085 L49.335,10.455 L67.815,10.455 L67.815,32.565 C67.815,35.15 65.725,37.13 63.085,37.13 Z M53.295,13.92 L53.295,33.775 L63.965,33.775 L63.965,13.92 L53.295,13.92 Z M88.33,37.185 L74.085,37.185 L74.085,10.455 L93.06,10.455 L93.06,32.565 C93.06,35.15 90.97,37.185 88.33,37.185 Z M77.715,14.03 L77.715,33.555 L89.375,33.555 L89.375,14.03 L77.715,14.03 Z M112.97,47.14 L99.55,47.14 L99.55,43.73 L113.74,43.73 L113.74,37.13 L99.33,37.13 L99.33,10.455 L117.645,10.455 L117.645,42.52 C117.645,45.105 115.555,47.14 112.97,47.14 Z M103.125,33.775 L113.74,33.775 L113.74,13.865 L103.125,13.865 L103.125,33.775 Z M123.915,37.185 L123.915,10.455 L138.05,10.455 L138.05,13.92 L127.875,13.92 L127.875,37.185 L123.915,37.185 Z M159.555,32.565 C159.555,35.095 157.575,37.075 155.045,37.185 L141.185,37.185 L141.185,19.97 L155.595,19.97 L155.595,13.92 L141.735,13.92 L141.735,10.455 L159.555,10.455 L159.555,32.565 Z M144.98,23.49 L144.98,33.83 L155.595,33.83 L155.595,23.49 L144.98,23.49 Z M179.575,37.13 L169.785,37.13 L169.785,47.085 L165.825,47.085 L165.825,10.455 L184.305,10.455 L184.305,32.565 C184.305,35.15 182.215,37.13 179.575,37.13 Z M169.785,13.92 L169.785,33.775 L180.455,33.775 L180.455,13.92 L169.785,13.92 Z M209,37.185 L205.15,37.185 L205.15,13.92 L194.535,13.92 L194.535,37.185 L190.575,37.185 L190.575,0.995 L194.535,1.05 L194.535,10.455 L204.27,10.455 C206.91,10.455 209,12.49 209,15.075 L209,37.185 Z M219.34,10.455 L219.34,37.185 L215.27,37.185 L215.27,10.455 L219.34,10.455 Z M219.34,3.635 L219.34,7.265 L215.27,7.265 L215.27,3.635 L219.34,3.635 Z M225.61,32.565 L225.61,10.455 L243.595,10.455 L243.595,13.92 L229.57,13.92 L229.57,33.83 L243.595,33.83 L243.595,37.185 L230.23,37.185 C227.645,37.13 225.61,35.15 225.61,32.565 Z M25.74,95.185 L3.135,95.185 L3.135,58.28 L25.74,58.28 L25.74,61.91 L7.26,61.91 L7.26,91.555 L25.74,91.555 L25.74,95.185 Z M49.335,90.565 C49.335,93.095 47.355,95.075 44.825,95.185 L30.965,95.185 L30.965,77.97 L45.375,77.97 L45.375,71.92 L31.515,71.92 L31.515,68.455 L49.335,68.455 L49.335,90.565 Z M34.76,81.49 L34.76,91.83 L45.375,91.83 L45.375,81.49 L34.76,81.49 Z M59.675,95.185 L55.605,95.185 L55.605,59.05 L59.675,59.05 L59.675,95.185 Z M70.62,95.185 C67.98,95.185 65.945,93.15 65.945,90.565 L65.945,68.455 L84.04,68.455 L84.04,81.545 L69.85,81.545 L69.85,91.83 L84.205,91.83 L84.205,95.185 L70.62,95.185 Z M69.85,71.92 L69.85,78.025 L80.19,78.025 L80.19,71.92 L69.85,71.92 Z M108.35,95.185 L104.665,95.185 L104.665,72.03 L93.005,72.03 L93.005,95.185 L89.375,95.185 L89.375,68.455 L103.62,68.455 C106.26,68.455 108.35,70.49 108.35,73.075 L108.35,95.185 Z M128.37,95.185 L114.62,95.185 L114.62,68.455 L129.14,68.455 L129.14,59.05 L133.1,59.05 L133.1,90.565 C133.1,93.15 131.01,95.185 128.37,95.185 Z M118.47,71.92 L118.47,91.83 L129.14,91.83 L129.14,71.92 L118.47,71.92 Z M157.74,90.565 C157.74,93.095 155.76,95.075 153.23,95.185 L139.37,95.185 L139.37,77.97 L153.78,77.97 L153.78,71.92 L139.92,71.92 L139.92,68.455 L157.74,68.455 L157.74,90.565 Z M143.165,81.49 L143.165,91.83 L153.78,91.83 L153.78,81.49 L143.165,81.49 Z M164.01,95.185 L164.01,68.455 L178.145,68.455 L178.145,71.92 L167.97,71.92 L167.97,95.185 L164.01,95.185 Z" id="logo7" fill="#000000"></path>
    </g>
</svg>