<?xml version="1.0" encoding="UTF-8"?>
<svg width="301px" height="97px" viewBox="0 0 301 97" version="1.1" xmlns="http://www.w3.org/2000/svg" xmlns:xlink="http://www.w3.org/1999/xlink">
    <!-- Generator: Sketch 48.2 (47327) - http://www.bohemiancoding.com/sketch -->
    <title>logo8</title>
    <desc>Created with Sketch.</desc>
    <defs></defs>
    <g id="Page-1" stroke="none" stroke-width="1" fill="none" fill-rule="evenodd">
        <path d="M23.025,0.4 L23.025,4.855 L13.895,4.855 L13.895,38.295 L9.275,38.295 L9.275,4.855 L0.145,4.855 L0.145,0.4 L23.025,0.4 Z M54.265,0.125 L43.045,26.855 L43.045,38.295 L38.48,38.295 L38.48,26.635 L27.315,0.125 L32.1,0.125 L40.79,20.75 L49.425,0.125 L54.265,0.125 Z M81.38,12.335 L81.38,25.92 L64.66,25.92 L64.66,38.295 L60.205,38.295 L60.205,0.4 L76.375,0.4 L81.38,12.335 Z M76.925,21.795 L76.925,12.885 L73.515,4.69 L64.66,4.69 L64.66,21.795 L76.925,21.795 Z M106.57,0.4 L111.025,10.905 L111.025,38.295 L88.42,38.295 L88.42,0.4 L106.57,0.4 Z M106.515,34.005 L106.515,11.51 L103.655,4.69 L92.875,4.69 L92.875,34.005 L106.515,34.005 Z M129.725,18.55 L143.64,18.55 L135.39,38.295 L118.615,38.295 L118.615,0.4 L135.5,0.4 L135.5,4.69 L123.125,4.69 L123.125,34.005 L132.31,34.005 L137.04,22.785 L129.725,22.785 L129.725,18.55 Z M170.48,38.295 L165.805,38.295 L159.865,24.215 L153.485,24.215 L153.485,38.295 L149.03,38.295 L149.03,0.4 L165.31,0.4 L170.205,12.005 L170.205,24.215 L164.595,24.215 L170.48,38.295 Z M153.485,4.69 L153.485,20.09 L165.75,20.09 L165.75,12.61 L162.395,4.69 L153.485,4.69 Z M191.38,0.125 L200.675,22.345 L200.675,38.295 L196.33,38.295 L196.33,25.975 L181.92,25.975 L181.92,38.295 L177.52,38.295 L177.52,22.455 L186.87,0.125 L191.38,0.125 Z M189.125,5.9 L182.415,21.74 L195.78,21.74 L189.125,5.9 Z M229.44,12.335 L229.44,25.92 L212.72,25.92 L212.72,38.295 L208.265,38.295 L208.265,0.4 L224.435,0.4 L229.44,12.335 Z M224.985,21.795 L224.985,12.885 L221.575,4.69 L212.72,4.69 L212.72,21.795 L224.985,21.795 Z M254.63,0.125 L259.305,0.125 L259.305,38.24 L254.63,38.24 L254.63,19.43 L241.045,19.43 L241.045,38.295 L236.48,38.295 L236.48,0.125 L241.045,0.125 L241.045,14.92 L254.63,14.92 L254.63,0.125 Z M271.625,38.295 L266.895,38.295 L266.895,0.4 L271.625,0.4 L271.625,38.295 Z M283.67,34.005 L300.115,34.005 L300.115,38.295 L279.215,38.295 L279.215,0.4 L294.065,0.4 L294.065,4.69 L283.67,4.69 L283.67,34.005 Z M6.25,92.005 L22.695,92.005 L22.695,96.295 L1.795,96.295 L1.795,58.4 L16.645,58.4 L16.645,62.69 L6.25,62.69 L6.25,92.005 Z M43.045,58.125 L52.34,80.345 L52.34,96.295 L47.995,96.295 L47.995,83.975 L33.585,83.975 L33.585,96.295 L29.185,96.295 L29.185,80.455 L38.535,58.125 L43.045,58.125 Z M40.79,63.9 L34.08,79.74 L47.445,79.74 L40.79,63.9 Z M64.495,91.95 L80.115,91.95 L80.115,96.295 L59.93,96.295 L59.93,58.125 L64.495,58.125 L64.495,91.95 Z M91.17,91.785 L107.835,91.785 L107.835,96.02 L86.605,96.02 L86.605,58.4 L102.61,58.4 L102.61,62.69 L91.17,62.69 L91.17,76.99 L105.085,76.99 L105.085,81.115 L91.17,81.115 L91.17,91.785 Z M134.125,58.125 L138.58,58.125 L138.58,88.32 L135.335,96.02 L130.77,96.02 L118.78,67.53 L118.78,96.295 L114.325,96.295 L114.325,58.4 L119.55,58.4 L133.025,90.52 L134.125,87.88 L134.125,58.125 Z M160.69,58.4 L167.345,78.2 L167.345,89.145 L164.925,96.295 L145.895,96.295 L145.895,58.4 L160.69,58.4 Z M150.35,92.005 L161.845,92.005 L162.89,89.035 L162.89,78.365 L157.61,62.69 L150.35,62.69 L150.35,92.005 Z M188.245,58.125 L197.54,80.345 L197.54,96.295 L193.195,96.295 L193.195,83.975 L178.785,83.975 L178.785,96.295 L174.385,96.295 L174.385,80.455 L183.735,58.125 L188.245,58.125 Z M185.99,63.9 L179.28,79.74 L192.645,79.74 L185.99,63.9 Z M226.58,96.295 L221.905,96.295 L215.965,82.215 L209.585,82.215 L209.585,96.295 L205.13,96.295 L205.13,58.4 L221.41,58.4 L226.305,70.005 L226.305,82.215 L220.695,82.215 L226.58,96.295 Z M209.585,62.69 L209.585,78.09 L221.85,78.09 L221.85,70.61 L218.495,62.69 L209.585,62.69 Z" id="logo8" fill="#000000"></path>
    </g>
</svg>