<?xml version="1.0" encoding="UTF-8"?>
<svg width="260px" height="100px" viewBox="0 0 260 100" version="1.1" xmlns="http://www.w3.org/2000/svg" xmlns:xlink="http://www.w3.org/1999/xlink">
    <!-- Generator: Sketch 48.2 (47327) - http://www.bohemiancoding.com/sketch -->
    <title>logo3</title>
    <desc>Created with Sketch.</desc>
    <defs></defs>
    <g id="Page-1" stroke="none" stroke-width="1" fill="none" fill-rule="evenodd">
        <path d="M18.55,3.1 L13.65,3.1 C12.2833265,3.1 11.033339,3.4833295 9.9,4.25 C8.766661,5.0166705 7.766671,5.90832825 6.9,6.925 C6.033329,7.94167175 5.30833625,8.95832825 4.725,9.975 C4.14166375,10.9916718 3.7000015,11.7499975 3.4,12.25 L2.7,12.25 L6.2,2.4 L36.35,2.4 L32.85,12.25 L32.15,12.25 C32.3166675,11.58333 32.433333,10.850004 32.5,10.05 C32.566667,9.249996 32.6,8.450004 32.6,7.65 C32.6,6.383327 32.2583367,5.30833775 31.575,4.425 C30.8916632,3.54166225 29.7000085,3.1 28,3.1 L23.05,3.1 L10.8,37.3 L16.5,37.3 L16.3,38 L0.85,38 L1.05,37.3 L6.3,37.3 L18.55,3.1 Z M25.1,22.3 C25.233334,21.766664 25.399999,21.133337 25.6,20.4 C25.800001,19.666663 26.0916648,18.96667 26.475,18.3 C26.8583352,17.63333 27.3416637,17.066669 27.925,16.6 C28.5083362,16.133331 29.2499955,15.9 30.15,15.9 C31.216672,15.9 32.1083297,16.1749972 32.825,16.725 C33.5416702,17.2750027 34.1083312,17.9666625 34.525,18.8 C34.9416687,19.6333375 35.2416658,20.5333285 35.425,21.5 C35.6083343,22.4666715 35.7,23.3666625 35.7,24.2 C35.7,26.400011 35.5750013,28.2916588 35.325,29.875 C35.0749988,31.4583412 34.8333345,32.783328 34.6,33.85 L34.7,33.85 L42.35,20.05 C42.616668,19.5499975 42.8916652,19.0500025 43.175,18.55 C43.4583347,18.0499975 43.7833315,17.6083352 44.15,17.225 C44.5166685,16.8416648 44.9416643,16.5250013 45.425,16.275 C45.9083358,16.0249988 46.4666635,15.9 47.1,15.9 C47.900004,15.9 48.4583318,16.099998 48.775,16.5 C49.0916683,16.900002 49.25,17.3499975 49.25,17.85 C49.25,18.4833365 49.050002,18.999998 48.65,19.4 C48.249998,19.800002 47.71667,20 47.05,20 C46.4166635,20 46.1,19.700003 46.1,19.1 C46.1,18.7333315 46.1916658,18.4583343 46.375,18.275 C46.5583342,18.0916658 46.65,17.8500015 46.65,17.55 C46.65,17.0499975 46.416669,16.833333 45.95,16.9 C45.549998,16.9333335 45.116669,17.2249973 44.65,17.775 C44.183331,18.3250028 43.583337,19.2499935 42.85,20.55 L33.75,37.05 L30.85,42.45 C30.2833305,43.516672 29.6916698,44.549995 29.075,45.55 C28.4583303,46.550005 27.8000035,47.4333295 27.1,48.2 C26.3999965,48.9666705 25.6666705,49.583331 24.9,50.05 C24.1333295,50.516669 23.3333375,50.75 22.5,50.75 C21.233327,50.75 20.2083372,50.4416698 19.425,49.825 C18.6416628,49.2083303 18.25,48.366672 18.25,47.3 C18.25,46.433329 18.4999975,45.8583347 19,45.575 C19.5000025,45.2916652 20.0333305,45.15 20.6,45.15 C21.0333355,45.15 21.383332,45.2583322 21.65,45.475 C21.916668,45.6916677 22.05,45.999998 22.05,46.4 C22.05,46.7000015 22.0250002,46.9249992 21.975,47.075 C21.9249998,47.2250007 21.866667,47.3749992 21.8,47.525 C21.733333,47.6750007 21.6750003,47.8416658 21.625,48.025 C21.5749997,48.2083343 21.55,48.466665 21.55,48.8 C21.55,49.1666685 21.7083318,49.4666655 22.025,49.7 C22.3416683,49.9333345 22.7499975,50.05 23.25,50.05 C24.183338,50.05 25.1583283,49.450006 26.175,48.25 C27.1916718,47.049994 28.1249957,45.4750098 28.975,43.525 C29.8250042,41.5749902 30.5249973,39.3416792 31.075,36.825 C31.6250028,34.3083208 31.9,31.7333465 31.9,29.1 C31.9,26.499987 31.833334,24.3833415 31.7,22.75 C31.566666,21.1166585 31.3916677,19.8416712 31.175,18.925 C30.9583323,18.0083288 30.716668,17.3916683 30.45,17.075 C30.183332,16.7583318 29.9000015,16.6 29.6,16.6 C28.999997,16.6 28.4833355,16.8249977 28.05,17.275 C27.6166645,17.7250022 27.2500015,18.2666635 26.95,18.9 C26.6499985,19.5333365 26.4083343,20.18333 26.225,20.85 C26.0416657,21.51667 25.9000005,22.0666645 25.8,22.5 L25.1,22.3 Z M53.2,32.7 C53.333334,33.3333365 53.499999,33.9583303 53.7,34.575 C53.900001,35.1916698 54.1916647,35.7499975 54.575,36.25 C54.9583352,36.7500025 55.4249972,37.1583318 55.975,37.475 C56.5250028,37.7916682 57.2166625,37.95 58.05,37.95 C58.983338,37.95 59.8749957,37.6750027 60.725,37.125 C61.5750042,36.5749973 62.366663,35.8583378 63.1,34.975 C63.833337,34.0916623 64.499997,33.0750058 65.1,31.925 C65.700003,30.7749943 66.2083312,29.6083392 66.625,28.425 C67.0416688,27.2416607 67.3666655,26.0750058 67.6,24.925 C67.8333345,23.7749942 67.95,22.7500045 67.95,21.85 C67.95,20.4166595 67.6666695,19.1833385 67.1,18.15 C66.5333305,17.1166615 65.516674,16.6 64.05,16.6 C63.183329,16.6 62.3916703,16.7833315 61.675,17.15 C60.9583298,17.5166685 60.3166695,17.966664 59.75,18.5 C59.1833305,19.033336 58.6833355,19.5749973 58.25,20.125 C57.8166645,20.6750027 57.4500015,21.149998 57.15,21.55 L53.2,32.7 Z M55.1,17.25 L50.45,17.25 L50.65,16.55 L58.55,16.55 L57.5,19.8 L57.6,19.8 C57.8333345,19.4333315 58.1583312,19.0250023 58.575,18.575 C58.9916687,18.1249978 59.4833305,17.700002 60.05,17.3 C60.6166695,16.899998 61.2416633,16.566668 61.925,16.3 C62.6083368,16.033332 63.349996,15.9 64.15,15.9 C65.3833395,15.9 66.4583287,16.1416643 67.375,16.625 C68.2916713,17.1083357 69.049997,17.749996 69.65,18.55 C70.250003,19.350004 70.6999985,20.283328 71,21.35 C71.3000015,22.416672 71.45,23.5333275 71.45,24.7 C71.45,26.100007 71.11667,27.6083253 70.45,29.225 C69.78333,30.8416747 68.850006,32.3416597 67.65,33.725 C66.449994,35.1083402 65.0250082,36.266662 63.375,37.2 C61.7249918,38.133338 59.9166765,38.6 57.95,38.6 C56.6499935,38.6 55.533338,38.1750043 54.6,37.325 C53.666662,36.4749958 53.0833345,35.3333405 52.85,33.9 L52.75,33.9 L46.65,51.25 L50.85,51.25 L50.65,51.95 L39.35,51.95 L39.55,51.25 L43.15,51.25 L55.1,17.25 Z M78.3,32.95 C78.3,34.6500085 78.7083292,35.9083293 79.525,36.725 C80.3416708,37.5416707 81.383327,37.95 82.65,37.95 C83.6833385,37.95 84.6499955,37.650003 85.55,37.05 C86.4500045,36.449997 87.266663,35.6583382 88,34.675 C88.733337,33.6916617 89.3833305,32.600006 89.95,31.4 C90.5166695,30.199994 90.9916647,29.000006 91.375,27.8 C91.7583353,26.599994 92.049999,25.466672 92.25,24.4 C92.450001,23.333328 92.55,22.46667 92.55,21.8 C92.55,20.199992 92.2083367,18.933338 91.525,18 C90.8416633,17.066662 89.6500085,16.6 87.95,16.6 C86.9833285,16.6 86.066671,16.8833305 85.2,17.45 C84.333329,18.0166695 83.5416702,18.7583288 82.825,19.675 C82.1083297,20.5916712 81.4666695,21.6333275 80.9,22.8 C80.3333305,23.9666725 79.8583352,25.1583273 79.475,26.375 C79.0916648,27.5916727 78.800001,28.7749943 78.6,29.925 C78.399999,31.0750058 78.3,32.083329 78.3,32.95 Z M75,30.15 C75,28.14999 75.4166625,26.2750087 76.25,24.525 C77.0833375,22.7749912 78.1416603,21.266673 79.425,20 C80.7083398,18.733327 82.1333255,17.733337 83.7,17 C85.2666745,16.266663 86.7666595,15.9 88.2,15.9 C89.5000065,15.9 90.6333285,16.166664 91.6,16.7 C92.5666715,17.233336 93.3666635,17.9166625 94,18.75 C94.6333365,19.5833375 95.0999985,20.499995 95.4,21.5 C95.7000015,22.500005 95.85,23.466662 95.85,24.4 C95.85,26.333343 95.4333375,28.1583248 94.6,29.875 C93.7666625,31.5916752 92.716673,33.0999935 91.45,34.4 C90.183327,35.7000065 88.7750077,36.7249963 87.225,37.475 C85.6749923,38.2250037 84.200007,38.6 82.8,38.6 C81.599994,38.6 80.5250047,38.366669 79.575,37.9 C78.6249952,37.433331 77.8083368,36.8166705 77.125,36.05 C76.4416632,35.2833295 75.9166685,34.3916718 75.55,33.375 C75.1833315,32.3583282 75,31.283339 75,30.15 Z M101.45,40.1 C100.549996,40.833337 99.866669,41.6583288 99.4,42.575 C98.933331,43.4916712 98.7,44.649993 98.7,46.05 C98.7,47.116672 98.8749983,48.0083298 99.225,48.725 C99.5750017,49.4416703 100.041664,50.033331 100.625,50.5 C101.208336,50.966669 101.874996,51.299999 102.625,51.5 C103.375004,51.700001 104.133329,51.8 104.9,51.8 C106.333341,51.8 107.69166,51.5583357 108.975,51.075 C110.25834,50.5916643 111.391662,49.9666705 112.375,49.2 C113.358338,48.4333295 114.133331,47.550005 114.7,46.55 C115.26667,45.549995 115.55,44.516672 115.55,43.45 C115.55,42.916664 115.458334,42.4083357 115.275,41.925 C115.091666,41.4416643 114.783336,41.0083353 114.35,40.625 C113.916665,40.2416647 113.333337,39.9250012 112.6,39.675 C111.866663,39.4249987 110.966672,39.2833335 109.9,39.25 L102.85,39 L101.45,40.1 Z M105.6,26.15 C105.6,27.7833415 105.949997,28.8916638 106.65,29.475 C107.350003,30.0583363 108.333327,30.35 109.6,30.35 C110.700006,30.35 111.658329,30.01667 112.475,29.35 C113.291671,28.68333 113.966664,27.8583382 114.5,26.875 C115.033336,25.8916618 115.424999,24.8250058 115.675,23.675 C115.925001,22.5249943 116.05,21.4666715 116.05,20.5 C116.05,19.033326 115.675004,18.0166695 114.925,17.45 C114.174996,16.8833305 113.250006,16.6 112.15,16.6 C111.116661,16.6 110.200004,16.9416633 109.4,17.625 C108.599996,18.3083368 107.916669,19.1333285 107.35,20.1 C106.78333,21.0666715 106.350001,22.0999945 106.05,23.2 C105.749998,24.3000055 105.6,25.283329 105.6,26.15 Z M110.85,36.1 C112.816677,36.2000005 114.424994,36.6666625 115.675,37.5 C116.925006,38.3333375 117.55,39.716657 117.55,41.65 C117.55,42.783339 117.26667,43.983327 116.7,45.25 C116.133331,46.516673 115.316672,47.6916613 114.25,48.775 C113.183328,49.8583388 111.875008,50.7499965 110.325,51.45 C108.774992,52.1500035 107.00001,52.5 105,52.5 C103.699993,52.5 102.466672,52.3250018 101.3,51.975 C100.133327,51.6249982 99.1083377,51.1666695 98.225,50.6 C97.3416622,50.0333305 96.6500025,49.3666705 96.15,48.6 C95.6499975,47.8333295 95.4,47.050004 95.4,46.25 C95.4,45.449996 95.5916648,44.7000035 95.975,44 C96.3583352,43.2999965 96.816664,42.6583362 97.35,42.075 C97.883336,41.4916637 98.4416638,40.9916688 99.025,40.575 C99.6083363,40.1583313 100.099998,39.8333345 100.5,39.6 L101.9,38.85 C101.566665,38.7499995 101.191669,38.633334 100.775,38.5 C100.358331,38.366666 99.9583352,38.166668 99.575,37.9 C99.1916647,37.633332 98.8750012,37.266669 98.625,36.8 C98.3749988,36.333331 98.25,35.7166705 98.25,34.95 C98.25,33.9166615 98.516664,32.9916708 99.05,32.175 C99.583336,31.3583292 100.483327,30.61667 101.75,29.95 L103.6,28.95 C103.166665,28.4499975 102.808335,27.9083362 102.525,27.325 C102.241665,26.7416637 102.1,25.983338 102.1,25.05 C102.1,23.849994 102.416663,22.7000055 103.05,21.6 C103.683336,20.4999945 104.499995,19.5250042 105.5,18.675 C106.500005,17.8249957 107.599994,17.1500025 108.8,16.65 C110.000006,16.1499975 111.166661,15.9 112.3,15.9 C113.166671,15.9 113.924997,15.999999 114.575,16.2 C115.225003,16.400001 115.799998,16.6583318 116.3,16.975 C116.800003,17.2916682 117.216665,17.6333315 117.55,18 C117.883335,18.3666685 118.149999,18.716665 118.35,19.05 C118.750002,18.449997 119.23333,17.8583362 119.8,17.275 C120.366669,16.6916637 121.166661,16.4 122.2,16.4 C123.066671,16.4 123.824997,16.699997 124.475,17.3 C125.125003,17.900003 125.45,18.633329 125.45,19.5 C125.45,20.100003 125.283335,20.5916648 124.95,20.975 C124.616665,21.3583352 124.066671,21.55 123.3,21.55 C122.833331,21.55 122.441668,21.4333345 122.125,21.2 C121.808332,20.9666655 121.65,20.6666685 121.65,20.3 C121.65,19.9999985 121.7,19.7666675 121.8,19.6 C121.900001,19.4333325 122.016666,19.283334 122.15,19.15 C122.283334,19.016666 122.399999,18.8583342 122.5,18.675 C122.600001,18.4916658 122.65,18.233335 122.65,17.9 C122.65,17.699999 122.566667,17.5166675 122.4,17.35 C122.233332,17.1833325 122.000002,17.1 121.7,17.1 C121.166664,17.1 120.641669,17.3499975 120.125,17.85 C119.608331,18.3500025 119.166669,18.9833295 118.8,19.75 C119.000001,20.016668 119.174999,20.4083308 119.325,20.925 C119.475001,21.4416693 119.55,21.9166645 119.55,22.35 C119.55,23.416672 119.24167,24.4666615 118.625,25.5 C118.00833,26.5333385 117.208338,27.4666625 116.225,28.3 C115.241662,29.1333375 114.166673,29.7999975 113,30.3 C111.833327,30.8000025 110.700006,31.05 109.6,31.05 C108.066659,31.05 106.891671,30.8583352 106.075,30.475 C105.258329,30.0916648 104.633335,29.766668 104.2,29.5 L103.15,30 C102.083328,30.5000025 101.275003,31.0583302 100.725,31.675 C100.174997,32.2916697 99.9,32.899997 99.9,33.5 C99.9,34.233337 100.25833,34.7749983 100.975,35.125 C101.69167,35.4750017 102.849992,35.6999995 104.45,35.8 L110.85,36.1 Z M130.65,22.6 C130.950001,21.733329 131.233332,20.8500045 131.5,19.95 L132.3,17.25 L127.95,17.25 L128.15,16.55 L135.85,16.55 C135.683333,17.2500035 135.441668,18.133328 135.125,19.2 C134.808332,20.266672 134.466668,21.299995 134.1,22.3 L134.2,22.4 C134.533335,21.8999975 134.949997,21.3000035 135.45,20.6 C135.950002,19.8999965 136.516664,19.2250032 137.15,18.575 C137.783336,17.9249967 138.48333,17.3750022 139.25,16.925 C140.01667,16.4749977 140.833329,16.25 141.7,16.25 C142.93334,16.25 143.874997,16.5999965 144.525,17.3 C145.175003,18.0000035 145.483334,18.749996 145.45,19.55 C145.45,20.083336 145.358334,20.5249983 145.175,20.875 C144.991666,21.2250017 144.758335,21.4916658 144.475,21.675 C144.191665,21.8583342 143.900001,21.983333 143.6,22.05 C143.299999,22.116667 143.016668,22.15 142.75,22.15 C142.283331,22.15 141.900001,22.0333345 141.6,21.8 C141.299999,21.5666655 141.15,21.216669 141.15,20.75 C141.15,20.3833315 141.224999,20.1083342 141.375,19.925 C141.525001,19.7416657 141.683333,19.5666675 141.85,19.4 C142.016668,19.2333325 142.174999,19.050001 142.325,18.85 C142.475001,18.649999 142.55,18.383335 142.55,18.05 C142.55,17.716665 142.416668,17.450001 142.15,17.25 C141.883332,17.049999 141.550002,16.95 141.15,16.95 C140.516664,16.95 139.783338,17.2749968 138.95,17.925 C138.116663,18.5750033 137.291671,19.4083283 136.475,20.425 C135.658329,21.4416718 134.883337,22.5999935 134.15,23.9 C133.416663,25.2000065 132.816669,26.4999935 132.35,27.8 L128.75,38 L125.25,38 L130.65,22.6 Z M163.1,23.1 C163.500002,22.033328 163.758333,21.2750023 163.875,20.825 C163.991667,20.3749978 164.05,19.983335 164.05,19.65 C164.05,19.3499985 164.008334,19.0250018 163.925,18.675 C163.841666,18.3249983 163.691668,18.0000015 163.475,17.7 C163.258332,17.3999985 162.966668,17.1416678 162.6,16.925 C162.233332,16.7083323 161.750003,16.6 161.15,16.6 C160.049994,16.6 158.975005,16.9083303 157.925,17.525 C156.874995,18.1416698 155.891671,18.949995 154.975,19.95 C154.058329,20.950005 153.21667,22.0916603 152.45,23.375 C151.683329,24.6583397 151.025003,25.9583267 150.475,27.275 C149.924997,28.5916732 149.500002,29.8666605 149.2,31.1 C148.899999,32.3333395 148.75,33.416662 148.75,34.35 C148.75,35.416672 148.958331,36.28333 149.375,36.95 C149.791669,37.61667 150.483328,37.95 151.45,37.95 C152.416672,37.95 153.399995,37.650003 154.4,37.05 C155.400005,36.449997 156.316662,35.7333375 157.15,34.9 C157.983338,34.0666625 158.699997,33.2333375 159.3,32.4 C159.900003,31.5666625 160.283332,30.916669 160.45,30.45 L163.1,23.1 Z M163.5,31.7 C163.199999,32.566671 162.941668,33.399996 162.725,34.2 C162.508332,35.000004 162.4,35.7166635 162.4,36.35 C162.4,37.216671 162.816662,37.65 163.65,37.65 C164.31667,37.65 164.916664,37.4583353 165.45,37.075 C165.983336,36.6916647 166.441665,36.2583358 166.825,35.775 C167.208335,35.2916642 167.524999,34.8083357 167.775,34.325 C168.025001,33.8416643 168.2,33.500001 168.3,33.3 L168.95,33.65 C168.783332,34.0166685 168.533335,34.4833305 168.2,35.05 C167.866665,35.6166695 167.433336,36.1583308 166.9,36.675 C166.366664,37.1916693 165.750004,37.6416648 165.05,38.025 C164.349997,38.4083352 163.533338,38.6 162.6,38.6 C160.399989,38.6 159.3,37.60001 159.3,35.6 C159.3,35.3666655 159.349999,34.9583363 159.45,34.375 C159.55,33.7916637 159.683333,33.266669 159.85,32.8 L159.75,32.8 C159.283331,33.3666695 158.750003,33.9916632 158.15,34.675 C157.549997,35.3583368 156.875004,35.9916637 156.125,36.575 C155.374996,37.1583362 154.550004,37.6416648 153.65,38.025 C152.749996,38.4083352 151.750006,38.6 150.65,38.6 C149.949997,38.6 149.275003,38.4750012 148.625,38.225 C147.974997,37.9749987 147.400003,37.5916692 146.9,37.075 C146.399997,36.5583307 146.008335,35.900004 145.725,35.1 C145.441665,34.299996 145.3,33.3500055 145.3,32.25 C145.3,30.91666 145.566664,29.58334 146.1,28.25 C146.633336,26.91666 147.324996,25.6416727 148.175,24.425 C149.025004,23.2083273 150.008328,22.0833385 151.125,21.05 C152.241672,20.0166615 153.374994,19.1166705 154.525,18.35 C155.675006,17.5833295 156.808328,16.9833355 157.925,16.55 C159.041672,16.1166645 160.033329,15.9 160.9,15.9 C161.900005,15.9 162.749996,16.1833305 163.45,16.75 C164.150003,17.3166695 164.5,18.066662 164.5,19 L164.6,19 L165.45,16.55 L168.95,16.55 L163.5,31.7 Z M177.25,32.7 C177.383334,33.3333365 177.549999,33.9583303 177.75,34.575 C177.950001,35.1916698 178.241665,35.7499975 178.625,36.25 C179.008335,36.7500025 179.474997,37.1583318 180.025,37.475 C180.575003,37.7916682 181.266662,37.95 182.1,37.95 C183.033338,37.95 183.924996,37.6750027 184.775,37.125 C185.625004,36.5749973 186.416663,35.8583378 187.15,34.975 C187.883337,34.0916623 188.549997,33.0750058 189.15,31.925 C189.750003,30.7749943 190.258331,29.6083392 190.675,28.425 C191.091669,27.2416607 191.416665,26.0750058 191.65,24.925 C191.883335,23.7749942 192,22.7500045 192,21.85 C192,20.4166595 191.71667,19.1833385 191.15,18.15 C190.583331,17.1166615 189.566674,16.6 188.1,16.6 C187.233329,16.6 186.44167,16.7833315 185.725,17.15 C185.00833,17.5166685 184.366669,17.966664 183.8,18.5 C183.23333,19.033336 182.733336,19.5749973 182.3,20.125 C181.866665,20.6750027 181.500002,21.149998 181.2,21.55 L177.25,32.7 Z M179.15,17.25 L174.5,17.25 L174.7,16.55 L182.6,16.55 L181.55,19.8 L181.65,19.8 C181.883335,19.4333315 182.208331,19.0250023 182.625,18.575 C183.041669,18.1249978 183.53333,17.700002 184.1,17.3 C184.666669,16.899998 185.291663,16.566668 185.975,16.3 C186.658337,16.033332 187.399996,15.9 188.2,15.9 C189.433339,15.9 190.508329,16.1416643 191.425,16.625 C192.341671,17.1083357 193.099997,17.749996 193.7,18.55 C194.300003,19.350004 194.749998,20.283328 195.05,21.35 C195.350001,22.416672 195.5,23.5333275 195.5,24.7 C195.5,26.100007 195.16667,27.6083253 194.5,29.225 C193.83333,30.8416747 192.900006,32.3416597 191.7,33.725 C190.499994,35.1083402 189.075008,36.266662 187.425,37.2 C185.774992,38.133338 183.966676,38.6 182,38.6 C180.699993,38.6 179.583338,38.1750043 178.65,37.325 C177.716662,36.4749958 177.133335,35.3333405 176.9,33.9 L176.8,33.9 L170.7,51.25 L174.9,51.25 L174.7,51.95 L163.4,51.95 L163.6,51.25 L167.2,51.25 L179.15,17.25 Z M212.4,0.7 L207.85,0.7 L208.05,0 L215.95,0 L207.6,22.65 L207.7,22.65 C208.200002,21.98333 208.78333,21.2750037 209.45,20.525 C210.11667,19.7749963 210.849996,19.0833365 211.65,18.45 C212.450004,17.8166635 213.291662,17.2916687 214.175,16.875 C215.058338,16.4583313 215.949996,16.25 216.85,16.25 C218.250007,16.25 219.358329,16.6249962 220.175,17.375 C220.991671,18.1250038 221.4,19.0499945 221.4,20.15 C221.4,20.7166695 221.308334,21.2749973 221.125,21.825 C220.941666,22.3750028 220.716668,23.0333295 220.45,23.8 L217.2,33.05 C216.999999,33.6166695 216.816667,34.1749972 216.65,34.725 C216.483332,35.2750027 216.4,35.816664 216.4,36.35 C216.4,36.750002 216.483332,37.116665 216.65,37.45 C216.816667,37.783335 217.166664,37.95 217.7,37.95 C218.300003,37.95 218.849997,37.783335 219.35,37.45 C219.850003,37.116665 220.308331,36.716669 220.725,36.25 C221.141669,35.783331 221.499998,35.2916692 221.8,34.775 C222.100001,34.2583308 222.333332,33.8166685 222.5,33.45 L223.05,33.7 C222.883333,34.033335 222.650001,34.4749972 222.35,35.025 C222.049998,35.5750028 221.658336,36.116664 221.175,36.65 C220.691664,37.183336 220.100003,37.6416648 219.4,38.025 C218.699996,38.4083352 217.866671,38.6 216.9,38.6 C215.833328,38.6 214.933337,38.366669 214.2,37.9 C213.466663,37.433331 213.1,36.666672 213.1,35.6 C213.1,35.1666645 213.158333,34.716669 213.275,34.25 C213.391667,33.783331 213.533332,33.283336 213.7,32.75 L217.9,20.8 C218.166668,19.999996 218.3,19.333336 218.3,18.8 C218.3,18.3666645 218.158335,17.950002 217.875,17.55 C217.591665,17.149998 217.083337,16.95 216.35,16.95 C215.616663,16.95 214.766672,17.2249972 213.8,17.775 C212.833328,18.3250028 211.866671,19.0749953 210.9,20.025 C209.933329,20.9750048 209.025004,22.0916603 208.175,23.375 C207.324996,24.6583397 206.633336,26.0499925 206.1,27.55 L202.35,38 L198.9,38 L212.4,0.7 Z M235.75,4.75 C235.75,4.08333 235.974998,3.52500225 236.425,3.075 C236.875002,2.62499775 237.43333,2.4 238.1,2.4 C238.76667,2.4 239.324998,2.62499775 239.775,3.075 C240.225002,3.52500225 240.45,4.08333 240.45,4.75 C240.45,5.41667 240.225002,5.97499775 239.775,6.425 C239.324998,6.87500225 238.76667,7.1 238.1,7.1 C237.43333,7.1 236.875002,6.87500225 236.425,6.425 C235.974998,5.97499775 235.75,5.41667 235.75,4.75 Z M232.65,17.25 L228.2,17.25 L228.4,16.55 L236.35,16.55 L230.45,33.5 C230.283332,34.0000025 230.116667,34.5083308 229.95,35.025 C229.783332,35.5416692 229.7,36.033331 229.7,36.5 C229.7,36.900002 229.816666,37.2416652 230.05,37.525 C230.283334,37.8083347 230.633331,37.95 231.1,37.95 C231.633336,37.95 232.158331,37.7666685 232.675,37.4 C233.191669,37.0333315 233.666665,36.6083357 234.1,36.125 C234.533336,35.6416643 234.899999,35.1500025 235.2,34.65 C235.500002,34.1499975 235.716666,33.7500015 235.85,33.45 L236.45,33.7 C236.316666,33.966668 236.108335,34.3749972 235.825,34.925 C235.541665,35.4750027 235.150003,36.0249973 234.65,36.575 C234.149997,37.1250028 233.533337,37.599998 232.8,38 C232.066663,38.400002 231.200005,38.6 230.2,38.6 C229.099994,38.6 228.225003,38.3750022 227.575,37.925 C226.924997,37.4749977 226.6,36.716672 226.6,35.65 C226.6,35.0833305 226.699999,34.4583368 226.9,33.775 C227.100001,33.0916633 227.299999,32.4666695 227.5,31.9 L232.65,17.25 Z M257,33.1 C256.599998,33.7333365 256.125003,34.3749967 255.575,35.025 C255.024997,35.6750033 254.39167,36.266664 253.675,36.8 C252.95833,37.333336 252.133338,37.766665 251.2,38.1 C250.266662,38.433335 249.216672,38.6 248.05,38.6 C246.81666,38.6 245.716671,38.400002 244.75,38 C243.783328,37.599998 242.975003,37.0583368 242.325,36.375 C241.674997,35.6916633 241.175002,34.9000045 240.825,34 C240.474998,33.0999955 240.3,32.1333385 240.3,31.1 C240.3,29.3999915 240.699996,27.6583422 241.5,25.875 C242.300004,24.0916577 243.36666,22.4583407 244.7,20.975 C246.03334,19.4916592 247.558325,18.2750047 249.275,17.325 C250.991675,16.3749952 252.766658,15.9 254.6,15.9 C255.166669,15.9 255.724997,15.966666 256.275,16.1 C256.825003,16.233334 257.316665,16.4499985 257.75,16.75 C258.183335,17.0500015 258.541665,17.4583308 258.825,17.975 C259.108335,18.4916692 259.25,19.1333295 259.25,19.9 C259.25,21.0000055 258.975003,21.716665 258.425,22.05 C257.874997,22.383335 257.300003,22.55 256.7,22.55 C256.099997,22.55 255.683335,22.4250012 255.45,22.175 C255.216666,21.9249987 255.1,21.633335 255.1,21.3 C255.1,20.899998 255.166666,20.5750013 255.3,20.325 C255.433334,20.0749988 255.591666,19.850001 255.775,19.65 C255.958334,19.449999 256.116666,19.2250012 256.25,18.975 C256.383334,18.7249987 256.45,18.400002 256.45,18 C256.45,17.466664 256.258335,17.100001 255.875,16.9 C255.491665,16.699999 254.96667,16.6 254.3,16.6 C253.233328,16.6 252.233338,16.866664 251.3,17.4 C250.366662,17.933336 249.508337,18.6416623 248.725,19.525 C247.941663,20.4083377 247.250003,21.416661 246.65,22.55 C246.049997,23.683339 245.533336,24.849994 245.1,26.05 C244.666665,27.250006 244.341668,28.4333275 244.125,29.6 C243.908332,30.7666725 243.8,31.8333285 243.8,32.8 C243.8,34.2333405 244.208329,35.449995 245.025,36.45 C245.841671,37.450005 247.099992,37.95 248.8,37.95 C249.733338,37.95 250.591663,37.7750018 251.375,37.425 C252.158337,37.0749983 252.866663,36.633336 253.5,36.1 C254.133337,35.566664 254.683331,34.9916698 255.15,34.375 C255.616669,33.7583302 255.999998,33.2000025 256.3,32.7 L257,33.1 Z M29.6,73.05 L28.95,73.05 C29.016667,72.716665 29.083333,72.2333365 29.15,71.6 C29.216667,70.9666635 29.25,70.31667 29.25,69.65 C29.25,68.583328 29.050002,67.6583372 28.65,66.875 C28.249998,66.0916627 27.7083367,65.4500025 27.025,64.95 C26.3416633,64.4499975 25.533338,64.0750012 24.6,63.825 C23.666662,63.5749987 22.666672,63.45 21.6,63.45 C19.866658,63.45 18.2500075,63.949995 16.75,64.95 C15.2499925,65.950005 13.8750062,67.249992 12.625,68.85 C11.3749938,70.450008 10.2583382,72.2583232 9.275,74.275 C8.29166175,76.2916767 7.45833675,78.3166565 6.775,80.35 C6.09166325,82.3833435 5.57500175,84.333324 5.225,86.2 C4.87499825,88.066676 4.7,89.66666 4.7,91 C4.7,93.7000135 5.433326,95.7083267 6.9,97.025 C8.366674,98.3416732 10.4499865,99 13.15,99 C14.6500075,99 15.9833275,98.733336 17.15,98.2 C18.3166725,97.666664 19.3499955,97.0166705 20.25,96.25 C21.1500045,95.4833295 21.9083303,94.6500045 22.525,93.75 C23.1416697,92.8499955 23.649998,92.033337 24.05,91.3 L24.7,91.65 C24.499999,92.050002 24.133336,92.6916623 23.6,93.575 C23.066664,94.4583377 22.3250048,95.3499955 21.375,96.25 C20.4249953,97.1500045 19.2666735,97.9416633 17.9,98.625 C16.5333265,99.3083367 14.916676,99.65 13.05,99.65 C10.783322,99.65 8.87500775,99.2416707 7.325,98.425 C5.77499225,97.6083292 4.52500475,96.5416733 3.575,95.225 C2.62499525,93.9083267 1.94166875,92.4000085 1.525,90.7 C1.10833125,88.9999915 0.9,87.250009 0.9,85.45 C0.9,83.4166565 1.20833025,81.4500095 1.825,79.55 C2.44166975,77.6499905 3.27499475,75.8583418 4.325,74.175 C5.37500525,72.4916582 6.599993,70.950007 8,69.55 C9.400007,68.149993 10.8749922,66.950005 12.425,65.95 C13.9750078,64.949995 15.549992,64.1666695 17.15,63.6 C18.750008,63.0333305 20.283326,62.75 21.75,62.75 C22.8500055,62.75 23.8166625,62.849999 24.65,63.05 C25.4833375,63.250001 26.2249967,63.4749987 26.875,63.725 C27.5250033,63.9750012 28.116664,64.199999 28.65,64.4 C29.183336,64.600001 29.6999975,64.7 30.2,64.7 C30.733336,64.7 31.166665,64.5583347 31.5,64.275 C31.833335,63.9916652 32.099999,63.650002 32.3,63.25 L33.05,63.4 L29.6,73.05 Z M48.15,84.1 C48.550002,83.033328 48.8083328,82.2750022 48.925,81.825 C49.0416673,81.3749978 49.1,80.983335 49.1,80.65 C49.1,80.3499985 49.0583337,80.0250017 48.975,79.675 C48.8916663,79.3249983 48.7416678,79.0000015 48.525,78.7 C48.3083322,78.3999985 48.0166685,78.1416677 47.65,77.925 C47.2833315,77.7083322 46.800003,77.6 46.2,77.6 C45.0999945,77.6 44.0250053,77.9083302 42.975,78.525 C41.9249947,79.1416697 40.9416712,79.949995 40.025,80.95 C39.1083288,81.950005 38.2666705,83.0916603 37.5,84.375 C36.7333295,85.6583397 36.0750028,86.9583267 35.525,88.275 C34.9749972,89.5916732 34.5500015,90.8666605 34.25,92.1 C33.9499985,93.3333395 33.8,94.416662 33.8,95.35 C33.8,96.416672 34.0083313,97.28333 34.425,97.95 C34.8416688,98.61667 35.5333285,98.95 36.5,98.95 C37.4666715,98.95 38.449995,98.650003 39.45,98.05 C40.450005,97.449997 41.3666625,96.7333375 42.2,95.9 C43.0333375,95.0666625 43.749997,94.2333375 44.35,93.4 C44.950003,92.5666625 45.3333325,91.916669 45.5,91.45 L48.15,84.1 Z M48.55,92.7 C48.2499985,93.566671 47.9916678,94.399996 47.775,95.2 C47.5583322,96.000004 47.45,96.7166635 47.45,97.35 C47.45,98.216671 47.8666625,98.65 48.7,98.65 C49.36667,98.65 49.966664,98.4583352 50.5,98.075 C51.033336,97.6916647 51.4916647,97.2583358 51.875,96.775 C52.2583353,96.2916642 52.5749988,95.8083357 52.825,95.325 C53.0750013,94.8416642 53.2499995,94.500001 53.35,94.3 L54,94.65 C53.8333325,95.0166685 53.583335,95.4833305 53.25,96.05 C52.916665,96.6166695 52.483336,97.1583307 51.95,97.675 C51.416664,98.1916693 50.8000035,98.6416648 50.1,99.025 C49.3999965,99.4083352 48.583338,99.6 47.65,99.6 C45.449989,99.6 44.35,98.60001 44.35,96.6 C44.35,96.3666655 44.3999995,95.9583362 44.5,95.375 C44.6000005,94.7916637 44.7333325,94.266669 44.9,93.8 L44.8,93.8 C44.333331,94.3666695 43.800003,94.9916632 43.2,95.675 C42.599997,96.3583368 41.9250038,96.9916637 41.175,97.575 C40.4249963,98.1583362 39.6000045,98.6416648 38.7,99.025 C37.7999955,99.4083352 36.8000055,99.6 35.7,99.6 C34.9999965,99.6 34.3250033,99.4750012 33.675,99.225 C33.0249967,98.9749987 32.4500025,98.5916692 31.95,98.075 C31.4499975,97.5583307 31.0583348,96.900004 30.775,96.1 C30.4916653,95.299996 30.35,94.3500055 30.35,93.25 C30.35,91.91666 30.616664,90.58334 31.15,89.25 C31.683336,87.91666 32.3749957,86.6416727 33.225,85.425 C34.0750042,84.2083273 35.0583277,83.0833385 36.175,82.05 C37.2916722,81.0166615 38.4249943,80.1166705 39.575,79.35 C40.7250058,78.5833295 41.8583277,77.9833355 42.975,77.55 C44.0916723,77.1166645 45.083329,76.9 45.95,76.9 C46.950005,76.9 47.7999965,77.1833305 48.5,77.75 C49.2000035,78.3166695 49.55,79.066662 49.55,80 L49.65,80 L50.5,77.55 L54,77.55 L48.55,92.7 Z M73.7,61 L61.8,94.5 C61.6333325,95.0000025 61.4666675,95.5083308 61.3,96.025 C61.1333325,96.5416692 61.05,97.033331 61.05,97.5 C61.05,97.900002 61.1666655,98.2416652 61.4,98.525 C61.6333345,98.8083347 61.983331,98.95 62.45,98.95 C62.983336,98.95 63.5083307,98.7666685 64.025,98.4 C64.5416693,98.0333315 65.0166645,97.6083357 65.45,97.125 C65.8833355,96.6416642 66.2499985,96.1500025 66.55,95.65 C66.8500015,95.1499975 67.066666,94.7500015 67.2,94.45 L67.8,94.7 C67.666666,94.966668 67.4583347,95.3749972 67.175,95.925 C66.8916652,96.4750027 66.5000025,97.0249973 66,97.575 C65.4999975,98.1250028 64.883337,98.599998 64.15,99 C63.416663,99.400002 62.550005,99.6 61.55,99.6 C60.4499945,99.6 59.5750033,99.3750022 58.925,98.925 C58.2749967,98.4749977 57.95,97.716672 57.95,96.65 C57.95,96.0833305 58.049999,95.4583368 58.25,94.775 C58.450001,94.0916633 58.649999,93.4666695 58.85,92.9 L70,61.7 L65.55,61.7 L65.75,61 L73.7,61 Z M87.75,80 C87.75,79.33333 87.550002,78.766669 87.15,78.3 C86.749998,77.833331 86.083338,77.6 85.15,77.6 C84.1166615,77.6 83.1250048,77.899997 82.175,78.5 C81.2249953,79.100003 80.3666705,79.8416622 79.6,80.725 C78.8333295,81.6083378 78.1666695,82.5583282 77.6,83.575 C77.0333305,84.5916717 76.6000015,85.533329 76.3,86.4 C77.0666705,86.533334 77.916662,86.6 78.85,86.6 C80.050006,86.6 81.183328,86.4166685 82.25,86.05 C83.316672,85.6833315 84.2583293,85.200003 85.075,84.6 C85.8916708,83.999997 86.5416642,83.300004 87.025,82.5 C87.5083358,81.699996 87.75,80.866671 87.75,80 Z M87.85,94.1 C87.649999,94.3333345 87.350002,94.7583302 86.95,95.375 C86.549998,95.9916698 86.0000035,96.6083302 85.3,97.225 C84.5999965,97.8416697 83.7416718,98.3916643 82.725,98.875 C81.7083283,99.3583357 80.4833405,99.6 79.05,99.6 C77.6166595,99.6 76.4083383,99.366669 75.425,98.9 C74.4416618,98.433331 73.6416697,97.833337 73.025,97.1 C72.4083303,96.366663 71.9583347,95.5583377 71.675,94.675 C71.3916652,93.7916622 71.25,92.9333375 71.25,92.1 C71.25,90.433325 71.6583292,88.7083422 72.475,86.925 C73.2916708,85.1416578 74.3583268,83.5083407 75.675,82.025 C76.9916733,80.5416592 78.483325,79.3166715 80.15,78.35 C81.816675,77.3833285 83.516658,76.9 85.25,76.9 C85.91667,76.9 86.58333,76.9749992 87.25,77.125 C87.91667,77.2750007 88.516664,77.4999985 89.05,77.8 C89.583336,78.1000015 90.016665,78.483331 90.35,78.95 C90.683335,79.416669 90.85,79.98333 90.85,80.65 C90.85,81.5500045 90.6083357,82.3416632 90.125,83.025 C89.6416643,83.7083367 89.0166705,84.2916642 88.25,84.775 C87.4833295,85.2583358 86.6416712,85.666665 85.725,86 C84.8083288,86.333335 83.916671,86.5916657 83.05,86.775 C82.183329,86.9583342 81.3916703,87.0916662 80.675,87.175 C79.9583298,87.2583338 79.433335,87.3 79.1,87.3 C78.5333305,87.3 77.983336,87.2833335 77.45,87.25 C76.916664,87.2166665 76.450002,87.166667 76.05,87.1 C75.6833315,88.166672 75.3750012,89.2249947 75.125,90.275 C74.8749988,91.3250052 74.75,92.4333275 74.75,93.6 C74.75,95.400009 75.216662,96.7416622 76.15,97.625 C77.083338,98.5083377 78.2666595,98.95 79.7,98.95 C80.766672,98.95 81.7083292,98.7416688 82.525,98.325 C83.3416708,97.9083312 84.0583302,97.4166695 84.675,96.85 C85.2916697,96.2833305 85.8083313,95.7083362 86.225,95.125 C86.6416688,94.5416637 86.983332,94.083335 87.25,93.75 L87.85,94.1 Z M99.5,78.25 L94.95,78.25 L95.15,77.55 L103.05,77.55 L101,83.7 L101.1,83.7 C104.333349,79.3999785 107.383319,77.25 110.25,77.25 C111.650007,77.25 112.758329,77.6249962 113.575,78.375 C114.391671,79.1250038 114.8,80.0499945 114.8,81.15 C114.8,81.7166695 114.708334,82.2749973 114.525,82.825 C114.341666,83.3750028 114.116668,84.0333295 113.85,84.8 L110.6,94.05 C110.399999,94.6166695 110.216668,95.1749972 110.05,95.725 C109.883333,96.2750027 109.8,96.816664 109.8,97.35 C109.8,97.750002 109.883333,98.116665 110.05,98.45 C110.216668,98.783335 110.566664,98.95 111.1,98.95 C111.700003,98.95 112.249998,98.783335 112.75,98.45 C113.250002,98.116665 113.708331,97.716669 114.125,97.25 C114.541669,96.783331 114.899999,96.2916692 115.2,95.775 C115.500002,95.2583308 115.733332,94.8166685 115.9,94.45 L116.45,94.7 C116.283332,95.033335 116.050002,95.4749973 115.75,96.025 C115.449998,96.5750028 115.058336,97.116664 114.575,97.65 C114.091664,98.183336 113.500004,98.6416648 112.8,99.025 C112.099997,99.4083352 111.266672,99.6 110.3,99.6 C109.233328,99.6 108.333337,99.366669 107.6,98.9 C106.866663,98.433331 106.5,97.666672 106.5,96.6 C106.5,96.1666645 106.558333,95.716669 106.675,95.25 C106.791667,94.783331 106.933333,94.283336 107.1,93.75 L111.3,81.8 C111.566668,80.999996 111.7,80.333336 111.7,79.8 C111.7,79.3666645 111.558335,78.950002 111.275,78.55 C110.991665,78.149998 110.483337,77.95 109.75,77.95 C109.016663,77.95 108.166672,78.2249973 107.2,78.775 C106.233328,79.3250028 105.266672,80.0749953 104.3,81.025 C103.333329,81.9750047 102.425004,83.0916603 101.575,84.375 C100.724996,85.6583397 100.033336,87.0499925 99.5,88.55 L95.75,99 L92.3,99 L99.5,78.25 Z M137.05,84.1 C137.450002,83.033328 137.708333,82.2750022 137.825,81.825 C137.941667,81.3749978 138,80.983335 138,80.65 C138,80.3499985 137.958334,80.0250017 137.875,79.675 C137.791666,79.3249983 137.641668,79.0000015 137.425,78.7 C137.208332,78.3999985 136.916669,78.1416677 136.55,77.925 C136.183331,77.7083322 135.700003,77.6 135.1,77.6 C133.999994,77.6 132.925005,77.9083302 131.875,78.525 C130.824995,79.1416697 129.841671,79.949995 128.925,80.95 C128.008329,81.950005 127.166671,83.0916603 126.4,84.375 C125.633329,85.6583397 124.975003,86.9583267 124.425,88.275 C123.874997,89.5916732 123.450002,90.8666605 123.15,92.1 C122.849999,93.3333395 122.7,94.416662 122.7,95.35 C122.7,96.416672 122.908331,97.28333 123.325,97.95 C123.741669,98.61667 124.433329,98.95 125.4,98.95 C126.366671,98.95 127.349995,98.650003 128.35,98.05 C129.350005,97.449997 130.266662,96.7333375 131.1,95.9 C131.933338,95.0666625 132.649997,94.2333375 133.25,93.4 C133.850003,92.5666625 134.233332,91.916669 134.4,91.45 L137.05,84.1 Z M137.45,92.7 C137.149999,93.566671 136.891668,94.399996 136.675,95.2 C136.458332,96.000004 136.35,96.7166635 136.35,97.35 C136.35,98.216671 136.766662,98.65 137.6,98.65 C138.26667,98.65 138.866664,98.4583353 139.4,98.075 C139.933336,97.6916647 140.391665,97.2583358 140.775,96.775 C141.158335,96.2916642 141.474999,95.8083357 141.725,95.325 C141.975001,94.8416643 142.149999,94.500001 142.25,94.3 L142.9,94.65 C142.733332,95.0166685 142.483335,95.4833305 142.15,96.05 C141.816665,96.6166695 141.383336,97.1583308 140.85,97.675 C140.316664,98.1916693 139.700004,98.6416648 139,99.025 C138.299996,99.4083352 137.483338,99.6 136.55,99.6 C134.349989,99.6 133.25,98.60001 133.25,96.6 C133.25,96.3666655 133.3,95.9583363 133.4,95.375 C133.5,94.7916637 133.633333,94.266669 133.8,93.8 L133.7,93.8 C133.233331,94.3666695 132.700003,94.9916632 132.1,95.675 C131.499997,96.3583368 130.825004,96.9916637 130.075,97.575 C129.324996,98.1583362 128.500004,98.6416648 127.6,99.025 C126.699996,99.4083352 125.700006,99.6 124.6,99.6 C123.899997,99.6 123.225003,99.4750012 122.575,99.225 C121.924997,98.9749987 121.350003,98.5916692 120.85,98.075 C120.349997,97.5583307 119.958335,96.900004 119.675,96.1 C119.391665,95.299996 119.25,94.3500055 119.25,93.25 C119.25,91.91666 119.516664,90.58334 120.05,89.25 C120.583336,87.91666 121.274996,86.6416727 122.125,85.425 C122.975004,84.2083273 123.958328,83.0833385 125.075,82.05 C126.191672,81.0166615 127.324994,80.1166705 128.475,79.35 C129.625006,78.5833295 130.758328,77.9833355 131.875,77.55 C132.991672,77.1166645 133.983329,76.9 134.85,76.9 C135.850005,76.9 136.699996,77.1833305 137.4,77.75 C138.100003,78.3166695 138.45,79.066662 138.45,80 L138.55,80 L145.05,61.7 L140.65,61.7 L140.85,61 L148.8,61 L137.45,92.7 Z M163.9,84.1 C164.300002,83.033328 164.558333,82.2750022 164.675,81.825 C164.791667,81.3749978 164.85,80.983335 164.85,80.65 C164.85,80.3499985 164.808334,80.0250017 164.725,79.675 C164.641666,79.3249983 164.491668,79.0000015 164.275,78.7 C164.058332,78.3999985 163.766668,78.1416677 163.4,77.925 C163.033332,77.7083322 162.550003,77.6 161.95,77.6 C160.849995,77.6 159.775005,77.9083302 158.725,78.525 C157.674995,79.1416697 156.691671,79.949995 155.775,80.95 C154.858329,81.950005 154.01667,83.0916603 153.25,84.375 C152.48333,85.6583397 151.825003,86.9583267 151.275,88.275 C150.724997,89.5916732 150.300002,90.8666605 150,92.1 C149.699998,93.3333395 149.55,94.416662 149.55,95.35 C149.55,96.416672 149.758331,97.28333 150.175,97.95 C150.591669,98.61667 151.283328,98.95 152.25,98.95 C153.216672,98.95 154.199995,98.650003 155.2,98.05 C156.200005,97.449997 157.116663,96.7333375 157.95,95.9 C158.783338,95.0666625 159.499997,94.2333375 160.1,93.4 C160.700003,92.5666625 161.083332,91.916669 161.25,91.45 L163.9,84.1 Z M164.3,92.7 C163.999998,93.566671 163.741668,94.399996 163.525,95.2 C163.308332,96.000004 163.2,96.7166635 163.2,97.35 C163.2,98.216671 163.616663,98.65 164.45,98.65 C165.11667,98.65 165.716664,98.4583352 166.25,98.075 C166.783336,97.6916647 167.241665,97.2583358 167.625,96.775 C168.008335,96.2916642 168.324999,95.8083357 168.575,95.325 C168.825001,94.8416642 169,94.500001 169.1,94.3 L169.75,94.65 C169.583333,95.0166685 169.333335,95.4833305 169,96.05 C168.666665,96.6166695 168.233336,97.1583307 167.7,97.675 C167.166664,98.1916693 166.550004,98.6416648 165.85,99.025 C165.149997,99.4083352 164.333338,99.6 163.4,99.6 C161.199989,99.6 160.1,98.60001 160.1,96.6 C160.1,96.3666655 160.149999,95.9583362 160.25,95.375 C160.350001,94.7916637 160.483332,94.266669 160.65,93.8 L160.55,93.8 C160.083331,94.3666695 159.550003,94.9916632 158.95,95.675 C158.349997,96.3583368 157.675004,96.9916637 156.925,97.575 C156.174996,98.1583362 155.350005,98.6416648 154.45,99.025 C153.549996,99.4083352 152.550005,99.6 151.45,99.6 C150.749996,99.6 150.075003,99.4750012 149.425,99.225 C148.774997,98.9749987 148.200002,98.5916692 147.7,98.075 C147.199998,97.5583307 146.808335,96.900004 146.525,96.1 C146.241665,95.299996 146.1,94.3500055 146.1,93.25 C146.1,91.91666 146.366664,90.58334 146.9,89.25 C147.433336,87.91666 148.124996,86.6416727 148.975,85.425 C149.825004,84.2083273 150.808328,83.0833385 151.925,82.05 C153.041672,81.0166615 154.174994,80.1166705 155.325,79.35 C156.475006,78.5833295 157.608328,77.9833355 158.725,77.55 C159.841672,77.1166645 160.833329,76.9 161.7,76.9 C162.700005,76.9 163.549996,77.1833305 164.25,77.75 C164.950004,78.3166695 165.3,79.066662 165.3,80 L165.4,80 L166.25,77.55 L169.75,77.55 L164.3,92.7 Z M178.65,83.6 C178.950001,82.733329 179.233332,81.8500045 179.5,80.95 L180.3,78.25 L175.95,78.25 L176.15,77.55 L183.85,77.55 C183.683333,78.2500035 183.441668,79.133328 183.125,80.2 C182.808332,81.266672 182.466668,82.299995 182.1,83.3 L182.2,83.4 C182.533335,82.8999975 182.949997,82.3000035 183.45,81.6 C183.950003,80.8999965 184.516664,80.2250032 185.15,79.575 C185.783337,78.9249967 186.48333,78.3750022 187.25,77.925 C188.01667,77.4749977 188.833329,77.25 189.7,77.25 C190.93334,77.25 191.874997,77.5999965 192.525,78.3 C193.175003,79.0000035 193.483334,79.749996 193.45,80.55 C193.45,81.083336 193.358334,81.5249983 193.175,81.875 C192.991666,82.2250017 192.758335,82.4916657 192.475,82.675 C192.191665,82.8583342 191.900001,82.983333 191.6,83.05 C191.299999,83.116667 191.016668,83.15 190.75,83.15 C190.283331,83.15 189.900001,83.0333345 189.6,82.8 C189.299999,82.5666655 189.15,82.216669 189.15,81.75 C189.15,81.3833315 189.224999,81.1083342 189.375,80.925 C189.525001,80.7416657 189.683333,80.5666675 189.85,80.4 C190.016668,80.2333325 190.174999,80.050001 190.325,79.85 C190.475001,79.649999 190.55,79.383335 190.55,79.05 C190.55,78.716665 190.416668,78.450001 190.15,78.25 C189.883332,78.049999 189.550002,77.95 189.15,77.95 C188.516664,77.95 187.783338,78.2749968 186.95,78.925 C186.116663,79.5750033 185.291671,80.4083283 184.475,81.425 C183.658329,82.4416718 182.883337,83.5999935 182.15,84.9 C181.416663,86.2000065 180.816669,87.4999935 180.35,88.8 L176.75,99 L173.25,99 L178.65,83.6 Z" id="logo3" fill="#000000"></path>
    </g>
</svg>