<?xml version="1.0" encoding="UTF-8"?>
<svg width="158px" height="56px" viewBox="0 0 158 56" version="1.1" xmlns="http://www.w3.org/2000/svg" xmlns:xlink="http://www.w3.org/1999/xlink">
    <!-- Generator: Sketch 48.1 (47250) - http://www.bohemiancoding.com/sketch -->
    <title>Typographic Calendar</title>
    <desc>Created with Sketch.</desc>
    <defs></defs>
    <g id="Artboard" stroke="none" stroke-width="1" fill="none" fill-rule="evenodd">
        <path d="M13.4163415,2.83207208 L10.0802566,2.83207208 C10.0322553,5.304135 10.0322553,7.80019853 10.0322553,10.3442633 L10.0322553,11.3762896 C10.0322553,13.8243519 10.0322553,16.3204154 10.0802566,18.7684777 L12.5283189,19.0084838 L12.5283189,19.8245046 L3.50408919,19.8245046 L3.50408919,19.0084838 L5.92815089,18.7684777 C5.97615211,16.3684166 5.97615211,13.8963537 5.97615211,11.4002902 L5.97615211,10.3442633 C5.97615211,7.82419914 5.97615211,5.304135 5.92815089,2.83207208 L2.61606659,2.83207208 L1.41603604,7.03217899 L-2.08721929e-14,7.03217899 L0.0960024435,1.89604826 L15.9364056,1.89604826 L16.0324081,7.03217899 L14.6403726,7.03217899 L13.4163415,2.83207208 Z M29.6887557,6.72017104 L29.6887557,7.44018937 L28.0807147,7.65619487 L22.8965828,21.4565461 C21.4805467,25.2006414 19.368493,26.3286701 17.9044557,26.3286701 C16.5604215,26.3286701 15.2883891,25.53665 15.2403879,24.4566225 C15.4323928,23.376595 16.3684166,22.9205834 17.3044404,22.9205834 C18.2644649,22.9205834 18.9604826,23.4725974 19.5604979,24.240617 L19.9445076,24.7446298 C20.8565308,23.9766103 21.528548,22.8485816 22.2245657,21.1205376 L16.5364209,7.58419304 L15.1443855,7.44018937 L15.1443855,6.72017104 L22.4645718,6.72017104 L22.4645718,7.44018937 L20.7125272,7.63219426 L23.9766103,16.7044252 L26.9286854,7.68019548 L24.7446298,7.44018937 L24.7446298,6.72017104 L29.6887557,6.72017104 Z M36.0489175,8.80822419 L36.0489175,17.9284563 C36.6489328,18.4084685 37.2489481,18.5284716 38.0409682,18.5284716 C39.9130159,18.5284716 41.2330495,17.2324386 41.2330495,13.2243366 C41.2330495,9.31223702 40.0810202,7.96820281 38.1849719,7.96820281 C37.4649536,7.96820281 36.8409377,8.08820586 36.0489175,8.80822419 Z M35.7849108,6.57616738 L35.9529151,8.11220648 C37.0809438,6.86417471 38.4969798,6.31216066 40.0810202,6.31216066 C43.0090947,6.31216066 45.3371539,8.76022297 45.3371539,13.200336 C45.3371539,17.5684472 42.6730861,20.232515 39.5050055,20.232515 C38.1849719,20.232515 36.9849414,19.7525027 35.9769157,18.5764728 L35.9769157,19.9925089 C35.9769157,21.4325455 36.0009163,23.2565919 36.0249169,25.1286396 L37.872964,25.3446451 L37.872964,26.0406628 L30.5047764,26.0406628 L30.5047764,25.3446451 L32.1128173,25.1766408 C32.136818,23.2805925 32.1608186,21.4565461 32.1608186,19.9925089 L32.1608186,12.1443091 C32.1608186,10.5842694 32.136818,9.76824863 32.0888167,8.6162193 L30.3127715,8.42421442 L30.3127715,7.84819976 L35.4489023,6.33616127 L35.7849108,6.57616738 Z M54.0013745,20.232515 C49.89727,20.232515 47.2092016,17.4244435 47.2092016,13.200336 C47.2092016,8.95222786 50.2332786,6.31216066 54.0013745,6.31216066 C57.793471,6.31216066 60.817548,8.90422663 60.817548,13.200336 C60.817548,17.4964453 58.0814783,20.232515 54.0013745,20.232515 Z M54.0013745,19.3924936 C55.7294184,19.3924936 56.6654423,17.4244435 56.6654423,13.2483372 C56.6654423,9.0482303 55.7294184,7.15218204 54.0013745,7.15218204 C52.2733305,7.15218204 51.313306,9.0482303 51.313306,13.2483372 C51.313306,17.4244435 52.2733305,19.3924936 54.0013745,19.3924936 Z M68.3297392,14.5203696 C69.697774,14.5203696 70.4657935,13.0803329 70.4657935,10.7522737 C70.4657935,8.40021381 69.6737734,7.03217899 68.3537398,7.03217899 C67.0097056,7.03217899 66.241686,8.42421442 66.241686,10.7522737 C66.241686,13.0803329 66.9377037,14.5203696 68.3297392,14.5203696 Z M70.5857966,20.664526 L67.9217288,20.664526 C66.5056927,20.664526 65.8336756,20.6165247 65.0656561,20.4005192 C64.6576457,20.9285327 64.4656408,21.4565461 64.4656408,22.2485663 C64.4656408,24.0006109 65.7856744,24.9846359 67.96973,24.9846359 C71.1378106,24.9846359 72.6738497,24.0006109 72.6738497,22.6085754 C72.6738497,21.5765492 72.1218357,20.664526 70.5857966,20.664526 Z M75.9619334,6.57616738 L75.9619334,8.44821503 L73.0578595,8.13620709 C73.6098736,8.85622541 73.8738803,9.74424801 73.8738803,10.7522737 C73.8738803,13.2723378 72.0738345,15.2643885 68.3297392,15.2643885 C67.1777098,15.2643885 66.1936848,15.0723836 65.4016646,14.7363751 C65.1376579,15.1683861 64.9936542,15.5763965 64.9936542,16.1044099 C64.9936542,16.9924325 65.5456683,17.4484441 66.8897025,17.4484441 L70.4177923,17.4484441 C74.2818907,17.4484441 75.6979267,18.936482 75.6979267,21.096537 C75.6979267,23.7846054 73.0338589,26.0406628 67.9937306,26.0406628 C63.6256194,26.0406628 62.2095834,24.5286243 62.2095834,22.7765797 C62.2095834,21.7205528 63.0016035,20.784529 64.6096445,20.1605131 C63.5536176,19.6805009 62.8575999,19.056485 62.8575999,17.8564545 C62.8575999,16.6564239 63.4816158,15.7684013 64.9216524,14.496369 C63.4576152,13.7043488 62.7615974,12.336314 62.7615974,10.7522737 C62.7615974,8.18420831 64.5616433,6.31216066 68.3537398,6.31216066 C70.2017868,6.31216066 71.545821,6.76817227 72.4578442,7.53619181 L75.5299224,6.31216066 L75.9619334,6.57616738 Z M82.4420984,6.57616738 L82.6341032,10.0082547 C83.3541216,7.56019243 84.9861631,6.31216066 86.4261998,6.31216066 C87.5542285,6.31216066 88.5142529,6.76817227 88.754259,8.20820892 C88.6582566,9.2642358 88.1782444,10.1522584 86.9782138,10.1522584 C86.0661906,10.1522584 85.4901759,9.57624374 84.8421594,8.71222175 L84.6261539,8.42421442 C83.6661295,9.31223702 83.0901148,10.3442633 82.6341032,12.1203085 L82.6341032,14.1123592 C82.6341032,15.4323928 82.6581038,17.4484441 82.6821045,18.8644801 L84.8901607,19.0804856 L84.8901607,19.8245046 L77.0899621,19.8245046 L77.0899621,19.0804856 L78.7220037,18.9124814 C78.7460043,17.5204459 78.7700049,15.4563934 78.7700049,14.1123592 L78.7700049,12.1203085 C78.7700049,10.5602688 78.7460043,9.76824863 78.6980031,8.6162193 L76.8979572,8.42421442 L76.8979572,7.84819976 L82.1060898,6.33616127 L82.4420984,6.57616738 Z M96.5784582,17.4964453 L96.5784582,12.5043183 C96.0264441,12.6483219 95.5464319,12.7923256 95.2584246,12.9123287 C93.5783818,13.6083464 92.6903592,14.7363751 92.6903592,16.4884197 C92.6903592,17.9284563 93.3623763,18.6004734 94.490405,18.6004734 C95.1384215,18.6004734 95.6904356,18.2884655 96.5784582,17.4964453 Z M102.1466,18.0244588 L102.55461,18.3604673 C101.954595,19.6805009 101.042572,20.232515 99.5065327,20.232515 C97.9224924,20.232515 97.0344698,19.4404948 96.6744606,18.1444618 C95.4504294,19.488496 94.5384062,20.232515 92.6183574,20.232515 C90.5543048,20.232515 89.1142682,18.9844832 89.1142682,16.9684319 C89.1142682,14.7843763 90.3622999,13.6083464 94.2263983,12.4803177 C94.8984154,12.2883128 95.7384368,12.0723073 96.5784582,11.8563018 L96.5784582,10.3922645 C96.5784582,7.89620098 96.0024435,7.15218204 94.1783971,7.15218204 C93.8423885,7.15218204 93.5303806,7.17618265 93.1703714,7.24818448 L93.0023671,8.95222786 C92.9303653,10.5842694 92.1143445,11.2322859 91.2023213,11.2322859 C90.3382993,11.2322859 89.7382841,10.8002749 89.5462792,10.0082547 C89.7382841,7.75219731 91.8263372,6.31216066 95.5464319,6.31216066 C98.9545186,6.31216066 100.322553,7.77619792 100.322553,11.2562865 L100.322553,17.7124508 C100.322553,18.624474 100.610561,18.936482 101.066572,18.936482 C101.426582,18.936482 101.690588,18.7444771 102.1466,18.0244588 Z M108.458761,8.80822419 L108.458761,17.9284563 C109.058776,18.4084685 109.658791,18.5284716 110.450811,18.5284716 C112.322859,18.5284716 113.642892,17.2324386 113.642892,13.2243366 C113.642892,9.31223702 112.490863,7.96820281 110.594815,7.96820281 C109.874797,7.96820281 109.250781,8.08820586 108.458761,8.80822419 Z M108.194754,6.57616738 L108.362758,8.11220648 C109.490787,6.86417471 110.906823,6.31216066 112.490863,6.31216066 C115.418938,6.31216066 117.746997,8.76022297 117.746997,13.200336 C117.746997,17.5684472 115.082929,20.232515 111.914849,20.232515 C110.594815,20.232515 109.394784,19.7525027 108.386759,18.5764728 L108.386759,19.9925089 C108.386759,21.4325455 108.410759,23.2565919 108.43476,25.1286396 L110.282807,25.3446451 L110.282807,26.0406628 L102.914619,26.0406628 L102.914619,25.3446451 L104.52266,25.1766408 C104.546661,23.2805925 104.570662,21.4565461 104.570662,19.9925089 L104.570662,12.1443091 C104.570662,10.5842694 104.546661,9.76824863 104.49866,8.6162193 L102.722615,8.42421442 L102.722615,7.84819976 L107.858745,6.33616127 L108.194754,6.57616738 Z M133.347394,18.9604826 L134.787431,19.0804856 L134.787431,19.8245046 L127.827254,19.8245046 L127.827254,19.0804856 L129.363293,18.936482 C129.387293,17.5444465 129.411294,15.5043946 129.411294,14.1123592 L129.411294,10.6562712 C129.411294,8.78422358 128.715276,8.11220648 127.659249,8.11220648 C126.89123,8.11220648 125.955206,8.52021686 124.971181,9.40823946 L124.971181,14.1123592 C124.971181,15.4563934 124.995181,17.5444465 125.019182,18.9604826 L126.411217,19.0804856 L126.411217,19.8245046 L119.475041,19.8245046 L119.475041,19.0804856 L121.059081,18.936482 C121.083082,17.5204459 121.107082,15.4563934 121.107082,14.1123592 L121.107082,1.82404643 L119.355038,1.65604215 L119.355038,1.03202627 L124.659173,1.42108547e-14 L124.995181,0.216005498 L124.92318,4.08010385 L124.92318,8.73622236 C126.363216,7.03217899 127.587247,6.31216066 129.387293,6.31216066 C131.715352,6.31216066 133.299393,7.7281967 133.299393,10.9922798 L133.299393,14.1123592 C133.299393,15.5283952 133.323393,17.5684472 133.347394,18.9604826 Z M139.779558,3.93610018 C138.651529,3.93610018 137.715505,3.12007941 137.715505,1.9920507 C137.715505,0.840021381 138.651529,0.0240006109 139.779558,0.0240006109 C140.931587,0.0240006109 141.867611,0.840021381 141.867611,1.9920507 C141.867611,3.12007941 140.931587,3.93610018 139.779558,3.93610018 Z M141.84361,18.936482 L143.307648,19.0804856 L143.307648,19.8245046 L136.299469,19.8245046 L136.299469,19.0804856 L137.883509,18.936482 C137.90751,17.5204459 137.931511,15.4563934 137.931511,14.1123592 L137.931511,12.1923103 C137.931511,10.6562712 137.90751,9.76824863 137.859509,8.54421747 L136.059463,8.35221258 L136.059463,7.77619792 L141.555603,6.33616127 L141.891611,6.57616738 L141.795609,10.4162651 L141.795609,14.1123592 C141.795609,15.4563934 141.81961,17.5444465 141.84361,18.936482 Z M153.531908,9.0482303 L153.291902,7.20018326 C153.051896,7.17618265 152.83589,7.15218204 152.619885,7.15218204 C150.48383,7.15218204 148.92379,9.24023519 148.92379,12.9123287 C148.92379,16.4884197 150.675835,18.5284716 153.2439,18.5284716 C154.635936,18.5284716 155.667962,17.9044557 156.531984,16.8244282 L157.011996,17.1364362 C155.907968,19.1284869 154.155924,20.232515 151.539857,20.232515 C147.891764,20.232515 144.843687,17.760452 144.843687,13.2963384 C144.843687,8.8322248 148.10777,6.31216066 152.115872,6.31216066 C154.827941,6.31216066 156.74799,7.96820281 157.059998,10.1282578 C156.819991,10.9922798 156.291978,11.4002902 155.475957,11.4002902 C154.467932,11.4002902 153.62791,10.8242755 153.531908,9.0482303 Z M15.3843916,49.5692617 L15.480394,53.8893716 C14.0163568,54.7533936 12.2643122,55.3054077 10.0322553,55.3054077 C4.72812034,55.3054077 0.480012217,52.1853282 0.480012217,45.849167 C0.480012217,39.4410039 5.01612767,36.4169269 10.2242602,36.4169269 C12.2883128,36.4169269 13.75235,36.9209397 15.3123897,37.7849617 L15.2163873,42.1530729 L13.8003513,42.1530729 L12.4803177,37.5689562 C11.9283036,37.4009519 11.3522889,37.3289501 10.7282731,37.3289501 C7.36818754,37.3289501 4.72812034,39.9690173 4.72812034,45.8731676 C4.72812034,51.8013185 7.34418693,54.3693838 10.8242755,54.3693838 C11.4962926,54.3693838 12.0963079,54.2733814 12.6963232,54.0573759 L13.9683555,49.5692617 L15.3843916,49.5692617 Z M24.8406323,52.4973362 L24.8406323,47.5052091 C24.2886182,47.6492128 23.808606,47.7932165 23.5205987,47.9132195 C21.8405559,48.6092372 20.9525333,49.7372659 20.9525333,51.4893105 C20.9525333,52.9293472 21.6245504,53.6013643 22.7525791,53.6013643 C23.4005956,53.6013643 23.9526097,53.2893563 24.8406323,52.4973362 Z M30.408774,53.0253496 L30.8167844,53.3613582 C30.2167691,54.6813918 29.3047459,55.2334058 27.7687068,55.2334058 C26.1846665,55.2334058 25.2966439,54.4413857 24.9366347,53.1453527 C23.7126035,54.4893869 22.8005803,55.2334058 20.8805315,55.2334058 C18.8164789,55.2334058 17.3764423,53.9853741 17.3764423,51.9693227 C17.3764423,49.7852672 18.624474,48.6092372 22.4885724,47.4812085 C23.1605895,47.2892036 24.0006109,47.0731981 24.8406323,46.8571926 L24.8406323,45.3931554 C24.8406323,42.8970918 24.2646176,42.1530729 22.4405712,42.1530729 C22.1045626,42.1530729 21.7925547,42.1770735 21.4325455,42.2490753 L21.2645412,43.9531187 C21.1925394,45.5851603 20.3765186,46.2331767 19.4644954,46.2331767 C18.6004734,46.2331767 18.0004582,45.8011658 17.8084533,45.0091456 C18.0004582,42.7530882 20.0885113,41.3130515 23.808606,41.3130515 C27.2166927,41.3130515 28.5847276,42.7770888 28.5847276,46.2571774 L28.5847276,52.7133417 C28.5847276,53.6253649 28.8727349,53.9373728 29.3287465,53.9373728 C29.6887557,53.9373728 29.9527624,53.745368 30.408774,53.0253496 Z M37.2489481,53.9373728 L38.8809896,54.0813765 L38.8809896,54.8253954 L31.6088045,54.8253954 L31.6088045,54.0813765 L33.2648467,53.9373728 C33.2888473,52.3773331 33.3128479,50.6492891 33.3128479,49.1132501 L33.3128479,36.8249373 L31.5608033,36.656933 L31.5608033,36.0329171 L36.9369401,35.0008909 L37.2729487,35.2168964 L37.1769462,39.0809947 L37.1769462,49.1132501 C37.1769462,50.6732898 37.2009469,52.3773331 37.2489481,53.9373728 Z M44.5451338,47.3612055 L47.8092169,47.3852061 C48.9372456,47.3852061 49.2252529,46.833192 49.2252529,45.3451541 C49.2252529,43.257101 48.3132297,42.1530729 47.0411973,42.1530729 C45.7211637,42.1530729 44.6411362,43.6411108 44.5451338,47.3612055 Z M52.2253293,51.705316 L52.6813409,51.9933234 C51.6973158,54.0573759 49.777267,55.2334058 47.3292046,55.2334058 C43.3691038,55.2334058 40.4410293,52.7133417 40.4410293,48.2252274 C40.4410293,43.7131126 43.8731167,41.3130515 47.305204,41.3130515 C50.9052957,41.3130515 52.8493451,43.7371132 52.8493451,46.7851908 C52.8493451,47.3852061 52.8253445,47.7932165 52.7053415,48.2492281 L44.5451338,48.2492281 C44.6651368,51.9933234 46.4651827,53.5293625 48.7212401,53.5293625 C50.4012828,53.5293625 51.4333091,52.8093441 52.2253293,51.705316 Z M68.3297392,53.9613734 L69.7697758,54.0813765 L69.7697758,54.8253954 L62.8095987,54.8253954 L62.8095987,54.0813765 L64.3216371,53.9373728 C64.3456378,52.5453374 64.3696384,50.5052855 64.3696384,49.1132501 L64.3696384,45.6571621 C64.3696384,43.7851144 63.8416249,43.1130973 62.7135962,43.1130973 C61.9935779,43.1130973 61.0095528,43.5691089 59.9775266,44.4811322 L59.9775266,49.1132501 C59.9775266,50.4572843 60.0015272,52.5453374 60.0255278,53.9613734 L61.3935626,54.0813765 L61.3935626,54.8253954 L54.4573861,54.8253954 L54.4573861,54.0813765 L56.065427,53.9373728 C56.0894276,52.5213368 56.1134282,50.4572843 56.1134282,49.1132501 L56.1134282,47.1211993 C56.1134282,45.5611596 56.0894276,44.7691395 56.0414264,43.6171102 L54.2413806,43.4251053 L54.2413806,42.8490906 L59.4495131,41.3370521 L59.7855217,41.5770582 L59.9295254,43.689112 C61.5135657,41.8650656 62.8335993,41.3130515 64.4176396,41.3130515 C66.6976976,41.3130515 68.2577373,42.8010894 68.2577373,45.9451694 L68.2577373,49.1132501 C68.2577373,50.5292861 68.2817379,52.569338 68.3297392,53.9613734 Z M80.4740483,52.9053466 L80.4740483,43.5931096 C79.8980336,43.1370979 79.2980183,42.9690937 78.6980031,42.9690937 C76.8739566,42.9690937 75.3619181,44.1931248 75.3619181,48.2252274 C75.3619181,52.137327 76.7539536,53.5293625 78.6020006,53.5293625 C79.2740177,53.5293625 79.8980336,53.3613582 80.4740483,52.9053466 Z M84.3381466,53.9853741 L85.8981863,54.0813765 L85.8981863,54.8253954 L80.7620556,55.1134028 L80.5700507,53.6253649 C79.562025,54.6333906 78.3139933,55.2334058 76.849956,55.2334058 C73.705876,55.2334058 71.2338131,52.7133417 71.2338131,48.3692311 C71.2338131,43.8571163 73.8978809,41.3130515 77.1859646,41.3130515 C78.578,41.3130515 79.6820281,41.841065 80.6180519,42.9450931 L80.6180519,36.8489379 L78.6500018,36.656933 L78.6500018,36.0329171 L84.0981405,35.0008909 L84.4341491,35.2168964 L84.3381466,39.0569941 L84.3381466,53.9853741 Z M94.7304111,52.4973362 L94.7304111,47.5052091 C94.1783971,47.6492128 93.6983849,47.7932165 93.4103775,47.9132195 C91.7303348,48.6092372 90.8423122,49.7372659 90.8423122,51.4893105 C90.8423122,52.9293472 91.5143293,53.6013643 92.642358,53.6013643 C93.2903745,53.6013643 93.8423885,53.2893563 94.7304111,52.4973362 Z M100.298553,53.0253496 L100.706563,53.3613582 C100.106548,54.6813918 99.1945247,55.2334058 97.6584856,55.2334058 C96.0744453,55.2334058 95.1864227,54.4413857 94.8264136,53.1453527 C93.6023824,54.4893869 92.6903592,55.2334058 90.7703103,55.2334058 C88.7062578,55.2334058 87.2662211,53.9853741 87.2662211,51.9693227 C87.2662211,49.7852672 88.5142529,48.6092372 92.3783513,47.4812085 C93.0503684,47.2892036 93.8903897,47.0731981 94.7304111,46.8571926 L94.7304111,45.3931554 C94.7304111,42.8970918 94.1543965,42.1530729 92.33035,42.1530729 C91.9943415,42.1530729 91.6823335,42.1770735 91.3223244,42.2490753 L91.1543201,43.9531187 C91.0823183,45.5851603 90.2662975,46.2331767 89.3542743,46.2331767 C88.4902523,46.2331767 87.890237,45.8011658 87.6982321,45.0091456 C87.890237,42.7530882 89.9782902,41.3130515 93.6983849,41.3130515 C97.1064716,41.3130515 98.4745064,42.7770888 98.4745064,46.2571774 L98.4745064,52.7133417 C98.4745064,53.6253649 98.7625137,53.9373728 99.2185254,53.9373728 C99.5785345,53.9373728 99.8425412,53.745368 100.298553,53.0253496 Z M106.826719,41.5770582 L107.018724,45.0091456 C107.738742,42.5610833 109.370784,41.3130515 110.81082,41.3130515 C111.938849,41.3130515 112.898874,41.7690631 113.13888,43.2090998 C113.042877,44.2651267 112.562865,45.1531493 111.362834,45.1531493 C110.450811,45.1531493 109.874797,44.5771346 109.22678,43.7131126 L109.010775,43.4251053 C108.05075,44.3131279 107.474735,45.3451541 107.018724,47.1211993 L107.018724,49.1132501 C107.018724,50.4332836 107.042724,52.449335 107.066725,53.865371 L109.274781,54.0813765 L109.274781,54.8253954 L101.474583,54.8253954 L101.474583,54.0813765 L103.106624,53.9133722 C103.130625,52.5213368 103.154626,50.4572843 103.154626,49.1132501 L103.154626,47.1211993 C103.154626,45.5611596 103.130625,44.7691395 103.082624,43.6171102 L101.282578,43.4251053 L101.282578,42.8490906 L106.49071,41.3370521 L106.826719,41.5770582 Z" id="Typographic-Calendar" fill="#000000"></path>
    </g>
</svg>
