<?xml version="1.0" encoding="UTF-8"?>
<svg width="13px" height="14px" viewBox="0 0 13 14" version="1.1" xmlns="http://www.w3.org/2000/svg" xmlns:xlink="http://www.w3.org/1999/xlink">
    <!-- Generator: Sketch 48.2 (47327) - http://www.bohemiancoding.com/sketch -->
    <title>Shape</title>
    <desc>Created with Sketch.</desc>
    <defs></defs>
    <g id="Page-1" stroke="none" stroke-width="1" fill="none" fill-rule="evenodd">
        <path d="M7.1,10.9 C5.7,10.9 4.7,10.3 4.1,9 L12.4,5.6 L12.1,4.9 C11.6,3.5 10,0.9 6.8,0.9 C3.6,0.9 0.9,3.4 0.9,7.1 C0.9,10.6 3.5,13.3 7.1,13.3 C9.9,13.3 11.6,11.6 12.3,10.5 L10.2,9.1 C9.5,10.2 8.5,10.9 7.1,10.9 Z M6.9,3.3 C8,3.3 8.9,3.8 9.2,4.6 L3.6,6.9 C3.6,4.5 5.5,3.3 6.9,3.3 Z" id="Shape" fill="#000000"></path>
    </g>
</svg>