<?xml version="1.0" encoding="UTF-8"?>
<svg width="784px" height="382px" viewBox="0 0 784 382" version="1.1" xmlns="http://www.w3.org/2000/svg" xmlns:xlink="http://www.w3.org/1999/xlink">
    <!-- Generator: Sketch 48.2 (47327) - http://www.bohemiancoding.com/sketch -->
    <title>字體</title>
    <desc>Created with Sketch.</desc>
    <defs></defs>
    <g id="Page-1" stroke="none" stroke-width="1" fill="none" fill-rule="evenodd">
        <path d="M331.8,41.2 L381.4,88 C378.2,91.6 374.2,92.8 365.8,93.2 C350.6,106 327,122 306.2,132.4 L318.6,142.8 C315.4,146.4 311,147.6 302.6,148.4 C281.4,161.2 256.2,174.8 230.6,185.2 L233.8,185.6 C233,191.6 229,194.8 220.2,196 L220.2,229.2 L299.8,229.2 L328.2,191.6 C328.2,191.6 360.2,216.8 379.4,234 C378.2,238.4 373.8,240.4 368.2,240.4 L220.2,240.4 L220.2,316 C220.2,355.2 210.2,376 142.6,381.6 C140.6,363.2 138.2,350.4 129.4,341.2 C120.6,332.4 111,326.4 84.6,321.6 L84.6,316.8 C84.6,316.8 141.8,320.4 152.2,320.4 C158.2,320.4 160.2,318 160.2,313.2 L160.2,240.4 L10.2,240.4 L7,229.2 L160.2,229.2 L160.2,179.6 L206.6,183.2 C218.2,170 229.4,153.6 237.8,140.4 L81,140.4 L77.4,129.2 L239.4,129.2 L268.6,100 L299.8,126.8 C302.6,112.8 305,95.2 306.2,81.2 L70.6,81.2 C75.4,112.8 66.2,135.6 50.2,145.6 C34.6,155.6 8.6,148.4 1.8,127.2 C-3.4,107.2 8.2,92.4 24.6,84.8 C37.4,78.4 55.4,62 55,44.8 L59.4,44.8 C63.4,53.6 66.2,62 68.2,70 L188.6,70 C183.4,68.4 177.8,66 172.6,62 C173,39.6 163.4,16.4 147.8,3.2 L149.8,1.2 C255,-4.8 245.8,59.2 209.8,70 L303,70 L331.8,41.2 Z M640.2,282.4 L640.2,290 C640.2,291.6 636.6,294 630.2,296.4 C671.4,315.2 663.4,343.2 644.6,349.6 L675.4,349.6 C681.4,330.8 688.2,306.4 692.2,288.4 L697,290 L697,282.4 L640.2,282.4 Z M697,226.8 L640.2,226.8 L640.2,271.2 L697,271.2 L697,226.8 Z M703.8,149.6 L715,149.6 L715,110.4 L703.8,110.4 L703.8,149.6 Z M623.8,110.4 L623.8,149.6 L635.8,149.6 L635.8,110.4 L623.8,110.4 Z M635.8,59.6 L623.8,59.6 L623.8,99.2 L635.8,99.2 L635.8,59.6 Z M675.8,110.4 L663.8,110.4 L663.8,149.6 L675.8,149.6 L675.8,110.4 Z M675.8,59.6 L663.8,59.6 L663.8,99.2 L675.8,99.2 L675.8,59.6 Z M715,59.6 L703.8,59.6 L703.8,99.2 L715,99.2 L715,59.6 Z M527.4,164 L544.6,176.8 L545.8,145.6 L435.8,145.6 C437.8,154.8 437.8,162.8 436.6,169.2 L482.2,186 L508.6,186 L527.4,164 Z M475.4,228 L475.4,252 C475.4,258.4 475.4,264.8 475,271.6 C484.2,268.8 498.2,264.4 512.6,259.6 L512.6,246 C507.8,249.2 501.4,250.4 493.8,248 C489.8,241.2 482.6,234 475.4,228 Z M512.6,218.4 L512.6,197.2 L475.4,197.2 L475.4,216 C493.8,212 505.8,214 512.6,218.4 Z M470.2,39.6 L470.2,134.4 L481,134.4 L481,62 L509,74.4 L514.6,74.4 L514.6,39.6 L470.2,39.6 Z M503.4,85.6 L503.4,134.4 L514.6,134.4 L514.6,85.6 L503.4,85.6 Z M717,349.6 L740.6,319.6 C740.6,319.6 767.4,340 783.8,354.4 C782.6,358.8 778.6,360.8 772.6,360.8 L560.2,360.8 L557,349.6 L629,349.6 C624.6,348 620.2,345.6 616.2,341.2 C617.4,327.6 615,312 611.4,300 C608.6,300.4 605.4,300.4 602.2,300.4 L593.8,300.4 L593.8,196.4 L644.2,215.6 L695.8,215.6 L715.8,193.2 L576.6,193.2 L573.4,182 L714.6,182 L727.4,166.4 L715,166.4 L715,160.8 L623.8,160.8 L623.8,163.6 C623.8,166.4 611,174 589.4,174 L582.2,174 L582.2,151.2 C580.6,151.2 579,151.6 577,151.6 C569.8,159.6 557.8,172.8 550.2,179.6 L545.8,177.6 L571,196.4 C568.2,199.6 562.2,203.2 554.2,204.8 L554.2,326.8 C554.2,355.6 548.6,371.2 505.4,375.2 C504.6,362.4 503.4,352.4 499.4,346.4 C495.4,340.4 489.8,336 476.6,333.6 L476.6,327.6 C476.6,327.6 500.2,329.2 506.2,329.2 C511.4,329.2 512.6,327.2 512.6,322.4 L512.6,283.2 C507.8,290 502.6,297.6 496.6,306 C495.4,310.8 492.2,315.2 487.8,316.8 L473.4,286.8 C468.2,319.6 453,354 407.8,378 L404.2,374 C430.6,339.2 431.8,294 431.8,252 L431.8,180.8 L428.2,184.4 C419.4,191.2 403,188.8 398.2,176.4 C394.2,164.4 401,154 411.8,148.4 C418.2,142.8 423.8,128 419.8,117.6 L425.8,117.6 C428.6,123.6 431,129.2 433,134.4 L435.8,134.4 L435.8,12.8 L474.2,28.4 L510.2,28.4 L527,6.8 L568.6,36 C565.4,40 560.6,42.4 550.2,43.6 L550.2,126 L559.8,116.4 L582.2,138.4 L582.2,30.8 L628.2,48.4 L635.8,48.4 L635.8,2 L672.2,6 C671.8,9.6 669.4,12.4 663.8,13.6 L663.8,48.4 L675.8,48.4 L675.8,2 L714.2,6 C713.4,10.4 711,13.2 703.8,14.4 L703.8,48.4 L713.8,48.4 L733.8,25.2 L773.8,55.2 C771,58.8 767.4,61.2 758.6,62.4 L758.6,156.8 C758.6,158 754.6,160.4 747.4,162.8 C756.2,169.6 768.6,179.2 777.8,186.8 C776.6,191.2 772.6,193.2 767,193.2 L721,193.2 L760.2,222.4 C758.2,226 754.6,228 745.8,229.6 L745.8,284.8 C745.8,286.4 732.2,293.6 708.6,294 L747,306.8 C745.4,311.6 740.6,314.4 731.8,313.6 C721,324 704.6,337.6 689,349.6 L717,349.6 Z" id="字體" fill="#000000"></path>
    </g>
</svg>